<?xml version="1.0" standalone="no"?>
<!DOCTYPE svg PUBLIC "-//W3C//DTD SVG 1.1//EN" "http://www.w3.org/Graphics/SVG/1.1/DTD/svg11.dtd" >
<svg>
<metadata>
Created by FontForge 20120731 at Sun May 28 14:26:48 2017
 By www-data
Copyright (c) 2009 Sikhnet. All rights reserved.
</metadata>
<defs>
<font id="Prabhki" horiz-adv-x="20" >
  <font-face 
    font-family="Prabhki"
    font-weight="400"
    font-stretch="normal"
    units-per-em="2000"
    panose-1="3 0 5 7 0 0 0 2 0 4"
    ascent="1600"
    descent="-400"
    x-height="50"
    cap-height="1849.5"
    bbox="-1086 -823.211 2412.09 1881.06"
    underline-thickness="100"
    underline-position="-550"
    unicode-range="U+0020-2039"
  />
<missing-glyph horiz-adv-x="1000" 
d="M125 0v1200h750v-1200h-750zM250 125h500v950h-500v-950z" />
    <glyph glyph-name=".notdef" horiz-adv-x="1000" 
d="M125 0v1200h750v-1200h-750zM250 125h500v950h-500v-950z" />
    <glyph glyph-name="NULL" horiz-adv-x="0" 
 />
    <glyph glyph-name="nonmarkingreturn" horiz-adv-x="700" 
 />
    <glyph glyph-name="space" unicode=" " horiz-adv-x="700" 
 />
    <glyph glyph-name="exclam" unicode="!" horiz-adv-x="964" 
d="M586 382q4 -6 -5.5 -16t-25.5 -21t-36 -22t-37.5 -19.5t-29.5 -13t-12 -3.5q-66 161 -112 328t-72 339q-11 73 -18.5 155.5t-1.5 164t31.5 159t80.5 140.5q4 5 24.5 21.5t44.5 32t45.5 26t26.5 3.5q26 -23 43 -53t28.5 -63t18.5 -67t13 -65q14 -96 16.5 -190.5
t2.5 -190.5q0 -86 -4 -173t-8.5 -174t-8.5 -175t-4 -176q0 -8 -7.5 -16.5t-18 -16t-21 -14t-15.5 -9.5q-2 -2 -15.5 -9t-28.5 -14.5t-27.5 -13t-12.5 -3.5q0 89 4 177.5t8.5 177t8.5 176.5t4 176q0 96 -5 190.5t-20 188.5q-5 30 -12 63t-18 65t-27 61t-40 52q33 23 69 44
t73 43q-48 -59 -68.5 -132t-24.5 -142q-8 -89 -1.5 -179.5t21.5 -179.5q26 -160 71 -318.5t103 -313.5zM460 111q0 8 8 17t18.5 17t21 14.5t16.5 9.5q14 10 28.5 17.5t29.5 17.5q-2 -2 1.5 -1t9 2.5t10 2t4.5 -0.5q0 -19 -15 -32.5t-30 -23.5q-7 -7 -13.5 -11t-10.5 -11
q15 23 22 27.5t7 -5.5q0 -7 2.5 -10t-2.5 -3q-36 -23 -70 -44t-70 -44q-8 -6 -4 -2.5t4 7.5q3 7 4 10.5t5 7.5q3 6 7 15t8 14q7 14 15.5 24t22.5 20q11 9 24.5 19t28 19.5t29.5 16.5t30 10h6q3 -4 -0.5 -11.5t-9.5 -16l-12 -17t-8 -15.5q0 -4 3 -11.5t6 -10.5
q5 -17 10.5 -30.5t10.5 -30.5q-37 -23 -73.5 -46t-73.5 -45q8 13 15.5 25.5t18.5 25.5q0 4 5 10t5 12q-8 17 -22 33t125 121q-11 -20 -14.5 -36t4.5 -39q3 -7 6.5 -14t3.5 -16q0 -7 -0.5 -10t14.5 -3q4 0 3.5 -2.5t-8.5 -2.5q-23 -17 -46.5 -31t-45.5 -31q-13 -8 -17.5 -11
l-4.5 -3l4 4t7 10q5 7 8.5 13t6.5 10q23 26 53 45.5t59 36.5q4 0 14 4t19 7t12.5 2.5t-5.5 -8.5q-19 -23 -45.5 -39.5t-52.5 -30.5q40 21 60 36.5t26.5 22.5t2.5 3.5t-11 -19.5q-4 -2 -5 -5t-5 -7q-8 -10 -18 -17.5t-21 -17.5q-22 -17 -44 -32.5t-48 -28.5q-11 -3 -23 -5.5
t-26 -2.5q-7 1 -9.5 3.5t-3 6.5t-0.5 8.5t-2 10.5q-3 7 -6 13.5t-3 13.5q-8 20 -2.5 39t16.5 34q4 7 26 24.5t47.5 35t47.5 28.5t26 4q11 -9 19.5 -21.5t19.5 -25.5q3 -4 3.5 -7.5t0.5 -10.5q0 -15 -10 -22q-7 -14 -16.5 -28.5t-16.5 -27.5q-3 -4 -14.5 -13.5t-28 -21
t-35 -23t-34 -20.5t-25.5 -13t-10 -1q-7 20 -19.5 42t-9.5 45q0 5 3.5 14t8 17.5t9.5 14.5t25 17.5t54 33t70 44.5q8 5 4 2t-4 -7q-3 -3 -4 -8.5t-5 -9.5q-5 -6 -8 -15t-7 -16q-8 -13 -16 -23.5t-23 -20.5q-22 -16 -52 -37t-59 -28h-6q-7 14 -4.5 24t10.5 20q10 11 23.5 20
t24.5 19q23 15 -20 -21q0 2 2.5 5.5t2.5 6.5z" />
    <glyph glyph-name="quotedbl" unicode="&#x22;" horiz-adv-x="860" 
d="M104 1576q-5 0 6 10.5t26 23.5q18 15 41 35q8 6 20.5 15.5t26 18t26 13t20.5 0.5q80 -24 118.5 -72t47 -109t-8.5 -130.5t-47.5 -136t-70.5 -124.5t-77 -97q-26 -23 -57 -43t-65 -35q-26 -12 -27.5 -8.5t15.5 23.5q38 36 72.5 89.5t58 114t33 124t-2 120t-49 101
t-106.5 67.5zM415 1661q-1 1 9 12t26 26.5t36 32t39 29t34.5 18.5t22.5 -1q63 -51 93.5 -115.5t36.5 -137t-9 -148t-44 -148t-68 -137.5t-81 -115q-21 -29 -51.5 -49t-59.5 -36q-4 -3 -15.5 -8.5t-21.5 -9.5t-14 -2.5t6 13.5q41 49 77.5 112t63.5 133t40.5 143t6.5 142.5
t-37 132.5t-90 113z" />
    <glyph glyph-name="numbersign" unicode="#" horiz-adv-x="1550" 
d="M570 1170q-4 10 5.5 25.5t26 32.5t36.5 34t37.5 29.5t29.5 19t12 3.5q46 -135 54 -282t-5 -297t-39 -298t-50 -286q-2 -12 -12.5 -26.5t-24 -28t-27.5 -25.5t-23 -19q0 -2 -10 -10t-21.5 -15.5t-21 -11t-7.5 4.5q24 138 49.5 284t38 293.5t4.5 292.5t-52 280zM862 1301
q-2 10 6.5 24t20 26.5t22.5 22.5t14 13q2 2 15.5 13.5t28.5 23t27.5 19.5t12.5 3q29 -153 35.5 -309.5t-4 -314t-35 -313t-55.5 -305.5q-2 -15 -12.5 -29.5t-24 -27.5t-28 -24t-23.5 -18q0 -2 -10 -10.5t-21 -16t-20 -11t-7 4.5q31 148 54.5 302t33 310t3.5 311.5t-33 305.5
zM127 579q-23 -15 -26 -10.5t16 29.5q21 29 49.5 54.5t57.5 50.5q143 105 291.5 199.5t303.5 169.5q67 32 139.5 62.5t146.5 49.5t148.5 21.5t145.5 -22.5q2 0 -8 -12.5t-22.5 -27.5t-23 -28.5t-10.5 -16.5q-7 -8 -17.5 -19t-22 -20.5t-23 -16t-20.5 -3.5q-73 22 -148 18
t-149.5 -24t-147 -52.5t-140.5 -66.5q-140 -69 -274 -155t-266 -180zM244 342q-23 -15 -26 -10t16 30q22 29 49.5 54.5t56.5 50.5q77 54 159 103.5t167 85.5t171 56t171.5 14t169 -40.5t162.5 -106.5q4 -3 -5.5 -16t-22.5 -28t-24 -27.5t-11 -14.5q-6 -5 -17.5 -16.5
t-24 -23t-24 -18t-17.5 -1.5q-76 67 -155.5 100.5t-160.5 40.5t-163 -9.5t-162.5 -49t-158 -78t-150.5 -96.5z" />
    <glyph glyph-name="dollar" unicode="$" horiz-adv-x="986" 
d="M816 1301q2 -2 -4.5 -11t-18 -20.5t-25 -24t-26.5 -21.5t-23 -13.5t-13 -0.5q-2 2 -7 5.5t-9 6.5q-37 40 -88 53.5t-101 -7.5q-7 -3 -12.5 -7t-6.5 -4.5t3 3t16 15.5q5 3 5.5 2t-1.5 -3q-3 -3 -8 -6q-8 -13 -15.5 -25t-12.5 -25q-11 -28 -15.5 -58.5t0.5 -61.5
q6 -34 23.5 -56.5t41 -37t52.5 -23.5t58 -16t57 -15t50 -20q29 -17 57 -44t51.5 -60t40 -70t21.5 -74q9 -59 -12 -108.5t-61 -88.5q-50 -53 -109 -93t-122.5 -63t-131.5 -27.5t-136 14.5q-65 19 -120 54t-93 95q-46 70 -62 156.5t-11 175.5q0 8 6 16.5t13.5 16t15.5 13.5
l12 9q1 1 11 7.5t21 13.5t20 12t9 4v-17q-2 -88 17 -172.5t68 -153.5q42 -56 95.5 -90t117.5 -50q60 -15 122 -12t123 26q14 2 27.5 7.5t27.5 13.5q-3 -3 0 -1t6.5 4t5 2.5t-3.5 -3.5q7 4 6.5 3.5t-3 -2.5t-4.5 -3t1 2q-5 -2 -9.5 -6.5t-2.5 -2.5q-8 -5 -3.5 -1.5t7.5 8.5
q-3 -4 -2 -3.5t3.5 3t5.5 6t4 5.5q5 10 10 19t7 22q23 60 8 116t-46 107q-26 37 -56 70.5t-70 51.5q-43 22 -87 32.5t-87 26.5q-19 8 -36.5 18.5t-31.5 24.5t-23 33t-12 44q-5 57 16.5 112.5t59.5 95.5q40 43 90 81t103.5 55.5t107 6t98.5 -66.5zM546 1507q0 8 5.5 16
t13.5 15.5t16 13.5t13 9q1 1 10.5 7.5t20.5 13t20.5 11.5t9.5 4q-15 -128 -16.5 -255.5t4.5 -255t16 -255.5t18 -256t11.5 -255.5t-3.5 -255.5q0 -8 -6 -16t-14 -15.5t-16 -13t-12 -7.5q-2 -2 -12 -9t-21 -14t-20.5 -12t-9.5 -4q6 128 2.5 256t-11.5 256t-17.5 256
t-14.5 255.5t-3.5 255t16.5 255.5z" />
    <glyph glyph-name="percent" unicode="%" horiz-adv-x="1628" 
d="M1252 1553q23 29 60 52.5t78 43.5q0 2 16.5 10t35 15.5t32.5 10.5t8 -4q-141 -188 -283.5 -376t-279.5 -379t-266 -386.5t-244 -397.5q-9 -14 -25 -27.5t-35.5 -25.5t-40 -23t-38.5 -20q-30 -14 -52 -24q-19 -8 -32 -12.5t-7 3.5q115 202 243 397.5t264.5 387t279 379.5
t286.5 376zM578 1450q0 4 5 10t12 11.5t14.5 10t13.5 6.5q23 20 46 32t46 26q0 3 15.5 12t33.5 16.5t32.5 10.5t11.5 -7q-9 -26 -18 -53.5t-15 -56t-6.5 -57t7.5 -57.5q-5 0 -15.5 -3.5t-23.5 -3.5q20 7 15.5 2.5t-20 -14t-35 -21t-28.5 -18.5q5 5 6 6.5t1 6.5q7 10 13 16
t11 16q0 10 -2 22.5t-13 21.5q-12 5 -24 9.5t-29 4.5q-27 -3 -33 -7.5t6 -1.5t42 18.5t76 53.5q-11 -9 -19 -18t-19 -20q-23 -29 -60.5 -52.5t-78.5 -43.5q-17 -10 -34 -19t-34 -20q-11 -1 -18 -1q-6 0 -9 1.5t3 6.5q59 67 137 123t170 95q15 7 35 15.5t42 13.5t42 4t35 -13
q14 -12 16.5 -27.5t-1.5 -30.5t-13 -28.5t-18 -23.5q-29 -33 -65 -62t-77 -54t-85 -45.5t-87 -36.5q-11 -5 -20 -9q-8 -3 -13.5 -5t-5.5 0q-11 31 -10.5 61.5t7 60t16.5 58.5t19 58zM845 450q35 29 78.5 53.5t90.5 48.5q35 14 39.5 6.5t-23.5 -31.5q-15 -12 -32.5 -25.5
t-35 -28t-32.5 -30t-24 -32.5q-8 -17 -9 -34t3.5 -33.5t12.5 -33.5t17 -33q-18 -5 -35 -10t-34 -9q20 9 18.5 7t-12 -9.5t-25 -16.5t-19.5 -14q5 5 9.5 13t4.5 13q6 20 8 38.5t9 38.5q0 3 -0.5 13t-2 20.5t-5 18.5t-9.5 5q75 27 108 49t40 33.5t-3 9t-22 -26.5
q-6 -14 -12.5 -36t-17.5 -41q-6 -14 -23 -28t-38 -27t-42 -23.5t-36 -17.5q-27 -14 -48 -24q-18 -8 -32 -12.5t-11 3.5q9 22 16.5 41.5t17.5 36.5t23.5 33t33.5 30q59 54 131.5 93.5t152.5 53.5h9q0 -24 0.5 -48.5t-2.5 -49.5t-11.5 -48.5t-25.5 -45.5q-26 -29 -59.5 -54
t-70 -47.5t-74.5 -41.5l-72 -36q-3 -2 -13 -8t-21.5 -11.5t-21.5 -8.5t-13 2q-15 19 -25.5 40.5t-14 43t2 43t22.5 40.5q34 43 76.5 78.5t83.5 69.5z" />
    <glyph glyph-name="ampersand" unicode="&#x26;" horiz-adv-x="1140" 
d="M102 239q0 -32 -25.5 -56t-57.5 -24q-33 0 -57 25t-24 58q0 34 26 56.5t58 23.5q34 1 57 -24t23 -59zM67 1169h59h56h59q11 -8 27.5 -9.5t27.5 -1.5h50h56h58h55h51q13 9 29 10t28 1h56h50q18 0 31.5 1t25.5 9h59h56h48q18 0 31 5t26 5t26 1t31 9l-114 -99
q-11 -9 -23.5 -10t-24.5 -1q-19 0 -32.5 -5t-23.5 -5h-59q-12 0 -25.5 3.5t-31.5 -3.5h-50q-11 -8 -28 -9t-28 -1h-57h-51q-16 0 -30 -1.5t-25 -9.5h-58h-56h-50h-55h-59q-12 0 -24.5 5.5t-24.5 5.5h-58h-56h-66zM933 1189q0 -22 -1 -40.5t-7 -40.5v-60q-7 -14 -8 -29.5
t-1 -30.5q-6 -16 -7 -29.5t-1 -20.5q9 -10 5 -21.5t-15 -24t-27.5 -21.5t-33.5 -15t-33.5 -6t-25.5 8q-6 6 -12 8.5t-13 9.5q-6 9 -17.5 11t-23.5 2t-24.5 4.5t-23.5 4.5q-7 4 -14 4.5t-14.5 -0.5t-15 -2.5t-14.5 -1.5q-13 0 -28.5 -1t-29.5 -8q-17 0 -35.5 -2t-37.5 -11
q-18 0 -35.5 -6t-37.5 -12q-18 -8 -36.5 -12t-35.5 -19q-20 0 -38 -11.5t-37 -18.5q-9 -8 -17.5 -14.5t-13.5 -9.5t-3 -1t16 12.5t42 30t74 51.5l-7 -8q-7 -8 -17 -14t-18 -6q-11 -16 -21.5 -26t-19.5 -25q-11 -14 -17.5 -30t-11.5 -30q-8 -15 -14.5 -30.5t-12.5 -30.5
q0 -16 -1 -35t-6 -36v-59q0 -24 3.5 -39.5t3.5 -31.5q6 -14 8 -28.5t8 -30.5q13 -16 21 -25.5t19 -25.5q14 -6 26 -19.5t25 -22.5q18 -6 33 -12t32 -6h74q25 -8 44.5 -8t43.5 8q25 0 50.5 6t48.5 12q24 9 49 17t49 16q24 7 45 20.5t45 28.5q15 12 19 15.5t-6 -4.5
t-35.5 -27.5t-67.5 -54.5q-6 0 1 5q2 4 7 6q13 9 21 16t20 14q12 8 28 27t29 35q6 14 12.5 29t11.5 30q0 14 -3.5 29.5t-3.5 30.5q-7 8 -16.5 15.5t-16.5 14.5q-12 8 -25 15t-32 16q-12 0 -24.5 1.5t-24.5 8.5h-59q-11 -7 -23.5 -10t-23.5 -12q-13 -7 -27 -16t-23.5 -15
t-11.5 -7t9 7t39 27.5t79 53.5q-13 -6 -23.5 -19.5t-17.5 -30.5q-6 -14 -7 -34t-1 -35q6 -24 13 -45t18 -35q14 -14 31 -28.5t36 -22.5q19 0 36 2.5t30 18.5l-106 -103q-20 -6 -37.5 -10.5t-36.5 1.5q-19 8 -36 23.5t-30 37.5q-12 14 -22 36t-10 45q-7 21 -7 38.5t7 41.5
q7 15 16.5 30t15.5 30q45 31 84 59.5t88 50.5q12 9 24.5 10t24.5 1h57q17 0 30.5 -1t27.5 -10q11 -7 28 -14.5t28 -15.5q5 -7 16 -16.5t17 -23.5q6 -13 7.5 -30t8.5 -39q-7 -15 -9.5 -36t-13.5 -35q-8 -8 -14.5 -17t-13 -17.5t-14 -14.5t-17.5 -10q-48 -39 -92.5 -72
t-94.5 -71q-24 -6 -45 -19t-45 -19q-24 -9 -48.5 -16.5t-50.5 -15.5q-24 -7 -48.5 -9.5t-48.5 -9.5h-90q-18 0 -40.5 1t-42.5 9q-11 0 -28.5 6t-34.5 14q-13 7 -25 19.5t-25 20.5q-12 14 -23 29t-18 30q-7 17 -11.5 31.5t-4.5 29.5q-5 15 -6 35.5t-1 34.5v71v69
q6 17 11 31.5t12 29.5t14.5 30t19.5 31q5 15 16 30.5t24 29.5q7 7 16.5 14.5t16.5 15.5q32 23 51.5 36.5t30.5 20.5t17 10.5t10.5 6t11 6.5t18.5 11q19 15 37 23.5t36 16.5q19 7 36.5 9.5t37.5 10.5q18 7 36 9.5t36 10.5q20 0 38 5t37 5q17 0 32 1.5t33 7.5h49
q18 -6 31 -7.5t25 -1.5q14 0 24.5 -6t17.5 -15q4 0 10 -5q4 -2 6 -4q4 -5 5.5 -5.5t2.5 -0.5t1 -0.5v-4.5q-26 -15 -55.5 -34.5t-59.5 -36.5q0 -7 0.5 -8.5t7.5 -1.5q0 3 1 11t2.5 16t3 15t1.5 10q0 15 1.5 30t7.5 30v61q6 14 7 34.5t1 34.5z" />
    <glyph glyph-name="quotesingle" unicode="'" horiz-adv-x="500" 
d="M104 1576q-5 0 6 10.5t26 23.5q18 15 41 35q8 6 20.5 15.5t26 18t26 13t20.5 0.5q80 -24 118.5 -72t47 -109t-8.5 -130.5t-47.5 -136t-70.5 -124.5t-77 -97q-26 -23 -57 -43t-65 -35q-26 -12 -27.5 -8.5t15.5 23.5q38 36 72.5 89.5t58 114t33 124t-2 120t-49 101
t-106.5 67.5z" />
    <glyph glyph-name="parenleft" unicode="(" horiz-adv-x="772" 
d="M552 1672q0 3 13 12t27.5 17.5t25 12t6.5 -5.5q-7 -17 -20 -31.5t-28 -28t-30.5 -25t-28.5 -21.5q-7 -6 -3.5 -2.5t9.5 8.5t11 8.5t1 -2.5q-9 -9 -15 -16.5t-14 -19.5q-18 -21 -34.5 -47.5t-30.5 -59.5q-32 -60 -54.5 -123.5t-44.5 -128.5q-44 -153 -65.5 -309
t-17.5 -321q1 -90 12 -184.5t33.5 -185.5t57.5 -174t84.5 -149t115 -111.5t148.5 -61.5q9 0 4 -10t-15.5 -23t-21.5 -24.5t-13 -14.5q-9 -8 -24.5 -23.5t-32.5 -30.5t-33.5 -25t-27.5 -7q-92 16 -163.5 65t-124.5 122t-88.5 164.5t-57 192.5t-29.5 205.5t-5 204.5
q7 170 36.5 336t86.5 316.5t143.5 278.5t207.5 222z" />
    <glyph glyph-name="parenright" unicode=")" horiz-adv-x="772" 
d="M238 1702q135 -95 232 -225t160.5 -282.5t96.5 -321.5t41 -341q3 -101 -6 -207.5t-32.5 -209t-64 -195t-99.5 -166.5t-138.5 -124t-182.5 -66q-12 -3 -30.5 7t-37.5 25t-36.5 31t-27.5 25q-3 2 -15 13.5t-23.5 24.5t-17 23.5t4.5 10.5q93 16 166 62.5t128.5 113.5
t94.5 151.5t63.5 176.5t37 188.5t13.5 187.5q5 168 -19 325.5t-73 312.5q-24 66 -49.5 131t-60.5 125q-16 34 -34.5 60.5t-38.5 48.5q-10 13 -16 19.5t-17 16.5q-5 6 1 3t12.5 -8.5t10.5 -9t-4 1.5q-15 11 -32.5 23.5t-34 26t-30.5 28.5t-22 32q-5 8 7 4t28.5 -12.5
t30.5 -17.5t14 -12z" />
    <glyph glyph-name="asterisk" unicode="*" horiz-adv-x="802" 
d="M103 1149q-3 5 9 15.5t27.5 20.5t29 16.5t14.5 5.5q21 -42 53.5 -61t71 -24.5t80.5 -2t81 6.5q34 4 72.5 3t70.5 -14q38 -17 54 -52.5t20 -74.5q1 -5 -3 -10t-10.5 -10.5t-13 -9.5t-8.5 -5q-1 -1 -8 -5.5t-15.5 -9t-15 -8t-6.5 -1.5q-3 19 -8.5 39t-14.5 37t-23 30.5
t-34 21.5q-36 14 -74 13.5t-77 -5.5q-37 -3 -77 -5t-77 5t-68 26t-50 58zM48 889q-1 0 4 5t12 11t12.5 11t6.5 5q9 6 22 16t24 8q32 -6 65.5 -5.5t63.5 10.5q10 4 16.5 7.5t12 7t11 9t13.5 14.5q38 40 71 86.5t71 88.5q76 82 175 143q16 10 37 20.5t41 6.5q22 -5 28.5 -25
t6.5 -39q1 -4 -4 -9t-11 -10t-12 -9t-8 -6q-2 -1 -9 -5.5t-15.5 -9t-15 -8t-6.5 -1.5q-1 9 -3.5 20.5t-7 21t-12.5 16t-20 5.5q-2 0 -6 -1t-7 -2t-4 -1.5t2 1.5q2 4 -3 0q-3 -2 -6 -5q-4 -3 -6.5 -6t-7.5 -6q-38 -35 -71 -74t-65 -81q-39 -47 -81 -89t-96 -76
q-51 -33 -104 -45t-114 0zM451 826q-6 -11 -21.5 -20.5t-27.5 -16.5q-11 -6 -18 -10t-11 -5.5t-2 1.5q20 38 22.5 83t-2.5 90q-3 49 -12.5 98t-16.5 98q-5 44 -7 88.5t10 89.5q14 48 45.5 82.5t69.5 61.5q2 1 9 6t15 9.5t14.5 7.5t7.5 0q2 -2 -3 -7t-11.5 -10.5t-13 -10.5
t-7.5 -6q-6 -4 -6 -3.5t1.5 2t3 2t-1.5 -2.5q-4 -5 -7.5 -9t-5.5 -10q-6 -7 -10.5 -15.5t-8.5 -16.5q-8 -19 -12 -38.5t-4 -38.5q-5 -47 0 -89.5t13 -86.5q6 -38 13.5 -79t10.5 -83t-2 -83t-24 -78z" />
    <glyph glyph-name="plus" unicode="+" horiz-adv-x="1242" 
d="M812 1326q26 17 33.5 7.5t-15.5 -36.5q-22 -38 -55 -68t-68 -47q-12 -6 -12.5 -2t5 11.5t14.5 16t16.5 13.5t10 4t-4.5 -14q-5 -11 -12 -26t-12 -32q-9 -38 -13.5 -79t-4.5 -79q0 -87 8 -173.5t16 -173.5q2 -38 5 -78t3 -80.5t-4 -80.5t-15 -77q-12 -46 -32 -85.5
t-46.5 -73.5t-56.5 -62.5t-61 -52.5q-2 0 -16 -8.5t-29 -17t-25.5 -11.5t-6.5 8q4 19 16.5 36.5t27.5 32t30 26.5t26 20q10 7 10 4.5t-5.5 -10t-14.5 -17t-16.5 -15t-11 -5t2.5 13.5q5 5 8.5 11.5t3.5 17.5q17 31 17 65q9 38 10.5 76.5t1.5 82.5q0 92 -9 179.5t-14 180.5
q-2 40 -3.5 82.5t0.5 84.5t9.5 82t23.5 76q19 46 48.5 87t64.5 76t74 63t78 47zM86 598q-11 0 -6 12.5t16 27.5t23 27.5t14 12.5q9 11 23.5 25.5t31 28t33.5 22.5t31 9q117 -10 233.5 -1.5t231.5 27.5t229 44t227 47q11 0 5.5 -14t-16.5 -30.5t-22.5 -30t-13.5 -13.5
q-23 -26 -55 -49.5t-64 -28.5l-230 -50t-230.5 -43t-230.5 -26t-230 3z" />
    <glyph glyph-name="comma" unicode="," horiz-adv-x="700" 
d="M492 4q0 -99 -98 -202q-81 -86 -164 -124l-18 42q105 65 148 144q20 36 24 76q2 20 6 62q-17 19 -72 20q-74 1 -96 8q-47 15 -52 66q-5 55 36 88q37 28 94 28q66 0 116 -36q76 -54 76 -172z" />
    <glyph glyph-name="hyphen" unicode="-" horiz-adv-x="1048" 
d="M132 538v122h772v-122h-772z" />
    <glyph glyph-name="hyphen" unicode="&#x2010;" horiz-adv-x="1048" 
d="M132 538v122h772v-122h-772z" />
    <glyph glyph-name="period" unicode="." horiz-adv-x="580" 
d="M420 100q0 -52 -39 -89t-91 -37t-90 37t-38 89q0 54 37 93t91 39q53 0 91.5 -39.5t38.5 -92.5z" />
    <glyph glyph-name="slash" unicode="/" horiz-adv-x="644" 
d="M110 -30h-120l546 1440h120z" />
    <glyph glyph-name="zero" unicode="0" horiz-adv-x="1280" 
d="M523 1078q-9 -8 -31 -20t-40.5 -18t-24.5 -2.5t17 26.5q36 31 78 60.5t88 49t95 26t99 -8.5q47 -14 90 -40t77.5 -62t58 -81t32.5 -96q15 -91 6 -184.5t-42.5 -179t-92.5 -157.5t-144 -120q-41 -23 -87 -40t-93.5 -24.5t-95 -2.5t-91.5 28q-51 23 -90 60t-66 82.5
t-41 96.5t-14 102q-3 113 37 207t108.5 169.5t158.5 134t187 100.5q20 11 24 3.5t-7 -18.5q-17 -17 -38.5 -29t-39.5 -24q-82 -36 -148.5 -94t-109 -130t-56.5 -155.5t9 -171.5q18 -69 58.5 -131.5t105.5 -101.5q30 -18 69 -31t79.5 -17.5t79 2.5t67.5 30q36 25 63.5 62.5
t46.5 83t30.5 95.5t16 99.5t2.5 96t-10 84.5q-17 69 -56 128t-99 99q-26 16 -61 30t-72 19t-72 -2t-61 -33z" />
    <glyph glyph-name="one" unicode="1" horiz-adv-x="1040" 
d="M607 759q11 17 29.5 33t34.5 28q5 0 12.5 2t13.5 2.5t9.5 -2t1.5 -10.5q-24 -42 -60.5 -76t-80 -56t-91 -31t-92 0t-83.5 37t-66 79q-27 52 -25.5 105t23.5 102.5t60 92.5t84.5 76t96.5 52.5t97 21.5q65 4 105.5 -23t63 -73.5t30 -107t5 -123.5t-12 -123t-19.5 -105
q-4 -17 -14 -57.5t-19.5 -89.5t-14.5 -99.5t2 -88t29 -55t67 -0.5q19 9 14 0.5t-19.5 -23t-32.5 -28.5t-26 -17q-17 -6 -36 -12t-37 -6.5t-33 6.5t-23 27q-16 46 -14.5 94t6.5 90q11 57 23.5 113t23.5 111.5t18 111.5t7 113q0 31 -1.5 69t-9.5 74.5t-25 67.5t-49 48
q-38 20 -80 21.5t-79 -14t-64 -48.5t-36 -82q-5 -31 -1 -63t16 -61t32 -54t47 -43q19 -14 45 -26.5t53.5 -16.5t52.5 3.5t42 33.5z" />
    <glyph glyph-name="two" unicode="2" horiz-adv-x="1196" 
d="M329 858q3 -6 -12 -20.5t-34 -28.5t-36 -23t-20 -3q-30 53 -24.5 101.5t32 90t67 74.5t80.5 55q38 25 87 47t101 32.5t103.5 5.5t94.5 -33q64 -37 97 -89t42 -112t-2.5 -124.5t-36.5 -127.5t-60.5 -121t-73.5 -104q-61 -73 -136 -132.5t-163 -99.5q-24 -9 -51.5 -13
t-55.5 -1t-53 13t-43 29t-27 47.5t-4 67.5q7 47 25.5 92t45.5 83.5t62 68t77 46.5q27 9 53 4.5t50 -17t45.5 -31t39.5 -38.5q50 -57 97 -119.5t97 -119.5q27 -23 53 -42t57 -25q10 -5 23 -5t22 5q-15 -8 -20.5 -12.5t-5 -4.5t4.5 4.5t9 12.5q4 6 9 16t11 21q11 17 31.5 33
t35.5 28q3 0 9.5 2t12.5 2.5t8.5 -2t-1.5 -10.5q-22 -40 -47 -69.5t-57 -57.5q-50 -39 -100 -46.5t-101 31.5q-31 22 -58 49.5t-51.5 57t-47 59.5t-44.5 58q-15 19 -37.5 47t-48.5 51.5t-54.5 37.5t-56.5 5q-10 -5 -5.5 -0.5t25.5 16.5q-9 -12 -15.5 -19.5t-12.5 -19.5
q-4 -11 -12.5 -26.5t-13.5 -32.5q-5 -22 -12 -52.5t-3 -59.5q17 -51 53 -78t82 -27q51 6 96.5 31t84 61.5t69.5 80.5t54 89t42.5 95.5t28.5 103t3.5 104.5t-32.5 100q-25 45 -59.5 74.5t-76 45t-87.5 17t-94 -9.5q-18 -6 -39 -12t-41 -15t-38 -22.5t-31 -33.5
q-20 -38 -14 -77t28 -79z" />
    <glyph glyph-name="three" unicode="3" horiz-adv-x="1212" 
d="M273 1038q-3 0 -12 -5.5t-19 -11.5t-19 -9t-11 2q-3 3 3 11t15 16.5t18 14.5t11 6q83 70 185.5 103.5t210.5 27.5q34 -6 81 -17t91.5 -32t77 -54t37.5 -82q2 -35 -16.5 -68.5t-47 -62t-60 -51t-55.5 -36.5q-71 -41 -150 -61.5t-156 -8.5q-5 0 4.5 13.5t25 30t32.5 30
t28 13.5q40 0 82 0.5t83.5 -2t82 -9.5t79.5 -21q36 -15 65 -40.5t46 -59t19.5 -73.5t-15.5 -84q-28 -81 -82.5 -143.5t-123.5 -103t-147 -59t-152 -12.5q-18 0 -37.5 1.5t-39.5 6.5t-38.5 14t-33.5 24q-10 12 -22 26.5t-21 29.5t-13 30.5t1 29.5q7 24 29 47.5t48.5 37.5
t52.5 13t41 -27q25 -50 20 -101.5t-30.5 -100.5t-66.5 -93.5t-85.5 -81.5t-89 -64t-76.5 -41q-12 -6 -13.5 -3.5t4 10t15 17.5t20.5 19.5t20.5 17t14.5 9.5q52 23 95.5 68t69.5 104q7 15 13.5 43.5t5.5 58t-11.5 53.5t-35.5 30q31 48 46 57.5t15 -25.5q0 -6 3.5 -13t3.5 -19
q10 -12 17 -22t18 -17q20 -22 41 -34t47 -12q52 -11 99 -12t99 6q30 2 61 17t56.5 39t43.5 55.5t23 66.5q5 29 5 58.5t-7 56t-21.5 49t-37.5 37.5q-44 26 -91.5 38t-96.5 15.5t-97 2t-91 -1.5q20 24 44.5 43.5t45.5 43.5q19 -4 55 -3t76 8.5t78.5 22t61.5 36t24.5 51.5
t-30.5 69q-29 35 -70.5 60t-90 40t-101 19.5t-102.5 -2t-95.5 -24t-79.5 -46.5z" />
    <glyph glyph-name="four" unicode="4" horiz-adv-x="1112" 
d="M452 1191q7 0 4.5 -5.5t-8 -13t-11.5 -14.5t-6 -10q-8 -3 -16.5 -8.5t-17 -11.5t-17.5 -10.5t-16 -4.5q-25 5 -37 -1t-23 -27q-15 -22 -21.5 -43t-11.5 -43q-11 -43 -8 -84t33 -74q28 -29 65 -43.5t77.5 -19t81.5 -1.5t79 8q25 3 53.5 7.5t55.5 14.5t49.5 27t34.5 43
q11 28 20 55t9 59q4 32 1 61t-15.5 47t-35.5 21.5t-59 -15.5q-2 -2 -8.5 -5t-12 -4.5t-8 0t2.5 9.5q11 23 27.5 34.5t33.5 22.5q15 8 36.5 18.5t44 16t44 2.5t36.5 -21q10 -19 14 -41.5t3.5 -45t-4 -44.5t-8.5 -40q-17 -62 -53 -111.5t-84.5 -86.5t-106 -60.5t-117.5 -34.5
q-30 -5 -71 -9.5t-85 -3.5t-86.5 9t-75.5 27t-52.5 51.5t-17.5 82.5q0 56 24 115t64.5 106.5t92 75.5t107.5 23zM505 771q-50 0 -100 -16.5t-95 -46t-81 -70t-58 -88.5q-23 -45 -29.5 -94t4 -94.5t38 -84t72.5 -62.5q28 -14 58 -18.5t61 -4t62.5 5.5t61.5 11q81 16 154.5 60
t138.5 103q25 24 49.5 55.5t42 66.5t26 73t3.5 76q-7 45 -27.5 77.5t-50 54t-66.5 33t-77 14.5q-14 0 -31.5 -13t-28.5 -24q-3 -2 -10.5 -9t-13.5 -14.5t-8 -13t6 -5.5q65 -6 111.5 -35t70 -73.5t21 -101.5t-34.5 -118q-28 -51 -80.5 -85t-114.5 -50t-124.5 -13t-110.5 27
q-30 16 -51.5 41.5t-34.5 56t-16.5 64.5t2.5 66q0 37 13 69t33 59q10 16 25 25t32 13t35.5 4.5t35.5 0.5q7 0 15.5 4.5t17.5 11.5l18 14t17 13q11 9 17 17q5 7 7 12.5t-5 5.5z" />
    <glyph glyph-name="five" unicode="5" horiz-adv-x="1140" 
d="M254 1078q-15 -11 -19.5 -3.5t6.5 18.5q14 17 33 32.5t35 20.5q16 9 36.5 16t41.5 8t39 -7.5t29 -31.5q15 -40 13 -92t-13 -97q-11 -57 -29.5 -113.5t-46 -108t-66 -95.5t-87.5 -75q17 11 31.5 27t30.5 33q18 -53 47 -103.5t66.5 -92t84 -71t100.5 -41.5q15 -3 36 -5
t41.5 -1t38 6t27.5 16q21 25 35 54t23.5 60t15.5 62.5t11 62.5q0 11 16 24.5t35 24t34 16.5t12 3q-8 -73 -34 -142t-67 -125t-97.5 -93t-126.5 -46q-70 -8 -132.5 16t-114 68.5t-91 103t-63.5 120.5q-3 9 4.5 19.5t18 19.5t20.5 15t13 6q-8 -6 -9 -5t2 4.5t7 8.5t7 8
q5 11 9.5 17.5t9.5 12.5q11 23 21 45.5t21 45.5q16 45 30 90t19 91q5 31 5 69.5t-10.5 68t-33.5 42.5t-65 -7zM855 1116q0 11 16 25t35.5 25.5t36 17t16.5 -0.5v-194t-4.5 -197t-16 -197.5t-34.5 -193.5q-48 -188 -147.5 -343.5t-240.5 -276.5q-7 -3 -15.5 -9t-17.5 -12
t-18 -11t-17 -5t-5.5 6t9 13.5t14 15.5t9.5 11q95 79 160 175t107.5 203.5t65 224.5t33 238t12.5 243.5t2 241.5z" />
    <glyph glyph-name="six" unicode="6" horiz-adv-x="1008" 
d="M921 1415q2 -3 -9.5 -19t-28.5 -32t-34 -25.5t-25 -0.5q-15 11 -37.5 20t-43.5 3q15 5 19 6.5t1.5 -0.5t-9 -7.5t-11.5 -14.5q-5 -5 -10 -15t-5 -17q-19 -49 -33 -101t-14 -106q0 -21 3.5 -44.5t11.5 -43t22.5 -31t37.5 -8.5q-42 -68 -33 -24q4 6 4.5 12t0.5 12
q0 12 -2.5 24t-2.5 23q-21 48 -61 73q-31 18 -65 26t-68.5 7.5t-68.5 -7.5t-64 -19q-23 -6 -52 -18t-52 -31.5t-35.5 -46.5t-2.5 -63q14 -52 42.5 -82.5t66.5 -46.5t82 -18.5t88.5 2.5t86.5 15t76 20q-20 -25 -44 -44.5t-45 -44.5q-56 18 -119 12.5t-120 -34.5
q-30 -12 -57 -38t-44.5 -60.5t-24 -75t3.5 -81.5q8 -36 28.5 -66.5t48.5 -53t61.5 -35.5t66.5 -13q45 0 83.5 15.5t72.5 42t63.5 61t57.5 73.5q4 6 14 15t22 18t24 16t20 9.5t10 -1.5t-7 -18q-33 -47 -74.5 -95.5t-88.5 -91t-98.5 -75t-105.5 -47.5q-29 -6 -63 -5t-69 9.5
t-67 24.5t-56.5 41t-38.5 59t-12 78q4 71 32.5 132.5t73.5 111t102.5 86.5t119 58t123 26t114.5 -9q5 -3 -5 -16t-26 -28.5t-33 -28.5t-25 -16q-41 -12 -89.5 -23.5t-98 -16t-98 2t-88.5 30.5q-41 27 -62.5 62t-25 73t11.5 76.5t48 73.5q66 67 146 116t167 66q22 4 51 7
t60 2t62 -7t57 -19.5t44 -36t25 -55.5q8 -36 -3 -75t-34 -70.5t-54 -49.5t-64 -12q-34 3 -53 22t-28 46.5t-10.5 60t1.5 61.5q16 84 47.5 157.5t82.5 121.5q23 23 48.5 43.5t52.5 31t55 7t56 -27.5z" />
    <glyph glyph-name="seven" unicode="7" horiz-adv-x="1238" 
d="M413 891q2 -5 -11 -19.5t-31 -28.5t-35 -22t-21 0q-29 41 -31.5 80t12.5 74t44 66t64.5 56.5t72.5 44t69 29.5q35 13 76.5 20.5t84 7.5t83 -8.5t75 -28.5t59 -53t34.5 -81q15 -67 -1.5 -134t-50 -130t-77.5 -119.5t-84 -102.5q-44 -48 -91.5 -95.5t-98.5 -90.5
t-106 -79.5t-115 -63.5q-7 -5 -12 -5.5t-7 2t-0.5 7.5t6.5 10q14 17 33 31.5t39 19.5q43 19 83 47.5t76.5 62.5t70 72t63.5 76q33 34 67.5 78.5t61.5 94.5t42 104t8 108q-5 54 -30.5 94t-63.5 65.5t-85 36t-94 4.5q-20 -3 -46.5 -6.5t-53.5 -10t-50 -17.5t-35 -30
q-15 -19 -20.5 -40t-4 -42.5t10 -43t20.5 -40.5z" />
    <glyph glyph-name="eight" unicode="8" horiz-adv-x="1286" 
d="M1104 1143q37 10 12 -17q-17 -17 -37.5 -34.5t-40.5 -28.5q-83 -36 -171 -70t-178.5 -52.5t-181.5 -15t-179 41.5q-11 6 -29.5 18t-33.5 27.5t-22 34.5t5 40q11 15 26.5 30t33 28t36 21t35.5 8q40 6 65 -9.5t37.5 -44.5t15.5 -66.5t-1 -75.5t-12 -72.5t-16 -56.5
q-19 -45 -50 -100t-72 -101t-90 -73.5t-104 -18.5q-3 0 8.5 13.5t28.5 30t35.5 30t29.5 13.5q41 0 74.5 -29.5t62.5 -71.5t55 -86.5t51 -74.5q18 -24 41 -44t49 -34t54.5 -20.5t58.5 -3.5q42 6 75.5 21.5t61.5 39t52 54.5t47 67q10 23 29.5 37t36.5 25q3 0 11 3.5t15.5 5.5
t11.5 1t-2 -10q-24 -40 -57 -82.5t-72.5 -82.5t-84.5 -74t-92 -57t-95.5 -31.5t-95.5 3.5q-33 9 -61 26t-53 40t-47.5 51t-45.5 58q-17 23 -35 54.5t-40 60t-48 48t-59 19.5q27 17 50 40.5t52 46.5q11 -3 17 -4.5t10.5 0.5t8 9l9.5 19q17 17 28 40.5t23 46.5q17 42 27 79
t18 79q0 18 -0.5 38t-4 40.5t-11.5 39t-22 33.5q-11 5 -19.5 14.5t-25.5 9.5q-22 6 -21 4t12 -0.5t26 12t21 40.5q-3 -15 4 -28.5t18.5 -24t24 -17.5t20.5 -10q48 -30 109 -42.5t116 -12.5q121 6 236.5 43t225.5 92z" />
    <glyph glyph-name="nine" unicode="9" horiz-adv-x="1272" 
d="M1148 1473q0 -18 -17.5 -36t-37.5 -33q-25 -18 -55 -33q-3 17 -8 37.5t-14 37t-21.5 25t-28.5 2.5q-11 -4 -15 -5t-5.5 -1.5t-2.5 -3t-7 -9.5q-16 -14 -28 -35t-23 -48q-24 -59 -26 -110.5t15.5 -91t54 -66.5t88.5 -38q3 0 -8.5 -16t-28.5 -34.5t-35.5 -34.5t-29.5 -16
q-50 0 -99 -6t-98.5 -13.5t-100 -15.5t-102.5 -11q-36 -4 -82 -7t-92 3t-85 26t-61 62q-6 5 0 16q3 4 7 10q16 25 42 58t56 59.5t61.5 40t58.5 -0.5q24 -14 40 -37t25.5 -51.5t14.5 -60t8 -62.5q5 -83 -19 -159.5t-68.5 -133.5t-105 -88.5t-129.5 -24.5q-4 5 -2 11l2 6
q11 21 31.5 48.5t44.5 46.5t48.5 22.5t43.5 -24.5q17 -28 29 -62.5t23.5 -70t25 -68.5t32.5 -57q60 -63 133.5 -92t150.5 -29q82 7 135 53.5t76 150.5q3 10 10 20t16.5 19.5t20 18t18.5 15.5q13 10 24 15q9 5 15.5 5t3.5 -11q-16 -76 -54.5 -140.5t-90.5 -114t-112.5 -81.5
t-121.5 -42q-59 -7 -122 2.5t-117 44.5q-30 17 -52.5 38t-40.5 46.5t-32 57t-27 69.5q-12 29 -24.5 65t-35.5 65q-16 16 -15.5 27t12 18.5t30.5 12.5t38 9t35.5 7.5t24.5 8.5q14 3 12.5 -2t-7 -10.5t-10 -6.5t4.5 10q0 7 3 12q2 3 4 5q6 14 10 27t4 20q12 28 14 54.5t2 47.5
q5 48 -1 100t-29 93q-11 21 -23 35t-28 21h-30q3 0 8 4t7 5.5t-1 -1.5t-14 -17q7 7 9 14t7 14q22 -45 62.5 -65t87.5 -25.5t94 -1t83 8.5q49 3 97 10.5t95.5 15t95.5 13.5t98 6q-28 -28 -51.5 -50t-50.5 -51q-27 7 -55.5 18.5t-52.5 31.5t-40 50t-19 75q0 70 23 130.5
t56 110.5q17 23 44.5 55t60.5 61.5t67.5 51t64.5 24t52.5 -19.5t31.5 -79z" />
    <glyph glyph-name="colon" unicode=":" horiz-adv-x="800" 
d="M326 952q0 47 33.5 79.5t80.5 32.5q46 0 79 -33t33 -79q0 -47 -32.5 -80.5t-79.5 -33.5q-48 0 -81 33t-33 81zM326 112q0 47 33.5 79.5t80.5 32.5q46 0 79 -33t33 -79q0 -47 -32.5 -80.5t-79.5 -33.5q-48 0 -81 33t-33 81z" />
    <glyph glyph-name="semicolon" unicode=";" horiz-adv-x="700" 
d="M472 4q0 -99 -98 -202q-81 -86 -164 -124l-18 42q105 65 148 144q20 36 24 76q2 20 6 62q-17 19 -72 20q-74 1 -96 8q-47 15 -52 66q-5 55 36 88q37 28 94 28q66 0 116 -36q76 -54 76 -172zM226 952q0 47 33.5 79.5t80.5 32.5q46 0 79 -33t33 -79q0 -47 -32.5 -80.5
t-79.5 -33.5q-48 0 -81 33t-33 81z" />
    <glyph glyph-name="less" unicode="&#x3c;" horiz-adv-x="2168" 
d="M620 884q14 10 33.5 19t31.5 11t10 -4t-30 -26q-48 -33 -109 -61.5t-124 -36.5t-120.5 12t-97.5 83q-25 40 -32.5 88t0.5 96.5t30 94t56 81.5q25 24 60.5 50.5t76.5 47t85 30.5t87 3q39 -8 74.5 -27.5t63 -47t44.5 -60t20 -65.5q0 -39 -4.5 -84.5t-11.5 -86.5
q-5 -70 -11.5 -140t-11.5 -139.5t-7.5 -139.5t-0.5 -140q0 -55 5 -110.5t35 -102.5q5 -15 16 -31.5t28 -20.5q5 -5 15 -6t15 -1q5 3 5.5 2t-0.5 -2.5t-3 -2t-2 2.5q18 14 39.5 24t44.5 15q8 2 7.5 -1t-4 -8t-8 -10t-4.5 -8q-23 -15 -46 -28.5t-45 -23.5q-17 -9 -37 -18
t-40 -12t-39 2t-33 22q-17 17 -27.5 38.5t-16 44t-7.5 46t-2 44.5q-9 68 -9.5 137t3 138.5t10 138.5t12.5 137q3 35 9.5 74t9.5 79t1.5 79t-13.5 74.5t-37 66t-68 52.5q-15 10 -38.5 18.5t-49 11.5t-49 -1.5t-37.5 -21.5q-38 -39 -59.5 -92.5t-21.5 -107.5q0 -24 4.5 -51
t15 -52.5t27.5 -47.5t42 -37q57 -38 120.5 -41.5t119.5 33.5zM981 1100q-5 0 -1 5t11 11q8 7 20 16q12 10 32 25t43 15q99 0 199 7t200 13t199.5 6t197.5 -14l3 -3q2 -2 -3 -2q-25 -71 -85.5 -127t-138 -97t-163 -69t-161.5 -44q-12 -3 -6 4.5t18.5 17.5t25.5 19t16 9
q33 19 73 36t82.5 25.5t85 5.5t81.5 -22q69 -40 106.5 -101.5t43.5 -130.5q11 -73 -12 -142t-87 -121q-36 -35 -80.5 -67t-94.5 -57t-104 -39.5t-111 -14.5q-90 -3 -163.5 23t-131.5 72.5t-99 108.5t-66 131.5t-34 142t-1 139.5q11 109 49 210.5t102.5 189.5t156 160
t210.5 123q99 39 208 61t214.5 16t201 -44.5t166.5 -120.5q5 -6 -8.5 -18.5t-33.5 -25t-39.5 -20.5t-25.5 -3q-49 53 -113.5 89t-137.5 54.5t-151.5 21t-154.5 -10.5t-147 -42t-129 -72q-51 -39 -90.5 -86.5t-69 -101t-49.5 -111t-31 -115.5q-12 -57 -18 -114.5t-2 -115.5
t19 -114t45 -110q29 -43 67 -84.5t84.5 -75.5t101 -57t116.5 -27q62 -5 118 6.5t100.5 38.5t74 68t37.5 95q8 45 0 94.5t-30 95t-56 82.5t-78 56.5t-98 17t-114 -35.5q13 15 27 27.5t26 22.5q31 10 64.5 20t66.5 21.5t63 24.5t56 30q33 20 58.5 45t37.5 54q3 7 -16 12.5
t-43.5 8.5t-48 4.5t-29.5 1.5q-81 2 -162.5 -2t-163 -9.5t-163 -10.5t-163.5 -5z" />
    <glyph glyph-name="equal" unicode="=" horiz-adv-x="1244" 
d="M112 792v120h956v-120h-956zM112 288v120h956v-120h-956z" />
    <glyph glyph-name="greater" unicode="&#x3e;" horiz-adv-x="1182" 
d="M1 1448q-4 -15 -21 -28t-32 -23q-13 -6 -23 -10q-8 -3 -14 -3.5t-4 6.5q25 82 78.5 149t126 118.5t159 88.5t178.5 59.5t183.5 31t174.5 3.5q56 -2 116.5 -9.5t118.5 -24t111 -44t94 -67.5q40 -43 55.5 -90.5t12.5 -97t-21.5 -99t-46.5 -94.5q-11 -14 -29.5 -27.5
t-38.5 -23.5q-3 0 -9.5 -2.5t-12 -4t-8.5 1t2 11.5q25 41 42.5 86t21.5 90t-9 89t-48 85q-36 36 -80.5 61.5t-94 43.5t-101.5 29t-103 19q-70 6 -147.5 5t-156 -13t-153.5 -35.5t-138.5 -61.5t-111 -92t-71.5 -127z" />
    <glyph glyph-name="question" unicode="?" horiz-adv-x="1200" 
d="M938 1274q68 -80 68 -218q0 -62 -74 -160q-7 -9 -120 -140q-78 -90 -106 -226q-4 -84 -22 -252h-32q3 108 -4 192q-11 130 -10 138q16 111 54 172q8 13 116 156q64 85 64 144q0 288 -230 288q-76 0 -162 -50q-92 -53 -92 -116q0 -18 59 -81.5t59 -100.5q0 -36 -48 -60
q-28 -14 -52 -14q-86 0 -86 158q0 302 334 302q75 0 155.5 -37.5t128.5 -94.5zM556 60q0 51 35.5 85.5t86.5 34.5q50 0 85 -35t35 -85q0 -51 -34.5 -86.5t-85.5 -35.5q-52 0 -87 35t-35 87z" />
    <glyph glyph-name="at" unicode="@" 
d="M-431 -183q79 -62 98 -75.5t123 -45.5q84 -40 84 -104q0 -55 -30 -48q-175 40 -356 252q-70 82 -100 154h50q46 -66 131 -133z" />
    <glyph glyph-name="A" unicode="A" horiz-adv-x="1430" 
d="M-58 1112q-9 3 -6 10t11 14.5t16.5 13.5t11.5 6q6 5 14.5 12.5t18.5 14t21 10t20 0.5q37 -2 78.5 0.5t83.5 3t82.5 -3t75 -17t61 -39t41.5 -69.5q12 -41 15.5 -87.5t0 -94.5t-12.5 -94.5t-21 -87.5q-15 -38 -38.5 -74.5t-54 -67.5t-69.5 -55t-86 -38q-43 -11 -81.5 -5.5
t-64 24.5t-34 51.5t8.5 76.5q24 76 75.5 149t118.5 138t144.5 120t153.5 96q44 22 95 40t103 23t101.5 -8.5t89.5 -54.5q40 -44 63 -97t33.5 -110.5t10.5 -116.5t-6 -113q-7 -57 -22 -113.5t-40.5 -108t-63.5 -95.5t-90 -77q-28 -17 -58.5 -31t-62.5 -21.5t-64 -6.5t-63 15
q-43 19 -58 52.5t-13 72t16 76.5t29 68q44 89 103.5 164.5t146.5 135.5q58 38 121.5 68t128 58t129 57t123.5 65q3 0 12.5 4t20 7.5t18.5 3.5t8 -8q-4 -8 -13 -15t-20 -13.5t-22 -12t-20 -11.5q-62 -36 -134.5 -64.5t-144.5 -60t-138 -71t-113 -96.5q-21 -30 -42.5 -64.5
t-39.5 -72t-29.5 -76.5t-11.5 -77q-3 -17 -1 -35t10.5 -34.5t24.5 -29.5t40 -19q10 -3 24.5 -5.5t29 -3t27.5 1.5t19 7q-12 -8 -14.5 -10t-0.5 -0.5t7 4.5t8 6q7 12 13 23l12 22q18 22 30 44.5t20 49.5q18 57 30 118t13.5 123t-8.5 123t-35 119q-22 49 -57 88t-80 60
t-98.5 20t-112.5 -31q-87 -49 -162.5 -121t-126.5 -148q-12 -19 -26.5 -40.5t-26 -44t-18 -45.5t-2.5 -45q0 -25 11.5 -43.5t31 -30t44.5 -15t53 2.5q-18 -12 -19 -11t11 18q6 4 12.5 13t13.5 15q5 11 11 21.5t6 21.5q5 22 11 44t11 43q8 51 12.5 99.5t4.5 97.5
q-3 30 -11 63t-24 61.5t-42 50.5t-64 30q-37 5 -72 4.5t-69.5 -2.5t-69 -3.5t-68.5 1.5zM1229 1132q-10 0 -7 6t10.5 13.5t17 15.5t12.5 11q12 11 34 23.5t41 12.5q80 -5 160 -6t159 -1q10 0 7.5 -7t-10.5 -15t-17 -15t-13 -7q-6 -6 -14.5 -12.5t-18 -12t-20 -9.5t-19.5 -4
q-81 0 -161 1t-161 6zM1221 1105q-4 13 15 27.5t43 26.5q28 14 65 27q16 -90 21.5 -180t4 -180t-8.5 -179.5t-17 -177.5q-13 -131 -46 -259.5t-95 -249.5t-148.5 -224t-191 -192t-223.5 -165t-245 -142q-33 -16 -41.5 -14.5t-2 12t24 24.5t36.5 22q118 60 226 131.5t200 157
t164 186.5t118 219q45 115 70.5 234.5t38.5 245.5q6 82 11.5 164t6 163.5t-5 162t-20.5 160.5z" />
    <glyph glyph-name="B" unicode="B" horiz-adv-x="1108" 
d="M-114 1119q-7 0 -3.5 5.5t10.5 13.5q8 9 20 20q7 6 15.5 14t17.5 15.5t18.5 12.5t17.5 5h1296q8 0 6 -7.5t-8 -16.5q-7 -11 -18 -23q-16 -11 -34.5 -25t-35.5 -14h-1302zM901 1119q-5 6 9 22.5t34 31.5t39 24t24 0q31 -44 38.5 -90t-2.5 -91t-34.5 -87t-58.5 -77
q-37 -32 -77.5 -63.5t-84 -58t-89.5 -46.5t-94 -29q-21 -2 -51 -5.5t-63 -4.5t-66 2t-60 14t-45.5 32t-21.5 57q-5 35 16 64.5t53 51.5t68 36t60 20q41 6 85 8.5t88.5 -0.5t87.5 -12t82 -27q42 -20 79.5 -51t62.5 -71.5t34 -90.5t-7 -108q-18 -59 -50.5 -111.5t-74 -96
t-91 -76.5t-101.5 -54q-45 -15 -96.5 -25.5t-104.5 -13t-105.5 6t-99.5 32.5q-45 21 -75 55t-48.5 77.5t-27 94t-10.5 103.5q0 12 16.5 26.5t36.5 26t36.5 17.5t16.5 0q0 -44 6 -89.5t21 -87t40.5 -75t65.5 -54.5q34 -21 70.5 -30.5t74.5 -11.5t77 1.5t79 9.5q79 6 135.5 44
t88.5 121q14 42 21 87t-7 93q-14 41 -39 73.5t-58 57t-71.5 41t-77.5 25.5q-29 6 -61 9.5t-64.5 4.5t-65 -2t-61.5 -12q-11 0 -20 -4.5t-16 -4.5q21 24 31 29t5 -13q-6 -18 1.5 -31.5l17.5 -31.5q28 -29 60 -38t75 -9q37 0 75.5 3.5t77 12.5t74.5 24t67 39q40 27 63 63.5
t29 78t-4.5 84t-37.5 80.5z" />
    <glyph glyph-name="C" unicode="C" horiz-adv-x="1138" 
d="M-126 1113q-8 0 -6 7t8 16q6 10 18 23q14 12 33 25.5t35 13.5h1265q8 0 5 -6t-8 -14q-7 -9 -17 -19q-9 -6 -18 -13.5l-18 -15t-17.5 -12.5t-16.5 -5h-1263zM831 1113q0 12 14.5 26.5t32.5 26t32.5 17t14.5 -0.5v-238q0 -6 -13 -20t-29.5 -26.5t-31.5 -20.5t-20 -2
q-31 28 -73 42t-88 18t-91.5 -1t-83.5 -14q-15 -2 -36.5 -5t-42.5 -9t-38.5 -15t-25.5 -24q-8 -11 -16.5 -25t-13 -29t-3.5 -30.5t11 -30.5q19 -26 48 -39t62.5 -18t67.5 -5h62q31 0 64 2t67 3t68 -1t67 -11q20 -6 45 -15t49.5 -21.5t45.5 -29.5t33 -38t13 -46.5t-15 -56.5
q-18 -41 -45 -75.5t-59.5 -63.5t-69 -52t-72.5 -40q-86 -40 -183.5 -48.5t-191.5 26.5q-51 17 -89.5 52.5t-57.5 81.5t-15 99t37 104q28 42 73.5 76.5t98.5 55.5t107.5 25.5t100 -13t77.5 -60t39 -115.5q3 -48 -10 -94t-37.5 -87t-58.5 -74t-73.5 -54.5t-82.5 -29.5t-84 2
q-2 3 8.5 17t25 30t30.5 28t26 9q41 -12 83 0q9 0 15.5 1t11.5 6q-8 -6 -9.5 -7.5t-0.5 -1t4 3t6 5.5q41 69 41 140q3 40 -6.5 76t-29 65t-47 48t-59.5 25q-32 0 -61.5 2t-55.5 -10q-37 -11 -52.5 -42t-15.5 -66q0 -69 28.5 -119.5t79.5 -80.5q46 -23 100.5 -35t110 -11.5
t109 16t97.5 47.5q13 9 28 23t25.5 32t15 39t-1.5 44q-14 46 -50.5 71t-78.5 36q-35 12 -71 17t-72 6.5t-72 1t-72 -0.5q-28 0 -63 -0.5t-71 4t-68.5 15.5t-55.5 34t-23.5 52t11.5 57.5t31.5 54.5t36.5 43q66 63 148.5 99t170.5 47q36 3 77.5 6t83.5 -1.5t80 -19.5t66 -47
q-26 -17 -48 -35t-46 -41v238z" />
    <glyph glyph-name="D" unicode="D" horiz-adv-x="1106" 
d="M-103 1122q-8 0 -6 6.5t8.5 15t13.5 15t10 6.5q4 6 11 12.5t15.5 12t17 9t15.5 3.5h1235q5 0 1.5 -6t-10 -13.5t-12.5 -14.5t-6 -9q-11 -11 -28.5 -24t-37.5 -13h-1227zM221 1114q-3 0 6.5 13.5t24.5 29.5t32.5 28t29.5 9q50 -13 73 -48t27.5 -79t-6.5 -91.5t-29 -86.5
q-32 -93 -85 -171t-131 -126q-26 -20 -32 -19.5t-0.5 10t19 23t26.5 21.5q-3 0 0.5 5t9.5 11.5t12 14.5t8 14q11 11 20 25.5t14 31.5q20 38 39 77t28 83q7 36 9 71.5t-7 66.5t-30 53.5t-58 33.5zM63 562q-5 3 6 17.5t27.5 29.5t34 24.5t24.5 1.5q37 -30 72 -70t71 -78.5
t75.5 -69.5t86.5 -44q39 -11 89 -13.5t95.5 9t79 40.5t39.5 81q3 14 19 27t34.5 22t33.5 13.5t15 1.5q-10 -60 -48.5 -107.5t-91 -82t-111.5 -56t-109 -29.5q-77 -9 -136 17t-109.5 69.5t-97.5 96.5t-99 100zM852 1092q-3 11 11 25t32 25.5t33.5 18.5t15.5 4
q15 -87 21 -175.5t5 -177.5t-6.5 -178.5t-13.5 -179.5q-14 -132 -38 -259.5t-73 -248.5q-50 -120 -120.5 -223t-155 -191.5t-180 -164.5t-194.5 -141q-28 -16 -35 -14.5t-1.5 12t18.5 24.5t25 22q94 63 180.5 135t160 156.5t131.5 183.5t95 216q41 115 60 236t29 241
q16 165 20 327t-20 327z" />
    <glyph glyph-name="E" unicode="E" horiz-adv-x="1274" 
d="M-98 1124q-8 0 -6 6t9 12.5t14.5 12.5t9.5 6q11 12 30 24.5t36 12.5h1310q5 0 2 -6t-10 -13q-8 -8 -19 -18q-15 -11 -33 -24t-38 -13h-1305zM875 1131q-3 14 13.5 28.5t37.5 25.5t39 17t18 4q2 -56 -19.5 -102t-56.5 -83t-79 -65t-86 -47q-95 -50 -196.5 -71.5
t-205.5 -31.5q-6 0 -2.5 5.5t10 13l13 15t6.5 10.5q17 11 33.5 22t37.5 16q36 4 83 8.5t97 13.5t98 24.5t84.5 41.5t57.5 63.5t17 91.5zM713 1109q0 5 4.5 7t9.5 8q11 11 30.5 25t40.5 20q27 6 51.5 16t41.5 27h55q-42 -32 -89 -62.5t-95 -46.5q-5 5 -13.5 5.5t-13.5 0.5
h-22zM635 932q51 0 102 -15t95.5 -44.5t78 -72t49.5 -97.5q16 -51 14 -102.5t-18.5 -99.5t-46 -91t-69.5 -76q-48 -41 -107.5 -71.5t-124.5 -47.5t-132 -18.5t-130 14.5t-119.5 51.5t-98.5 93.5q-53 69 -75 153.5t-23 173.5t15 178.5t39 167.5q27 88 65.5 174t89.5 164.5
t115 146.5t141 120q32 22 65 42.5t68 36t72 24.5t78 9q53 0 110 -18t100 -56v-74v-45v-14q-4 5 -14.5 9.5t-27.5 4.5q-11 11 -23 20.5t-32 9.5q-43 50 -106.5 71t-127.5 10q-84 -11 -148.5 -57t-112.5 -112q-62 -72 -110 -159.5t-82 -182.5t-51.5 -195t-17.5 -197
q0 -83 19 -166.5t73 -151.5q63 -82 153.5 -121.5t192.5 -39.5q28 0 63 2t69 10.5t62.5 24.5t44.5 44q38 51 52.5 112.5t3.5 123.5q-16 58 -47.5 105t-75 80t-97 52t-111.5 22q-6 0 -2.5 5.5t10.5 12.5q8 8 20 18q17 11 36 24.5t34 13.5zM868 1620q-3 3 2 11.5t14.5 19
t22.5 20.5t25.5 17t22.5 9.5t14 -3.5q10 -15 26 -31t34.5 -25.5t37.5 -8.5t34 20q29 22 54 52.5t45 59.5q15 16 35.5 28t35.5 24q16 5 21 0.5t-6 -16.5q-23 -27 -53.5 -63t-65.5 -70.5t-73.5 -62t-77.5 -38.5t-76.5 1t-71.5 56z" />
    <glyph glyph-name="F" unicode="F" horiz-adv-x="1140" 
d="M-104 1116q-8 0 -6 7t8 16q6 10 18 23q16 11 34.5 24.5t33.5 13.5h1244q5 0 1.5 -6t-10 -14t-12.5 -15t-6 -10q-16 -12 -33.5 -25.5t-32.5 -13.5h-1239zM880 1108q-4 9 9.5 24.5t32 29t37 21.5t23.5 2q20 -46 26 -91.5t-14 -91.5q-15 -41 -40 -74t-56 -60t-64.5 -47
t-66.5 -35q-71 -39 -149.5 -62t-158.5 -30q-33 0 -69.5 1t-72.5 7.5t-69 21t-58 40.5q-34 35 -35.5 73.5t24.5 79.5q10 12 25.5 27.5t33 29t36.5 22.5t36 6q45 -4 67 -27t28.5 -57.5t1 -76.5t-15.5 -84t-20.5 -80.5t-13.5 -64.5q-5 -52 -1 -105.5t20 -100.5t46 -82t79 -50
q60 -17 122 -9t116 25q33 14 64 41.5t49.5 62t21 73.5t-19.5 76q-16 29 -39.5 44t-53.5 9q-8 -6 -12.5 -21t-6 -32.5t-0.5 -32.5t4 -21q8 -20 23.5 -42t35.5 -38t43 -21t46 9q25 18 31 16t0 -13t-19 -25.5t-26 -23.5q-20 -14 -41 -26t-42.5 -17t-44.5 -1t-45 21
q-17 12 -31.5 30t-23.5 40.5t-11.5 47.5t5.5 51q8 21 25.5 47t41 50.5t51 45.5t56 31.5t56 8.5t51.5 -23q30 -28 40.5 -60.5t6.5 -66t-19.5 -67t-37.5 -64t-47 -56.5t-48 -45q-34 -27 -77 -49.5t-90 -37.5t-95.5 -21t-94 -0.5t-85 23.5t-68.5 51.5t-45.5 83t-14.5 118.5
q5 69 18 129t30 123q4 17 8 35.5t5.5 36t-1 34.5t-12.5 31q-5 12 -12 23.5t-16 23.5q-11 5 -21 10t-19 5q9 5 15 11.5t11 11.5q-8 -32 0 -57t26.5 -42.5t45 -29.5t54.5 -19t55 -10t48 -3q81 0 162 17t152 52q79 35 100 105t-21 155z" />
    <glyph glyph-name="G" unicode="G" horiz-adv-x="1304" 
d="M1173 1128q-7 0 -3 5t11 12q9 7 22 18q7 5 16.5 12t19.5 13t19.5 10.5t16.5 4.5h121q8 0 5.5 -6.5t-8.5 -13.5q-8 -10 -21 -20q-17 -12 -36.5 -23.5t-37.5 -11.5h-125zM-111 1114q-6 0 -2 5.5t12 13.5q9 8 21 19q6 5 14.5 13t18.5 15t21.5 12t22.5 5h215q5 0 1.5 -7.5
t-11.5 -15.5q-9 -10 -21 -22q-11 -11 -33 -24.5t-45 -13.5h-214zM96 1114q-9 0 -6 6t10 13t16 13t12 6q6 5 14 13t17 15t18.5 12t18.5 5q57 0 89 -28.5t45.5 -71t12 -91t-9.5 -87.5q-23 -106 -77.5 -188.5t-152.5 -132.5q-3 -3 -9.5 -6t-13 -4.5t-9.5 0.5t2 10
q11 17 32.5 32.5t44.5 27.5q-20 -11 -23.5 -12t1.5 4.5t15 15.5t16 21q10 17 20.5 37.5t16.5 37.5q12 41 21.5 79.5t9.5 77.5q3 34 -1 68.5t-18.5 62.5t-41.5 46t-70 18zM20 583q-3 3 11.5 18.5t35 31.5t40 27t27.5 5q26 -23 48 -50t43 -56t42 -57.5t44 -53.5q16 -23 41 -51
t54.5 -50.5t61.5 -33.5t64 0q-12 -3 -14 -3t0 2t7 6t7 10q7 12 11.5 19t4.5 18q5 11 10.5 27t10.5 33q12 34 19.5 67.5t12.5 68.5q6 61 8 126.5t-15 128.5q47 32 106 66q-38 -47 -45.5 -102.5t6.5 -114t46 -116t74 -107.5t89 -89.5t91 -61.5q-24 -25 -46 -43
q-19 -16 -38.5 -27t-30.5 -5q-48 22 -96.5 63t-90 93t-72 111.5t-42.5 120.5t-1.5 119t50.5 106q3 3 19.5 16t36 26t35 20.5t15.5 -1.5q15 -37 20 -78.5t3.5 -84t-8 -85t-15.5 -81.5q-8 -42 -21.5 -82.5t-33.5 -77t-48 -68.5t-65 -58q-61 -41 -112.5 -42.5t-96.5 22.5
t-84 67t-75.5 91t-72 94t-71.5 76zM839 246q-12 -3 -13 0t2.5 8.5t9 11.5t8.5 9q8 6 18 14t20 15t20 12t19 5q46 9 80.5 38.5t58 69.5t36 85t15.5 84q0 14 17 28.5t37 25t37 15t17 -1.5q0 -73 -33 -143.5t-87 -128t-122.5 -97t-139.5 -50.5zM1075 1128q-3 12 14.5 26t39 24
t40 16t18.5 3q14 -82 20.5 -166t5 -176t-7.5 -184.5t-15 -184.5q-18 -136 -46 -268.5t-84 -256.5q-57 -123 -137 -228t-177 -195t-207 -166.5t-228 -143.5q-32 -20 -40 -20t-1.5 10t23 24t34.5 22q108 64 207 139.5t183.5 163.5t152 189.5t112.5 219.5q40 124 64.5 246.5
t35.5 247.5q6 84 11 168.5t5.5 168.5t-5 164t-18.5 157zM1106 1115q-7 0 -7 6.5t7 6.5q4 10 11 16t16 11q12 11 31.5 23t38.5 12q20 0 42 6.5t38 6.5q5 0 5 -6.5t-5 -6.5q-6 -10 -12 -16t-17 -11q-11 -12 -31 -23.5t-36 -11.5q-23 0 -44 -4.5t-37 -8.5z" />
    <glyph glyph-name="H" unicode="H" 
d="M-521 -111q0 10 10.5 21.5t26.5 23t34.5 21.5t34.5 17t26.5 9t10.5 -3q0 -41 5 -84.5t8.5 -87t1.5 -85t-15 -78.5q-11 -38 -32 -69.5t-48 -57.5t-58 -46t-64 -34q-43 -25 -82.5 -29t-74.5 8.5t-64.5 38t-51 60t-34.5 75.5t-15 83q0 10 10.5 21.5t26.5 23t34.5 21.5
t34.5 16.5t26.5 8.5t10.5 -3q0 -41 15 -87t42.5 -85t66 -63.5t85.5 -21.5q22 8 22 7t-22 -15q8 6 14.5 13.5t14.5 15.5q0 14 4 24.5t4 24.5q8 22 9 51t1 58q-8 52 -13 103.5t-5 103.5z" />
    <glyph glyph-name="I" unicode="I" horiz-adv-x="572" 
d="M316 1202q-2 15 13 30.5t34 27t35 18t16 3.5q12 -93 16.5 -187t3 -189t-7 -190.5t-12.5 -190.5q-14 -140 -38 -276.5t-75 -265.5q-48 -127 -116.5 -235t-151.5 -200.5t-177.5 -171.5t-195.5 -149q-27 -20 -34 -20t-1.5 10t19.5 24.5t28 23.5q94 67 179 144t157.5 167.5
t131 195.5t98.5 227q34 129 54.5 255.5t29.5 254.5q6 87 10.5 173.5t5 173.5t-4 174t-17.5 173zM414 1219q-3 -14 -18.5 -29t-33 -26t-32 -16t-14.5 0q2 68 3.5 149t-7.5 160t-33.5 148.5t-74.5 115.5q-59 54 -119 46t-103 -77q-20 -34 -37.5 -76.5t-28 -87.5t-11.5 -90.5
t11 -85.5q12 -52 38.5 -83.5t61.5 -47.5t75.5 -19t80.5 2q5 0 2 -7t-8.5 -15.5t-11.5 -15.5t-8 -7q-11 -12 -28.5 -25.5t-31.5 -13.5q-49 -6 -96.5 1t-85.5 31t-63 67.5t-30 111.5q-5 51 4.5 103.5t28 102.5t45.5 95t59 83q30 33 68 64.5t80.5 51t87 21t86.5 -27.5
q41 -29 68 -71.5t43.5 -93.5t24.5 -107.5t10 -114t1 -113t-3 -103.5zM-382 1118q-6 0 -3 7.5t9.5 16.5t13 16.5t8.5 7.5q11 11 28 23.5t31 12.5h939q5 0 1.5 -5.5t-10.5 -12.5q-8 -8 -19 -18q-7 -7 -14 -15t-14.5 -15.5t-16.5 -12.5t-19 -5q-465 12 -934 0z" />
    <glyph glyph-name="J" unicode="J" horiz-adv-x="1140" 
d="M-128 1115q-5 0 -0.5 7t10.5 16q7 11 18 24q16 11 33.5 24.5t31.5 13.5h1216q8 0 5 -6t-8 -13q-7 -9 -17 -19q-7 -6 -15.5 -14t-17.5 -15.5t-17.5 -12.5t-15.5 -5h-1223zM288 1123q0 9 5.5 17.5t13.5 16t17 14.5t17 13q12 8 21 12q8 4 14 4t4 -8q-8 -38 -15 -84.5t-6 -93
t12.5 -89t41.5 -71.5q25 -23 53.5 -34t58.5 -12.5t59.5 5t56.5 18.5q19 6 50 22.5t63 40t59.5 53t41 60.5t7.5 62.5t-42 60.5q-3 3 9 18.5t28.5 31.5t34.5 26t27 1q33 -27 41 -58.5t-2 -65t-35 -68t-57.5 -66.5t-69.5 -61.5t-72 -53t-63.5 -40t-44.5 -23.5
q-33 -15 -69 -27.5t-72 -18t-70.5 0t-63.5 28.5q-43 29 -60.5 74t-19.5 96t7 103.5t20 95.5zM242 578q-11 -17 -25 -29.5t-28 -24.5l-26 -13q-9 -5 -16 -6.5t-4 5.5q22 52 54.5 96t72 80.5t84 65t91.5 48.5q46 23 96 38.5t100.5 20t100.5 -3.5t97 -31q39 -17 66 -47.5
t40 -69.5t11.5 -83.5t-18.5 -90.5q-17 -47 -43 -87t-59 -74t-70.5 -61t-76.5 -47q-26 -11 -59 -24t-68.5 -21.5t-71 -10.5t-66.5 7.5t-56 34t-39 68.5q-15 49 -7.5 92t29.5 79.5t54 67t67 53.5q60 39 119.5 26t109.5 -65q49 -59 88 -123t83 -122q8 -11 18 -25t20.5 -27
t22.5 -23.5t25 -16.5q10 0 23.5 -3t23.5 3q7 0 5 -4.5t-6 -7.5t-5.5 -1.5t6.5 13.5q8 5 14 16l12 22q14 18 31.5 34t32.5 27q3 0 9.5 3t12 5.5t8.5 1.5t-2 -10q-18 -32 -40 -62.5t-47.5 -55.5t-55 -42.5t-61.5 -22.5q-22 -6 -43 1t-40 22t-35 35.5t-29 40.5
q-40 52 -73 107.5t-76 107.5q-9 12 -24.5 27.5t-34.5 30.5t-40 26.5t-40 14.5t-34.5 -5.5t-23.5 -33.5q-14 -45 -9.5 -89t28.5 -79q41 -52 91.5 -62t104.5 2q27 8 53 17t49 22.5t42.5 33t34.5 48.5q9 18 17.5 39t14 43.5t8 44.5t0.5 42q-8 52 -33.5 87.5t-61.5 58t-78.5 33
t-83.5 13.5q-52 0 -106 -9.5t-103 -32.5t-88.5 -61.5t-63.5 -96.5z" />
    <glyph glyph-name="K" unicode="K" horiz-adv-x="1100" 
d="M970 1118q-7 0 -4 7t8 15q6 10 17 22q17 12 35.5 25t32.5 13h149q8 0 6 -6t-7.5 -14t-11.5 -15t-6 -10q-17 -11 -34.5 -24t-33.5 -13h-151zM-129 1118q-8 0 -5.5 7t7.5 15q6 10 17 22q16 12 33.5 25t34.5 13h115q7 0 5 -6t-7.5 -14t-11.5 -15t-6 -10q-15 -11 -34.5 -24
t-34.5 -13h-113zM-36 1125q-2 3 7.5 17.5t24.5 29.5t31 26.5t26 8.5q27 -3 56 -2.5t58 0t56.5 -4.5t53.5 -15q49 -29 75 -83.5t26 -116.5q0 -76 -25.5 -144t-67.5 -126.5t-95.5 -106.5t-109.5 -84q-3 0 -9.5 -3t-12 -4.5t-8 1t2.5 13.5q10 17 27.5 29.5t31.5 23.5
q49 31 87.5 86.5t59 121t18.5 132.5t-35 121q-23 38 -56 53.5t-70.5 19.5t-76.5 3t-75 4zM18 516q-5 3 4.5 17.5t24.5 29.5t32 26.5t27 8.5q49 -22 87.5 -58.5t74.5 -76t73 -77.5t84 -63q63 -36 130 -36t125.5 29t103.5 84.5t66 130.5q3 9 9.5 17t15 15t16.5 12.5t13 8.5
q3 3 11 7.5t16.5 8t15 4t6.5 -5.5q-23 -73 -70.5 -139.5t-108.5 -119t-130.5 -88t-138.5 -45.5q-56 -8 -101.5 6.5t-85 42.5t-75 64.5t-71 73.5t-73 70t-81.5 53zM877 1140q-3 14 12.5 28.5t35 26t36.5 17.5t17 3q13 -89 17.5 -179.5t3 -182t-7.5 -183t-13 -183.5
q-14 -134 -38.5 -265t-75.5 -254t-122 -227t-156.5 -193t-183 -165t-200.5 -143q-29 -20 -36 -19.5t-1.5 10t20.5 24t30 23.5q96 64 183.5 138.5t162.5 161.5t134.5 187.5t99.5 217.5q36 123 57 244.5t32 244.5q5 84 9.5 167.5t5 167t-4 167t-17.5 166.5zM897 1125
q-5 0 -1 7t11 16q8 10 19 23q10 11 28 23.5t37 12.5h89q8 0 6 -5.5t-9 -12.5t-14.5 -12.5t-9.5 -5.5q-5 -6 -12 -14t-15.5 -15t-17.5 -12t-17 -5h-94zM242 724q-5 3 5 17.5t26 29.5t32 26.5t24 8.5q71 -33 147 -35t152 15.5t148.5 47.5t135.5 60q15 11 19.5 4t-5.5 -18
q-17 -17 -36.5 -31.5t-39.5 -20.5q-66 -33 -141.5 -67t-154.5 -54.5t-158.5 -19.5t-153.5 37z" />
    <glyph glyph-name="L" unicode="L" horiz-adv-x="1340" 
d="M755 13q0 -52 -39 -89t-91 -37t-90 37t-38 89q0 54 37 93t91 39q53 0 91.5 -39.5t38.5 -92.5zM-87 1116q-6 0 -2 7t12 15q9 10 21 22q17 11 34.5 23.5t40.5 12.5h1413q9 0 6 -6t-10 -13.5t-15.5 -14.5t-10.5 -10q-13 -11 -32.5 -23.5t-36.5 -12.5h-1420zM1035 1116
q-3 8 12.5 24t36 30.5t40 23t25.5 2.5q44 -56 48.5 -110t-18 -104t-65.5 -95.5t-95 -84.5t-106 -69.5t-98 -50.5q-50 -20 -108.5 -34t-112 -35t-95.5 -55t-59 -93q-11 -45 -6 -83t25.5 -62t56 -28.5t84.5 18.5q17 5 18 -0.5t-10 -22.5q-11 -18 -32 -30t-44 -23
q-35 -14 -72.5 -21t-69.5 0t-52.5 31.5t-20.5 72.5q-3 47 12 88t40.5 76t60 64.5t70.5 54.5q30 21 79 41.5t107 43t119 47t115 53.5t96 62.5t61.5 74t11.5 88.5t-54 106zM403 1106q3 12 10 21t17 16t20 13t19 12q6 0 14 3t14 5.5t9.5 1.5t0.5 -10q-34 -64 -30.5 -117
t32.5 -97t77.5 -78.5t103.5 -62t111.5 -47t102.5 -33.5q58 -16 122.5 -37t118.5 -54.5t87.5 -83t30.5 -122.5q-2 -68 -29 -132t-68 -123.5t-90.5 -113.5t-95.5 -101q-124 -130 -261 -244t-286 -221q-99 -72 -202.5 -142t-219.5 -127q-3 0 -10 -3t-13 -4.5t-9 1.5t3 14
q10 18 30.5 29t44.5 24q23 14 51.5 30.5t57.5 35t58 37.5t54 39q144 95 281 201t262 225q48 47 102 101.5t101.5 115t81.5 128t43 140.5q6 51 -7.5 90t-40 69t-63.5 52.5t-78.5 40t-85 30.5t-82.5 24q-52 17 -111 39t-114.5 51t-102 65t-72 81t-26 99t36.5 119z" />
    <glyph glyph-name="M" unicode="M" 
d="M-496 1486q2 -26 30 -86.5t28 -71.5q0 -9 -8 -9q-16 0 -55 46q-49 57 -59 101q-6 27 -6 52q0 74 54 142q64 80 206 80t206 -80q54 -68 54 -142q0 -25 -6 -52q-10 -44 -59 -101q-39 -46 -55 -46q-8 0 -8 9q0 11 28 71.5t30 86.5q6 74 -57 122q-57 44 -133 44t-133 -44
q-63 -48 -57 -122z" />
    <glyph glyph-name="N" unicode="N" horiz-adv-x="246" 
d="M108 1600q52 0 90 -38t38 -90t-38 -90t-90 -38t-90 38t-38 90t38 90t90 38zM290 1076h-314v122h314v-122z" />
    <glyph glyph-name="O" unicode="O" 
d="M-962 1758q5 19 20 29t29 20q11 6 20 10q8 3 13 2.5t3 -7.5q-29 -68 -16 -111.5t53 -69t98.5 -35.5t121.5 -11.5t121.5 2t98.5 6.5q42 5 83 9.5t83 9.5q23 3 51.5 4t56.5 -3t52.5 -15.5t40.5 -33.5q20 -32 20 -66t-13.5 -67t-38 -64.5t-53.5 -58t-59.5 -47t-56.5 -32.5
q-23 -11 -23.5 -6.5t9 15t24 23t20.5 16.5q23 12 45.5 37t37 56t17 63t-13.5 58q-14 22 -34.5 34.5t-45.5 17.5t-52 4.5t-52 -2.5q-74 -5 -147 -12.5t-152 -12.5q-37 -2 -76 -3t-77 1t-75.5 9.5t-71.5 23.5q-35 16 -53.5 39t-25 50.5t-1.5 57.5t19 60zM-485 1539
q14 14 31 23.5t36 20.5q14 4 14.5 0.5t-7.5 -14.5q-21 -25 -38.5 -54t-26.5 -60t-8 -64t17 -65q5 -9 -8 -22t-30.5 -24.5t-34 -18t-19.5 -2.5q-16 39 -15 76.5t13 73t32.5 68t43.5 62.5z" />
    <glyph glyph-name="P" unicode="P" horiz-adv-x="1140" 
d="M-109 1113q-5 0 -2 5.5t10 13.5q7 9 19 20q7 6 14.5 14t15.5 15.5t17 13t19 5.5h1233q7 0 5 -7.5t-8.5 -16.5t-13.5 -16.5t-9 -7.5q-6 -6 -13 -12.5t-15.5 -12.5t-17 -10t-15.5 -4h-1239zM910 1096q7 0 15.5 5.5t16.5 13t15.5 16t12.5 14.5q3 0 10.5 6t13.5 13.5t8 13.5
t-5 6q-14 0 -33 -14t-35 -25q-11 -14 -17 -25q-5 -9 -7.5 -16.5t5.5 -7.5zM903 1113q16 18 34 34.5t33 29.5q3 0 10.5 3t13.5 5.5t8 1.5t-5 -10q-10 -21 -13.5 -48.5t-3.5 -56t2 -55.5t2 -48q0 -12 -12 -26.5t-27.5 -27.5t-31 -20.5t-22.5 -4.5q-51 7 -104 15t-103 8
q-28 3 -61.5 4t-67.5 -5t-65 -20.5t-53 -41.5q-25 -27 -45.5 -64.5t-34.5 -79.5t-20 -87t-1 -87q10 -84 45.5 -136t85 -78.5t108 -31t115.5 7.5q25 6 53.5 14t52.5 23t41 38.5t20 59.5q5 36 -3 66.5t-26.5 53.5t-45 37t-59.5 17q-9 0 -20 3.5t-26 -3.5q-14 -5 -10.5 -0.5
t23.5 16.5q-5 -12 -9 -32.5t-4 -38.5q-5 -30 7.5 -53.5t32.5 -41.5q46 -36 97.5 -45.5t102.5 -2.5q4 0 1.5 -7.5t-8 -16t-11.5 -16t-8 -7.5q-11 -13 -28.5 -26.5t-32.5 -13.5q-19 -7 -39 -3.5t-41 3.5q-33 6 -69.5 20t-63.5 38.5t-39 61t5 86.5q15 42 44 76.5t64.5 57t75 30
t76.5 -4.5q35 -12 62.5 -37.5t42 -59t13 -72.5t-23.5 -78q-23 -39 -52 -70.5t-62 -56.5t-68.5 -44.5t-70.5 -34.5q-35 -12 -74 -21.5t-79.5 -12.5t-79.5 3t-74 24q-40 21 -69.5 57.5t-47 83t-22 98t5.5 102.5q20 114 80.5 202t145.5 147q60 45 122.5 65.5t126.5 24t129 -5
t130 -20.5q-21 -24 -45 -42.5t-50 -35.5q0 24 -1.5 52.5t-1 57.5t5.5 56t17 48z" />
    <glyph glyph-name="Q" unicode="Q" horiz-adv-x="1116" 
d="M-82 1119q-8 0 -5.5 6.5t7.5 14.5q6 10 17 22q15 11 33 24t33 13h1222q5 0 2 -6t-9 -13.5t-12 -14.5t-6 -10q-16 -11 -33.5 -23.5t-32.5 -12.5h-1216zM247 1119q-3 3 8.5 17.5t27.5 30.5t32 27t23 5q26 -20 39.5 -47.5t17.5 -59.5t0.5 -66t-11.5 -67t-18.5 -63t-20.5 -54
q-40 -88 -95 -161.5t-134 -122.5q-3 -3 -10 -6t-12.5 -4.5t-8 0.5t2.5 10q10 22 28.5 34t38.5 23q-10 -5 -10 -4.5t3.5 4t8.5 8t5 7.5q5 6 9.5 11.5t9.5 10.5q10 17 19.5 33t20.5 33q20 38 37 80.5t27 87.5q8 30 13 63t3 64.5t-14.5 59t-39.5 46.5zM36 529q18 23 36 41
q15 15 30.5 25.5t26.5 5.5q44 -22 81 -56t72.5 -70.5t72.5 -69.5t81 -52q55 -16 109.5 -17t108.5 9q25 6 49 13.5t50 24.5q10 5 16 17.5t9.5 27.5t5 30.5t1.5 26.5q3 10 18.5 23t33 23.5t32 16.5t14.5 3q-7 -72 -49 -126.5t-101.5 -92.5t-126 -58t-123.5 -23
q-69 0 -128.5 23.5t-114.5 78.5q-50 51 -97 97t-107 79zM779 1090q-3 11 12 24.5t34 25t35.5 18.5t16.5 4q25 -175 20 -354.5t-20 -359.5q-10 -132 -36.5 -260.5t-74.5 -249.5q-50 -120 -118.5 -223.5t-152 -192.5t-178 -165t-194.5 -142q-28 -16 -35 -14t-2 12.5t19.5 24.5
t29.5 22q93 63 179.5 134.5t160 156t131 184t94.5 216.5q35 116 55 238.5t30 243.5q5 82 9 164t5 164.5t-3.5 164.5t-16.5 164zM207 688q-5 3 4 18t24 31t31.5 26.5t25.5 4.5q40 -13 79.5 -24.5t79.5 -18.5t81 -7.5t83 7.5q84 22 158.5 63t148.5 90q25 19 30.5 19t0.5 -10.5
t-18 -25.5t-25 -26q-39 -25 -80 -51.5t-83 -50.5t-86.5 -43.5t-90.5 -30.5q-95 -27 -185 -15t-178 44z" />
    <glyph glyph-name="R" unicode="R" 
d="M-154 -286q92 -115 92 -154q0 -15 -12 -20q-20 -9 -70 40q-26 27 -80 82q-75 75 -136 90q-66 -86 -136 -86q-45 0 -84 40q-30 31 -30 76q0 124 132 124q62 0 122 -24q12 18 30 70h102q-18 -52 -54 -116q54 -35 124 -122z" />
    <glyph glyph-name="S" unicode="S" horiz-adv-x="1140" 
d="M455 96q0 47 33.5 79.5t80.5 32.5q46 0 79 -33t33 -79q0 -47 -32.5 -80.5t-79.5 -33.5q-48 0 -81 33t-33 81zM-18 1118q-8 0 -5.5 5.5t7.5 12.5q6 8 17 18q7 6 15.5 13.5t17.5 14t17.5 11.5t16.5 5h1213q7 0 4.5 -7t-7.5 -15q-6 -10 -17 -22q-14 -11 -32.5 -23.5
t-34.5 -12.5h-1212zM407 1111q-5 6 8.5 21t32 29t36.5 22.5t23 0.5q22 -30 33.5 -66.5t17 -75.5t6.5 -79t1 -78q0 -72 1.5 -146.5t-7.5 -145.5q-7 -60 -31 -119t-62.5 -104.5t-89 -72.5t-111.5 -24q-35 0 -70.5 8.5t-66.5 26t-54.5 44.5t-33.5 65q-12 36 -15 72.5t2.5 71.5
t19 67t33.5 59q42 60 94 92t109 48.5t117 24t119 18.5q10 2 11 -1t-2 -8.5t-7.5 -11t-6.5 -8.5q-15 -11 -33 -25t-34 -19q-49 -11 -93.5 -15t-88.5 -14q-26 -6 -49.5 -9t-43.5 -14q-10 -5 -17.5 -18.5t-12.5 -30t-9 -33t-6 -27.5q-10 -63 5 -118t48.5 -95t82 -59.5
t105.5 -11.5q17 0 28 2t17.5 7t11 15t9.5 27q10 22 16 47.5t11 47.5q5 50 6 98t1 99q3 49 5 105t-2.5 111.5t-19 107t-44.5 92.5zM468 885q3 0 9 3t11.5 5t8 1t-2.5 -9q-11 -22 -28.5 -34.5t-38.5 -23.5q-31 -23 -59 -23q20 22 43 40.5t44 40.5q48 -7 97 -10.5t100 1.5
q24 0 51.5 0.5t55.5 4t55.5 11.5t52.5 22q25 16 30.5 15.5t0 -10.5t-18 -24t-24.5 -25q-54 -33 -115 -50.5t-124 -23.5t-126 -3t-122 11q-5 0 4 12.5t24 28t31.5 28t27.5 12.5h13zM855 1096q-3 14 11 27.5t32 25.5q21 13 48 27q15 -90 19.5 -180.5t2.5 -179.5t-8.5 -178
t-13.5 -176q-10 -132 -32.5 -260.5t-71.5 -249.5q-50 -120 -119.5 -223t-154 -191.5t-180 -164.5t-196.5 -142q-24 -17 -30 -15t-0.5 12.5t18 24.5t24.5 22q94 60 180.5 132t159.5 157t130.5 185.5t94.5 217.5q41 115 58.5 234t27.5 246q4 82 8.5 164t6 163.5t-1.5 162
t-13 159.5z" />
    <glyph glyph-name="T" unicode="T" horiz-adv-x="1140" 
d="M-113 1111q-7 0 -4.5 7t8.5 16q6 10 17 23q16 11 34 24.5t33 13.5h1251q7 0 5 -6t-8 -14t-12 -15.5t-6 -10.5q-14 -11 -33 -24.5t-34 -13.5h-1251zM579 1127q0 11 15.5 24.5t34.5 24.5q22 13 51 26q4 -46 4.5 -92t0.5 -98q0 -9 -13 -23t-29 -26t-31.5 -19t-19.5 -1
q-56 42 -110 43.5t-101 -25t-84.5 -75.5t-60 -109t-28 -124.5t11.5 -121.5q12 -49 35 -91t54 -75t69.5 -55t83.5 -31q31 -6 69 -6.5t76 6t73 21.5t60 41q40 40 65.5 96t35 118t3 125.5t-28.5 117.5q-24 60 -61 100t-83 60t-99.5 20t-109.5 -20q-11 -3 -11 1.5t4 11.5
q4 8 14 18q17 17 35.5 32t40.5 21q19 6 39 11.5t42 11.5q71 9 129 -17t99.5 -75.5t64.5 -116.5t23 -142q0 -89 -27 -166.5t-73.5 -141.5t-108 -112t-129.5 -76q-46 -17 -95.5 -24.5t-98 -3.5t-94 22t-83.5 52q-41 34 -70.5 81.5t-45 101t-16 110.5t17.5 112
q17 55 50.5 114.5t78 112t98.5 94.5t111 62.5t115.5 14.5t112.5 -48q-26 -17 -46.5 -35t-46.5 -41q0 46 -5 91.5t-8 92.5z" />
    <glyph glyph-name="U" unicode="U" 
d="M-881 61q15 -12 30.5 -19t29.5 -14q22 -12 45.5 -15t51.5 -10q15 -6 31.5 -7.5t34 -1.5t36 0.5t36.5 0.5q59 6 117.5 22t118.5 28q13 7 23 11.5t25 4.5l-118 -73q-14 -7 -27.5 -12t-21.5 -5q-59 -19 -122.5 -34.5t-122.5 -15.5q-73 -12 -147 0q-23 7 -44 14t-44 19
q-21 7 -38.5 18t-40.5 23zM-949 -161q15 -18 31 -31.5t37 -25.5q15 -9 32 -14.5t33 -8.5t32 -5t31 -6q74 7 140 18.5t125 23.5q45 12 87.5 29t78.5 29l-117 -75q-45 -19 -84 -35t-83 -22q-65 -19 -133 -30t-142 -11q-36 0 -71 7t-66 26q-22 12 -37.5 29t-30.5 36z" />
    <glyph glyph-name="V" unicode="V" horiz-adv-x="1156" 
d="M-92 1117q-8 0 -5.5 7t8.5 15q7 10 19 22q14 11 32 24t33 13h1252q5 0 1 -6t-10.5 -13.5t-12.5 -14.5t-6 -10q-15 -12 -33 -24.5t-33 -12.5h-1245zM925 1110q-3 5 10.5 20.5t32 29.5t35.5 22.5t22 -0.5q40 -60 36.5 -114.5t-33 -102.5t-77 -87.5t-94.5 -69.5
q-51 -30 -107 -56t-114.5 -44t-118 -26.5t-117.5 -5.5q-5 0 -1.5 7t9.5 15q7 10 18 22q15 11 30.5 20.5t30.5 14.5q48 14 100 21.5t105 7.5t105 -8.5t99 -27.5q48 -19 80.5 -50.5t45 -71.5t4 -86t-42.5 -93q-24 -36 -59 -70.5t-76 -64.5t-86 -52.5t-88 -33.5
q-40 -11 -84 -18.5t-89.5 -9t-90 4.5t-84.5 23q-16 6 -34 14.5t-33.5 20.5t-27 29t-14.5 39q0 13 10 26.5t24 25.5t29 21.5t26 15.5q28 13 48.5 6t34 -26t21 -47t10 -58t0.5 -57.5t-7 -46.5q-28 -99 -91.5 -180.5t-146 -145.5t-174 -111t-174.5 -77q-10 -3 -11 1t2 10.5
t8 12t8 5.5q17 17 32 31.5t35 19.5q66 22 136 57t129 85t100.5 115.5t52.5 148.5q5 38 1.5 79t-29.5 74q-5 5 -14 15t-19 15q-18 5 -12.5 19t20 25t31.5 13.5t22 -13.5q12 -30 35.5 -50t52.5 -32.5t60 -19t59 -9.5q30 0 63.5 0.5t67.5 4t66 11t60 21.5t59 37t55 53t35 65
t-1 74q-18 50 -53.5 82.5t-81 51.5t-97.5 26t-104.5 5.5t-101 -10.5t-87.5 -22q20 21 44 39.5t44 39.5q40 -2 100 5.5t122 24.5t119 45t91.5 68t38 92.5t-39.5 119.5zM729 249q-5 2 7.5 17t30.5 30t36 24.5t26 0.5q37 -42 40 -87t-17 -89t-56.5 -86t-78.5 -77.5t-84 -63.5
t-72 -44q-15 -6 -19.5 -0.5t6.5 21.5q15 17 34 28.5t40 23.5q25 13 49.5 32.5t45 44t34 52.5t17 57t-5 58.5t-33.5 57.5z" />
    <glyph glyph-name="W" unicode="W" horiz-adv-x="520" 
d="M131 1425q-1 0 -5 -2.5t-9.5 -5t-10 -3.5t-5.5 1q-2 2 0 6.5t6 9t8 8t4 4.5q27 26 57.5 48t62.5 41l4 2q-16 -11 -31.5 -21t-30.5 -21q-38 -26 -52 -41.5t-16.5 -19.5t2 3.5t3.5 27.5v18.5t5 17.5q7 14 18 24t21 21q42 37 89 66q21 13 40.5 21.5t43.5 9.5q2 -1 6 -1
q10 -21 16.5 -40t6.5 -42v-16t-7 -14q-9 -11 -19.5 -20.5t-20.5 -18.5q-25 -20 -50 -39.5t-52 -36.5q-8 -5 -19.5 -12t-23 -12t-23.5 -6t-22 6q-11 7 -21 16t-24 10q-8 1 -4.5 6.5t6.5 9.5q11 12 23 23t24 21q17 12 33.5 24t32.5 23q8 5 21.5 14t22.5 8q14 -1 24.5 -6.5
t21.5 -13.5q4 -4 8.5 -7.5t9.5 -4.5q2 -1 4.5 -0.5t4.5 0.5q-30 -8 -54.5 -27.5t-47.5 -40.5q-4 -8 -8.5 -14.5t-9.5 -13.5q0 15 -0.5 30t-6.5 29q-1 2 -2.5 7.5t-4.5 12t-6 11.5t-5 5q-5 -1 -9 -1t-8 -1q36 15 69 44q15 12 29 24t29 25q9 9 11.5 12t2 3t-2 -3t-1.5 -7
q-2 -7 0 -13v-16.5t-2 -16.5q-4 -17 -17 -30t-25 -24q-26 -22 -55 -43t-59 -38zM-28 1202q-7 -18 -11 -34.5t-4 -34.5q0 -5 -1 -7t-8 -8h592v23q5 17 14.5 30t16.5 31h-599zM195 1141q8 -60 7 -120.5t-10 -120.5t-24.5 -119t-35.5 -116q-3 -8 4 -8t16 4q11 4 26 12
q17 12 36.5 27.5t26.5 32.5q46 115 65 236t-4 248q0 3 -18 -3.5t-39 -18t-37 -26t-13 -28.5z" />
    <glyph glyph-name="X" unicode="X" horiz-adv-x="1244" 
d="M-39 1115q-8 0 -5.5 7t8.5 15q7 10 19 23q17 11 37.5 23.5t37.5 12.5h1358q8 0 5.5 -6t-8.5 -13.5t-12.5 -14.5t-6.5 -10q-17 -11 -37 -24t-37 -13h-1359zM159 1115q-5 8 10 24t35.5 30.5t40.5 23.5t25 3q44 -81 50.5 -169.5t-17 -173.5t-73 -161.5t-115.5 -131.5
q-14 -11 -31.5 -19.5t-28.5 -10t-9.5 7t26.5 30.5q55 44 88 113.5t44 146.5t-0.5 153t-44.5 134zM13 516q21 27 41 45q17 16 36 26.5t33 2.5q31 -17 52.5 -42t38 -54t30 -60.5t29 -61.5t35.5 -56t50 -44q38 -25 73 -21t64.5 25.5t51 55t32.5 66.5q16 36 27 75.5t14.5 80.5
t-1 81.5t-18.5 79.5q-3 11 12.5 25t36.5 26t40 19t22 5q20 -61 20 -126.5t-17 -128.5t-49 -121.5t-76.5 -106t-99.5 -82t-117 -48.5q-54 -11 -91 4.5t-65 47t-49.5 73.5t-43.5 83.5t-48.5 76.5t-62.5 54zM563 753q-2 2 4 9.5t15.5 17.5t22 20.5t24.5 18t22.5 10.5t15.5 -3
q27 -17 59.5 -26.5t65.5 -9.5q13 0 32.5 0.5t39.5 3t37.5 8.5t28.5 17q17 17 38.5 32t44.5 20q10 3 10.5 -1.5t-4.5 -10.5q-5 -8 -15 -18q-41 -39 -96.5 -71t-115.5 -48t-120 -10.5t-109 41.5zM1004 1130q-3 11 12.5 25t36 26t37.5 19t17 4q16 -89 21.5 -179t3.5 -181
t-9.5 -182.5t-15.5 -182.5q-11 -134 -36.5 -264t-79.5 -252q-55 -122 -133.5 -227t-173 -195t-202 -167t-219.5 -143q-28 -17 -34.5 -15.5t0 12t21 24.5t28.5 23q105 64 201 137t178 158.5t146 186.5t105 220q45 118 65.5 241.5t30.5 245.5q17 168 20 333t-20 333z" />
    <glyph glyph-name="Y" unicode="Y" 
d="M-1001 1472q53 30 110 51t116 30t117 6.5t117 -11.5q65 -9 127 -29.5t115 -46.5q6 -9 17 -14.5t22 -14.5q48 -32 81.5 -67t51.5 -80q0 -9 1 -14.5t7 -14.5v-23l-110 -48v24q0 9 -3.5 17t-3.5 12q-18 45 -51 80.5t-74 66.5q-12 8 -23.5 13t-23.5 10q-53 31 -111 49.5
t-124 26.5q-52 9 -112.5 11.5t-113.5 -5.5q-23 -5 -41.5 -9t-36.5 -8q0 -3 -3.5 -5t-7 -3.5t-5.5 -2.5t1 -1q46 22 71 33.5t33 15t2 -0.5t-21 -13zM-704 1676q46 14 96.5 18.5t98.5 0.5q11 -5 27 -6t27 -1q71 -13 134 -38.5t116 -60.5q11 -9 19 -18t20 -18q48 -44 76 -95.5
t33 -108.5q6 -14 4 -23t4 -18q-6 -14 -7 -23t-1 -18l-109 -42q0 9 1 18.5t7 23.5v41q-6 53 -34 103.5t-76 95.5q-11 9 -22 17t-17 12q-53 40 -116 63.5t-133 36.5h-48q-52 4 -103 0t-99 -17z" />
    <glyph glyph-name="Z" unicode="Z" horiz-adv-x="1336" 
d="M543 -92q0 47 33.5 79.5t80.5 32.5q46 0 79 -33t33 -79q0 -47 -32.5 -80.5t-79.5 -33.5q-48 0 -81 33t-33 81zM33 1112q-6 0 -2 6t11 14q8 9 21 20q9 6 18.5 15t19.5 16.5t19.5 13t17.5 5.5h1383q8 0 6 -8t-8 -17q-7 -11 -19 -25q-17 -12 -37.5 -26t-37.5 -14h-1392z
M527 1120q-3 15 13.5 31t38.5 29q26 15 59 30q7 -83 13.5 -166.5t9 -167.5t0 -168t-13.5 -166q-11 -74 -33 -147t-60 -133.5t-94 -103.5t-135 -55q-69 -12 -127 6.5t-100 58t-67 95.5t-29.5 119t14.5 128t64 122q50 61 115 106.5t139 64.5q42 9 83.5 14.5t82.5 12.5t82 17
t80 28q17 13 21 4.5t-6 -20.5q-16 -18 -37.5 -34t-36.5 -22q-63 -31 -120.5 -45.5t-119.5 -20.5q-33 -6 -66 -11t-62 -15.5t-52.5 -30.5t-36.5 -56q-17 -40 -26 -82t-8 -83.5t13 -80.5t37 -73q22 -36 53.5 -63t67.5 -42t75.5 -17.5t78.5 9.5q17 6 18 6t-10 -6q1 2 4 5l11 11
q5 14 10.5 26.5t12.5 30.5q11 24 21 49.5t15 56.5q13 61 19 127t13 134q0 129 -6.5 247t-17.5 241zM1058 1128q0 12 16.5 27.5t36.5 28t36.5 18.5t16.5 0q0 -138 4.5 -276.5t5 -276.5t-8 -275t-33.5 -271q-56 -271 -192.5 -478t-351.5 -362q0 -3 -8.5 -9.5t-19 -12.5
t-20.5 -9.5t-13 -0.5q-3 6 2.5 16t14 19t17 16t11.5 7q108 78 186 171.5t132.5 199t88 221.5t52 238.5t25 249.5t7 255t-2 255t-2.5 249z" />
    <glyph glyph-name="bracketleft" unicode="[" horiz-adv-x="1200" 
d="M567 1039q7 14 15.5 22.5t22.5 16.5q34 19 54.5 31.5t31 20.5t16 12.5t10.5 7.5t12.5 6t23.5 8q22 -7 31 -20.5t16 -27.5v-58q-7 -14 -9.5 -27.5t-9.5 -20.5q-7 -22 -9.5 -38t-8.5 -30q0 -21 -6 -38t-13 -39q-7 -29 -9 -52t-10 -45q-6 -35 -13.5 -66.5t-13.5 -67.5
q-8 -37 -15.5 -79t-22.5 -86q-6 -36 -12 -73t-6 -81v-14t3 -10.5t9 -3t16 7.5q17 14 15 13.5t-18.5 -11t-45 -29t-63.5 -40.5q-4 0 -2.5 1.5l4 4t5 6t2.5 7.5q7 7 9.5 15.5t9.5 22.5l139 59q-10 -33 -24.5 -54t-35 -37t-49.5 -28t-67 -26q-28 0 -37.5 13.5t-9.5 34.5
q0 37 11 77.5t17 76.5q7 44 14 82t14 82q7 37 14 68.5t14 67.5q7 22 13 45t6 52q7 14 12.5 34.5t5.5 42.5q8 14 13.5 30t5.5 37q7 8 9.5 21t8.5 27v49q0 14 -6.5 20t-20.5 -1q-21 -7 -23.5 -7t12 9.5t45.5 27.5t77 47q4 0 2.5 -1.5t-4.5 -3.5l-7 -5q-8 0 -10.5 -4.5
t-8.5 -4.5q0 -7 -5 -9q-2 -2 -4 -1z" />
    <glyph glyph-name="backslash" unicode="\" horiz-adv-x="1104" 
d="M-81 1116q-7 0 -5 7.5t8 16t13 16t10 7.5q4 6 11 12.5t14.5 12t16 9.5t15.5 4h1185q5 0 1.5 -6t-9.5 -13q-7 -9 -17 -19q-10 -13 -27 -30t-37 -17h-1179zM830 1107q0 14 15 29.5t33 28.5q21 15 48 28q4 -53 2 -106t-2 -113q0 -9 -11 -22t-26 -25t-30 -21t-22 -9
q-63 23 -131 27t-131 4q-47 0 -91.5 -5t-86.5 -10q-24 -7 -43.5 -13.5t-39.5 -18.5q-2 0 -7 -3.5t-9 -6t-4 -3t7 5.5q4 4 0 -2q-2 -3 -6 -7q-8 -17 -10 -38t0 -41.5t9.5 -38.5t19.5 -30q17 -20 37 -32.5t41.5 -19.5t44 -10.5t43.5 -6.5q48 0 97.5 5.5t99.5 11t99 6.5t94 -8
q4 0 -5.5 -13.5t-23.5 -29t-30 -29t-25 -13.5h-160q-23 -7 -51 -9t-57 -7q-5 0 -15 -1.5t-20.5 -4.5t-20 -7t-14.5 -10q-14 -29 -22.5 -68.5t-5.5 -77t20 -66.5t53 -38q54 -15 115.5 -5.5t121.5 31.5t115.5 51.5t98.5 55.5q18 10 23.5 10t4 -5.5t-9.5 -15.5t-17.5 -20
t-18.5 -19l-13 -13q-66 -42 -134 -72t-141 -53q-28 -9 -67 -21t-79.5 -17t-78 2t-62.5 36q-33 44 -31 97t24.5 102.5t57 90.5t66.5 61q45 35 94 50.5t101 20.5t104 4.5t103 2.5q-20 -23 -42.5 -42.5t-41.5 -42.5q-58 12 -116.5 6.5t-117.5 -12.5t-118.5 -9.5t-119.5 15.5
q-21 6 -41 15t-36 24.5t-27.5 38t-16.5 54.5q-10 41 3.5 80t42.5 68q35 41 76.5 68t86 44t91.5 25t94 11q42 3 84.5 5t85 0.5t84 -8t79.5 -20.5q-20 -18 -43.5 -37t-46.5 -42q0 53 2.5 105t-2.5 98zM289 1116q2 9 8.5 17.5t14.5 15.5t15.5 12.5t12.5 8.5q2 3 9 8t14.5 8.5
t13.5 4.5t6 -5q-9 -32 -9 -64.5t10 -59t29 -44t49 -20.5q7 -3 4.5 -10.5t-7.5 -15.5q-6 -10 -17 -21q-5 -6 -13 -14t-17 -14.5t-18 -9.5t-16 0q-33 6 -55 25t-32.5 46.5t-11 61.5t9.5 70z" />
    <glyph glyph-name="bracketright" unicode="]" horiz-adv-x="1140" 
d="M359 1131q-18 -26 -38.5 -41t-37.5 -27q-3 -3 -11.5 -7t-16 -5.5t-10 0.5t5.5 12q9 16 30.5 45t48 55t55 41t51.5 3q17 -9 24 -36.5t8.5 -60t-0.5 -64.5t-2 -51q-6 -63 -12.5 -127.5t-17.5 -133.5q-9 -54 -19.5 -116t-14 -124.5t4.5 -122.5t37 -110h-24q-29 -19 -30 -14
t22 31q6 25 25 40t37 28q14 6 25 10q9 3 16 3.5t5 -6.5q-29 -63 -70 -107t-99 -69q-7 -2 -12 -3q-11 -2 -11 3q-34 63 -40.5 137.5t1.5 152t23 154.5t23 147q6 63 11 121t5 115q0 25 -1 49.5t-7 43.5q-6 6 -8 12.5t-7 13.5q2 -2 7.5 1.5t12 9.5t13 11.5t9 7t0.5 -3
t-11 -18.5zM665 1147q-17 -18 -38.5 -35t-38.5 -24q-3 -3 -11.5 -7t-15.5 -5.5t-9.5 1t6.5 11.5q17 25 38.5 50t45.5 44.5t51 32.5t56 16h8q12 -80 9 -159.5t-12 -158.5t-21 -157.5t-19.5 -157t-6.5 -157t18 -156.5q-11 -5 -18.5 -6t-19.5 -1q9 3 16.5 11.5t13.5 19l12 21
t12 16.5q12 19 31.5 36.5t36.5 31.5q3 0 11.5 2t16.5 2.5t12 -2t-2 -12.5q-39 -63 -87 -112.5t-111 -81.5q0 -3 -5 -7.5t-11.5 -7.5t-13 -3.5t-9.5 2.5q-11 57 -14.5 114t-1 114t9 114t14.5 114q6 63 16 126.5t15 126.5q0 25 4 51.5t4 58.5q0 16 -3 34t-4.5 36t1 35t14.5 29
z" />
    <glyph glyph-name="asciicircum" unicode="^" horiz-adv-x="1080" 
d="M297 95q52 0 90 -38t38 -90t-38 -90t-90 -38t-90 38t-38 90t38 90t90 38zM939 1106q-8 0 -5.5 7t8.5 15q7 10 18 22q15 11 34 23t35 12h153q7 0 4.5 -5.5t-8.5 -13t-12.5 -14.5t-6.5 -10q-15 -11 -34 -23.5t-33 -12.5h-153zM-91 1113q-3 3 7 17t25 29t31.5 26t26.5 8
q29 -3 58.5 -2.5t59 -0.5t57.5 -4.5t54 -14.5q25 -14 44.5 -35t33 -47.5t20 -56.5t6.5 -60q0 -75 -26.5 -142t-69 -125.5t-97.5 -106.5t-112 -84q-2 0 -8 -3t-12 -4.5t-9.5 1.5t1.5 14q12 17 29.5 28.5t33.5 22.5q33 20 62 52.5t51 71.5t36 83t18 88t-4.5 86t-30.5 77
q-24 39 -57.5 54.5t-72 19.5t-79 3t-76.5 5zM-36 508q-5 2 4.5 16t25 29t32.5 26t27 8q50 -22 90 -58t77 -75t75.5 -76.5t85.5 -62.5q64 -36 132.5 -36t128.5 28.5t106 84t67 130.5q3 8 10 16t15.5 15t16.5 12t13 8q3 3 11 7.5t16 8t14.5 4t6.5 -5.5q-23 -72 -71 -137.5
t-110 -118t-133.5 -88.5t-140.5 -47q-57 -7 -104 7.5t-87.5 42.5t-77 64.5t-72.5 73.5t-74.5 70t-83.5 54zM842 1127q-3 14 13 28t36.5 25t37.5 17t17 3q25 -177 20.5 -358.5t-20.5 -364.5q-8 -66 -18 -132.5t-23.5 -131.5t-32 -128.5t-44.5 -124.5q-51 -122 -123.5 -225
t-160 -191.5t-187.5 -164.5t-206 -143q-28 -19 -35 -19t-1 10t20.5 24t30.5 22q98 64 187.5 138t166 161t137.5 187t103 217q36 121 57 242.5t32 244.5q5 83 9.5 166t5.5 166t-4 166t-18 166zM862 1113q-5 0 -1.5 6.5t10.5 14.5q8 10 19 22q11 11 30 24t40 13h90q7 0 5 -6
t-8.5 -12.5t-14 -12.5t-10.5 -6l-12.5 -12.5t-16 -14.5t-17.5 -11.5t-16 -4.5h-98zM194 713q-6 3 4.5 17t26.5 29.5t33 26.5t26 8q72 -33 149.5 -34.5t154.5 16t151 47.5t139 61q14 11 18.5 3.5t-6.5 -19.5q-15 -17 -35 -32t-40 -20q-68 -33 -145.5 -66.5t-158.5 -53.5
t-161.5 -19.5t-155.5 36.5z" />
    <glyph glyph-name="underscore" unicode="_" horiz-adv-x="1160" 
d="M1160 -124h-1160v116h1160v-116z" />
    <glyph glyph-name="grave" unicode="`" 
d="M-528 1490q-25 51 -26 136q-1 74 10 74q7 0 24 -54q25 -81 52 -122q66 -100 194 -100q132 0 198 100q27 41 52 122q17 54 24 54q11 0 10 -74q-1 -86 -26 -136q-36 -71 -105 -118q-72 -48 -149 -48q-79 0 -150.5 47t-107.5 119z" />
    <glyph glyph-name="a" unicode="a" horiz-adv-x="1262" 
d="M-111 1117q-9 0 -6 7t10 15t14.5 15t9.5 7q13 11 34 24t38 13h1422q6 0 2 -6t-11.5 -13.5t-14.5 -15t-7 -10.5q-10 -11 -31 -23.5t-44 -12.5h-1416zM945 1131q0 14 17.5 27t39.5 24q25 12 57 23q3 -55 -20 -101t-61 -83.5t-86 -66.5t-94 -51q-104 -43 -210 -64t-216 -38
q-9 0 -6.5 7t9.5 15q8 10 20 23q15 11 36 23.5t41 12.5q38 5 88.5 11t104.5 16t106 26t92 42t63 63.5t19 90.5zM585 853q-9 0 -6.5 6.5t9.5 14.5q8 10 20 22q19 12 38.5 25t37.5 13q58 -3 114 -18t103 -43.5t82.5 -70.5t52.5 -98q18 -52 16 -103t-20 -98.5t-51 -89.5
t-76 -75q-51 -40 -115.5 -69.5t-135 -46t-143.5 -18.5t-141.5 14t-129 50.5t-106.5 91.5q-54 69 -77.5 152.5t-25 171t14.5 175.5t42 168q28 88 69.5 174t96.5 164t124 145t152 119q35 22 71 42.5t74.5 36t79 24.5t83.5 9t87 -10t83.5 -30t70.5 -50t48 -71q25 -57 24 -113
t-22 -107t-58.5 -96t-85.5 -81t-102 -61t-108 -36q-11 -3 -12 1.5t2.5 11t9 12.5t8.5 6q11 16 33 31t45 20q63 11 103.5 45t56.5 95q17 49 20 101t-20 96q-23 41 -57.5 72.5t-76 51.5t-88 28t-92.5 3q-46 -6 -85 -20.5t-73.5 -36.5t-65.5 -50.5t-60 -61.5
q-62 -75 -113.5 -162t-88.5 -180.5t-57.5 -191.5t-20.5 -194q0 -41 4.5 -83t15.5 -83t29.5 -80t47.5 -75q70 -83 169 -121.5t207 -33.5q31 0 69.5 2t75 10.5t67.5 24.5t49 43q39 50 55 109t5 120q-18 60 -52.5 107.5t-81 81t-102.5 51t-116 17.5z" />
    <glyph glyph-name="b" unicode="b" horiz-adv-x="1084" 
d="M-138 1116q-5 0 -1 5.5t10 13.5q7 8 18 19q7 6 16 13.5t17.5 14.5t17 12t16.5 5h1225q7 0 4.5 -7.5t-7.5 -15.5q-6 -10 -17 -22q-15 -11 -33.5 -24.5t-33.5 -13.5h-1232zM154 1124q0 11 15.5 24t33.5 23.5t32 17t11 3.5q-10 -82 11 -137t61.5 -90t96 -52.5t115.5 -25
t119.5 -8t107.5 -0.5q-20 -23 -43 -41.5t-43 -41.5q-35 3 -71.5 1t-73 -8t-71 -17t-64.5 -27q-35 -17 -56.5 -46.5t-30.5 -65.5t-5 -75t21 -75q18 -36 44 -64.5t58.5 -48.5t68.5 -32.5t73 -18.5q32 -3 68 -2.5t69 9.5t60 30t42 60q10 16 27.5 31.5t31.5 20.5q0 3 7 7.5t15 8
t14 4.5t4 -5q-20 -50 -54.5 -92t-78 -73.5t-92.5 -52t-98 -28.5q-45 -6 -98 -1t-103.5 24.5t-92.5 55.5t-65 92q-24 59 -21.5 111.5t23.5 98t58 83.5t84 68.5t99.5 53t105 36.5t101 19t87.5 1q7 0 4.5 -6t-8.5 -14t-13.5 -15.5t-9.5 -10.5q-9 -11 -27 -24t-32 -13
q-52 0 -113.5 1t-122.5 9.5t-117 27.5t-96 55.5t-60 93.5t-8 141zM869 1110q-3 11 11.5 25t33 26t34 19t15.5 4q14 -90 18.5 -180.5t3 -182t-8 -184t-13.5 -184.5q-11 -136 -34 -267t-74 -255q-49 -123 -119.5 -229t-155.5 -196.5t-181.5 -168.5t-197.5 -145
q-25 -17 -31 -15t-0.5 12.5t18.5 25t25 22.5q94 64 181 137.5t161 160.5t132 188.5t96 222.5q41 118 58 242.5t28 248.5q15 170 17.5 337t-17.5 336z" />
    <glyph glyph-name="c" unicode="c" horiz-adv-x="1170" 
d="M-127 1120q-8 0 -5.5 7t7.5 16q6 11 17 24q17 11 35.5 24.5t33.5 13.5h1271q8 0 5.5 -6t-8.5 -13q-7 -9 -18 -19q-8 -6 -16.5 -14t-17.5 -15.5t-18 -12.5t-17 -5h-1269zM902 1104q-3 15 12 30t34 26.5t35 18t16 3.5q5 -32 12 -77t9.5 -92.5t-3 -91.5t-26.5 -73
q-23 -35 -52 -56t-61.5 -32.5t-68 -15.5t-71.5 -4q-52 5 -99 6t-93 1q-52 6 -107.5 10t-107.5 21q-15 6 -39 20t-43.5 34t-29.5 44t2 50q17 35 48 62t62 39q26 9 39.5 -8t19 -44t3.5 -56.5t-7 -46.5q-7 -29 -16.5 -57t-18.5 -56.5t-16 -58t-9 -61.5q-3 -35 -1.5 -72t9 -72.5
t22 -68t38.5 -58.5q41 -47 95.5 -68.5t112.5 -23t115 14.5t104 45q43 29 67 71.5t31.5 90.5t-0.5 96.5t-29.5 89.5t-56.5 70.5t-81 39.5q-5 0 4 13.5t24.5 29.5t32.5 29.5t27 13.5q67 -15 111 -61.5t62.5 -108.5t8.5 -130.5t-51 -126.5q-33 -47 -75 -87t-89 -72.5t-98 -55
t-102 -34.5q-44 -9 -91.5 -10.5t-92.5 9.5t-84.5 37.5t-67.5 73.5q-32 52 -43 113.5t-7 125.5q6 54 17.5 102t32.5 100q10 29 19.5 63t-0.5 69q0 11 -4.5 26t-14.5 20q-17 7 -18 11.5t10 4.5q16 12 31 24.5t32 29.5q-11 -14 -6.5 -33t16 -36.5t26 -30.5t24.5 -16
q32 -23 70.5 -32t75.5 -14q57 -6 114 -7t120 -1q31 -5 64.5 -6t64.5 -1q10 0 19.5 3.5t15.5 3.5q25 6 16 -4.5t-44 -34.5q5 11 5.5 23.5t0.5 23.5q5 32 5.5 65t-1 66t-5 66.5t-5.5 65.5z" />
    <glyph glyph-name="d" unicode="d" horiz-adv-x="1140" 
d="M-121 1118q-5 0 -1.5 7t9.5 16q7 10 18 23q11 11 30 24t39 13h1262q7 0 4.5 -6t-9 -13.5t-14 -15l-10.5 -10.5q-10 -11 -27.5 -24.5t-33.5 -13.5h-1267zM860 1103q-5 6 8.5 20.5t32 28.5t35.5 23t20 3q28 -39 35.5 -79t-1 -78.5t-30 -74t-51.5 -66.5q-34 -34 -73 -60
t-81 -44t-84.5 -29.5t-83.5 -17.5q-56 -6 -107.5 -9.5t-102.5 1.5q-20 3 -42.5 7t-43.5 11.5t-39.5 21t-31.5 35.5q-20 35 -17 64t29 56q9 9 21 19t26 18.5t28.5 13.5t27.5 2q44 -11 61 -43t17.5 -73t-10 -84.5t-20.5 -77.5q-10 -42 -17 -87t-5 -89t17.5 -85t51.5 -75
q26 -23 61.5 -42.5t75 -30.5t80 -11.5t76.5 16.5q31 17 62 30t62 30q47 17 68.5 43.5t27.5 77.5q2 13 18 26.5t34.5 23t33.5 14.5t15 2q-8 -45 -30.5 -82.5t-54 -68.5t-68 -55t-72.5 -41q-41 -20 -83 -40.5t-84.5 -35t-86 -19.5t-86.5 6q-46 11 -85 33t-68 54.5t-46.5 74.5
t-19.5 93q-2 36 3.5 69t13.5 64.5t17 63t14 64.5q3 11 6 30.5t3.5 41t-3 41t-13.5 30.5q-15 11 -33.5 22.5t-35.5 7.5q21 11 38.5 26t37.5 26q-10 -9 -8 -23t10.5 -28.5t19.5 -27t19 -18.5q21 -17 45.5 -24.5t50.5 -13.5q57 -6 111.5 -5t105.5 13q31 6 66.5 11.5t67 17.5
t56 33t34.5 57q11 51 5.5 92.5t-31.5 79.5z" />
    <glyph glyph-name="e" unicode="e" horiz-adv-x="1132" 
d="M-119 1117q-8 0 -5.5 6t9 12.5t13.5 12.5t9 6q5 6 12.5 13.5t15.5 14.5t16.5 12t16.5 5h1244q5 0 1.5 -7.5t-9.5 -15.5q-8 -10 -19 -22q-9 -11 -27 -24t-39 -13h-1238zM864 1094q-5 11 9.5 26.5t33.5 29t35.5 22t16.5 5.5q19 -68 19 -135.5v-135.5q0 -8 -13 -23
t-30 -28.5t-33.5 -21t-24.5 -1.5q-47 43 -110 66t-131.5 25.5t-135.5 -15t-121 -56t-90 -98t-41 -140.5q-5 -71 16 -129t60 -101t92.5 -69t114.5 -32q35 -3 71.5 -1t72.5 10.5t69 24.5t60 41q55 51 98.5 114.5t88.5 126.5q11 17 29 29t32 23q3 3 10 6.5t14 5t10.5 -0.5
t-1.5 -11q-53 -76 -110 -150.5t-123 -136.5t-142.5 -105.5t-167.5 -57.5q-47 -7 -96 -2t-95 23t-86 47.5t-68.5 70.5t-42 92.5t-6.5 113.5q8 73 40.5 136t80 114.5t105.5 90.5t116 65q58 25 122 40t127.5 12.5t124.5 -25t114 -73.5q-25 -17 -50 -33.5t-51 -33.5
q0 62 1 127.5t-14 127.5zM248 1117q11 22 29.5 35.5t38.5 24.5q3 0 9 3t11.5 5t7.5 1t-3 -9q-11 -21 -16.5 -50.5t-4 -61t9.5 -62t23 -53t37 -33.5t52 -3q10 3 10 -0.5t-3.5 -9t-8.5 -11.5t-5 -9q-14 -17 -33 -28.5t-40 -16.5q-35 -10 -60.5 0.5t-42.5 33t-26 54.5t-10 66
t5.5 66.5t19.5 57.5z" />
    <glyph glyph-name="f" unicode="f" horiz-adv-x="1140" 
d="M-107 1118q-8 0 -6 7t8 15q7 10 18 23q15 11 33.5 24.5t33.5 13.5h1258q5 0 1.5 -6t-10 -14t-12.5 -15.5t-6 -10.5q-15 -11 -33.5 -24t-33.5 -13h-1251zM887 1118q-3 8 10.5 24t32 31t36 24.5t22.5 3.5q38 -63 31.5 -117t-39 -98t-80.5 -78t-94 -56q-48 -23 -100.5 -41
t-107.5 -31t-110 -19.5t-108 -6.5q-8 0 -5.5 7t8.5 15.5t13.5 15.5t10.5 7q11 11 28 24.5t33 13.5q72 5 145 -0.5t145 -22.5q31 -9 64.5 -21t64 -31t54 -47t34.5 -68q10 -48 3.5 -93.5t-25 -86t-47 -76t-61.5 -63.5q-68 -60 -156.5 -94t-179.5 -36t-176.5 31t-148.5 107
q-21 25 -36 54.5t-20.5 60t2 61t33.5 59.5q33 31 74 53.5t85 33t88 8.5t85 -19q43 -17 79.5 -43t60 -60.5t30.5 -79t-9 -98.5q-10 -31 -33.5 -63.5t-53.5 -53t-62 -23.5t-60 26q-3 3 10 18.5t30.5 31t35 25.5t25.5 1q5 -5 14.5 -14t20.5 -9q-26 -34 -35.5 -39.5t0.5 17.5
l10 34t5 34q0 40 -8 77.5t-34 66.5q-30 28 -70.5 50t-83.5 32.5t-85.5 8t-78.5 -21.5q20 11 26 16.5t5 5t-5 -8t-4 -21.5q0 -17 0.5 -30.5t4.5 -30.5q17 -29 36 -52.5t39 -46.5q51 -51 114 -79.5t129 -33.5q40 -3 88.5 -1.5t92.5 15t79.5 42.5t50.5 80q10 31 16 63.5t3.5 63
t-15 58t-37.5 50.5q-45 40 -100.5 61.5t-115 31t-118.5 10t-112 -2.5q20 23 43.5 41.5t44.5 41.5q81 0 164.5 16t159.5 44q15 6 32.5 12t34 14t31 18t24.5 24q14 40 3.5 79t-30.5 74z" />
    <glyph glyph-name="g" unicode="g" horiz-adv-x="1220" 
d="M1 1111q-5 0 -1.5 6t9.5 14q7 9 18 21q8 6 17 14.5t18.5 16t18.5 13t17 5.5h1269q8 0 5.5 -8t-8.5 -17q-7 -11 -18 -24q-16 -13 -33.5 -27t-34.5 -14h-1277zM455 1118q-3 16 12.5 31.5t35.5 29.5q23 15 54 30q5 -83 10.5 -166.5t7.5 -167.5t0 -167.5t-11 -166.5
q-11 -74 -31.5 -147t-55.5 -133.5t-86.5 -103.5t-123.5 -55q-63 -12 -115.5 6.5t-91.5 58.5t-62 96t-27 118.5t13 127.5t58 122q46 61 106.5 106.5t127.5 64.5q39 9 77.5 14.5t76.5 12.5t75 17t73 28q7 7 12.5 7.5t7 -2.5t-0.5 -9t-8 -12q-14 -18 -32 -34t-34 -22
q-57 -30 -109.5 -45t-110.5 -22q-30 -6 -60.5 -10.5t-57 -15t-48 -30t-34.5 -55.5q-15 -41 -23 -83t-7.5 -83.5t11 -80.5t32.5 -72q22 -37 51 -64t62.5 -42t70 -17.5t72.5 9.5q14 7 15 7t-7 -7q1 2 3 5t8 11q7 13 12 26t10 31q10 25 19.5 50t15.5 57q9 60 15.5 126t11.5 134
q0 129 -5 247t-15 240zM943 1127q0 12 15 27.5t33 28t33 18.5t15 0q0 -138 4.5 -276.5t5 -276.5t-7 -275t-31.5 -271q-50 -269 -177.5 -477.5t-322.5 -360.5q0 -3 -8 -10t-17.5 -13t-18.5 -9.5t-11 -0.5q-3 6 2.5 15.5t13 19t15 16t9.5 6.5q99 78 171 171.5t122 199.5
t81 222t48.5 238t23.5 249t6.5 255t-2 255t-2.5 249z" />
    <glyph glyph-name="h" unicode="h" horiz-adv-x="1076" 
d="M-105 1114q-8 0 -5.5 7.5t8.5 16t13 16t9 7.5q11 11 28 24.5t31 13.5h1211q5 0 1 -6t-10 -13q-7 -9 -18 -19q-5 -6 -12 -14.5t-15.5 -15.5t-18 -12t-19.5 -5h-1203zM852 1106q-6 0 -2.5 7t9.5 16q7 11 18 24q11 11 28 25t37 14q5 0 1.5 -6t-10 -14.5t-12.5 -16.5t-6 -11
q-9 -11 -26.5 -24.5t-36.5 -13.5zM806 1122q2 15 17.5 29.5t33 25.5t32 16t14.5 -1q-12 -84 -7.5 -175t8 -183t-2 -181.5t-37.5 -170.5q-32 -69 -87 -127t-122 -94t-139.5 -45t-138.5 20q-51 20 -90.5 62.5t-63 98t-30 120t7.5 128.5q15 60 47.5 110.5t76.5 84.5t96 48.5
t106 3.5q2 0 -7.5 -13.5t-24 -29.5t-31 -29.5t-29.5 -13.5q-23 6 -47.5 8.5t-44.5 -8.5q-7 0 -9.5 -1l-2.5 -1l2 2t5 8q-5 -6 -9.5 -15t-9.5 -16q-20 -41 -27 -89t-7 -95q6 -49 21.5 -95.5t41.5 -84.5t61 -66t80 -39q24 -6 57 -10t66.5 -1t64 14t50.5 35q20 20 32.5 48
t20.5 60t12 65.5t7 65.5q5 66 3 132.5t-4.5 133t-2 133t10.5 132.5z" />
    <glyph glyph-name="i" unicode="i" horiz-adv-x="572" 
d="M240 1124q-2 11 11 24.5t29 25.5t29.5 19t13.5 5q25 -179 22 -362t-16 -368q-14 -135 -35 -266.5t-68 -256.5q-43 -123 -105 -228t-136 -196t-158 -168.5t-171 -144.5q-25 -17 -31.5 -15t-2.5 12.5t15.5 25t23.5 23.5q83 64 159.5 137t142 159.5t117 188.5t83.5 222
q35 118 50.5 243t26.5 248q6 84 10.5 168t6 168t-2 168t-14.5 168zM340 1191q2 -14 -11.5 -30t-31 -28.5t-32 -20t-14.5 -4.5q-15 79 -19.5 160t5.5 157.5t36.5 146t72.5 125.5q22 26 50 53.5t60.5 52.5t67.5 44.5t69.5 28t68.5 4t64 -26.5q36 -31 56.5 -76t29 -96.5
t5.5 -105t-14 -101.5q-14 -59 -38.5 -110t-57.5 -94.5t-73 -78.5t-85 -60q-13 -5 -16 0t8 22t28 29t37 22q34 19 60.5 59.5t42.5 93t22 111.5t-0.5 114.5t-26 103t-52.5 76.5q-34 32 -74.5 36.5t-80 -10.5t-74 -47t-56.5 -73q-48 -113 -51.5 -236.5t24.5 -240.5zM17 1116
q-7 0 -5 7t7 15q5 10 15 22q14 12 30.5 25t29.5 13q182 0 359 -2.5t358 2.5q4 0 1 -7.5t-9 -15.5q-7 -10 -17 -22q-14 -12 -30 -24.5t-30 -12.5h-709z" />
    <glyph glyph-name="j" unicode="j" horiz-adv-x="1140" 
d="M-62 1120q-8 0 -6 6.5t7 14.5q6 10 17 22q15 12 31.5 24.5t30.5 12.5h1159q5 0 1.5 -6t-8.5 -13q-6 -8 -16 -18q-7 -5 -15.5 -12.5t-16.5 -14.5t-16 -11.5t-15 -4.5h-1153zM847 1127q0 13 14.5 27.5t32 25t32 15t14.5 -0.5q-5 -79 -2.5 -168t3 -180t-5.5 -180.5
t-26.5 -171.5t-60 -152t-106.5 -121q-3 -3 -10.5 -9.5t-15.5 -12.5t-15 -9t-9 2q-5 5 -0.5 13t11.5 16t15 14.5t11 8.5q38 30 59 83t32 113.5t14.5 122t6.5 108.5q2 57 1.5 115t-1 115.5t0 114t5.5 111.5zM909 824q14 6 19 1.5t-6 -15.5q-15 -17 -31 -32.5t-32 -26.5
q-52 -25 -108 -46t-114 -36t-115 -23t-110 -5q-21 0 -44 4.5t-41 16.5t-28.5 32t-5.5 50q5 33 26 69t49.5 60.5t60.5 29t58 -25.5q16 -20 21.5 -41t4.5 -42t-5.5 -43t-8.5 -43q-9 -51 -15.5 -100t-16.5 -100q-14 -104 -42 -205.5t-76 -190.5q-49 -95 -112 -173.5
t-137 -143.5t-156 -116.5t-168 -90.5q-15 -5 -18 -0.5t11 16.5q8 16 25.5 31t36.5 20q75 36 143.5 80.5t127.5 102t107.5 128.5t83.5 160q32 78 52.5 162.5t33.5 168.5q5 44 10 84t16 78q3 13 7 32.5t6.5 40.5t3 40t-4.5 33q-4 17 -20 32t-30 20q-14 3 -12 9.5t9.5 11.5
t15.5 5t6 -11v-22q-11 -33 19 -66q16 -14 36.5 -20t42 -7.5t43 0.5t40.5 5q89 11 176.5 37.5t165.5 64.5z" />
    <glyph glyph-name="k" unicode="k" horiz-adv-x="1220" 
d="M-124 1121q-9 0 -6.5 7t8.5 15q7 10 20 22q16 11 35 24t35 13h1334q8 0 5.5 -6t-8.5 -13.5t-12.5 -14.5t-6.5 -10q-16 -11 -35.5 -24t-35.5 -13h-1333zM927 1114q-6 11 9 25t35.5 25.5t38 18.5t17.5 4q28 -100 32 -203.5t-24 -208.5q-30 -102 -87.5 -198.5t-136 -175
t-174 -132t-200.5 -70.5q-43 -6 -84 -1t-76.5 21.5t-63 46t-43.5 73.5q-21 52 -26.5 106.5t4 108t33.5 104t62 94.5q32 36 75 67.5t91.5 52t100 25.5t100.5 -12q43 -17 76 -41.5t60 -55.5t50 -68t46 -79q18 -39 38.5 -92t46 -108t57.5 -105t71.5 -82t88 -39.5t107.5 22.5
q16 5 17 -0.5t-9 -22.5q-17 -17 -34 -29t-39 -23q-52 -26 -95.5 -28.5t-80.5 12t-67.5 43.5t-56.5 66t-48 80t-41 85q-32 72 -62.5 142t-74.5 131q-16 23 -41.5 45t-57 40t-66 30t-67.5 12.5t-62.5 -12t-50.5 -41.5q-29 -42 -47 -97t-20.5 -113t13.5 -113.5t54 -96.5
q27 -33 62.5 -50t73.5 -21.5t77.5 3t74.5 24.5q76 29 134.5 80t100.5 116.5t68 142t36.5 157t6.5 161t-22 154.5z" />
    <glyph glyph-name="l" unicode="l" horiz-adv-x="1234" 
d="M-88 1121q-5 0 -1 7t11 15q8 10 19 23q17 12 33 25.5t38 13.5h1294q8 0 5.5 -6t-9 -14t-14 -15.5l-10.5 -10.5q-11 -11 -29 -24.5t-33 -13.5h-1304zM942 1121q-3 9 11 25t33 31t37 24.5t24 3.5q40 -57 44 -112.5t-17 -107t-60.5 -98t-87 -86t-97 -71t-89.5 -52.5
q-45 -20 -98.5 -34.5t-103 -36t-88.5 -56t-55 -94.5q-10 -46 -5 -85.5t24.5 -63.5t52 -29t77.5 18q15 5 16 -0.5t-9 -22.5q-11 -18 -30 -30t-41 -24q-32 -14 -66.5 -21t-63.5 0t-47.5 31.5t-18.5 73.5q-2 49 11 90.5t36.5 77.5t55 66t65.5 56q28 21 72.5 42.5t97.5 44
t108.5 47.5t105 54.5t88 64t56.5 76t11 90.5t-49 108zM361 1113q3 12 10 20.5t16.5 16t19.5 13.5t18 12q5 0 12 3t13 5.5t9.5 1.5t0.5 -10q-32 -65 -28.5 -119.5t29.5 -99.5t70.5 -80.5t95.5 -63.5t103 -48t94 -33q35 -11 73 -24.5t75 -30.5t70.5 -39.5t58.5 -52.5t39 -69
t12 -88q-2 -69 -27 -134.5t-62.5 -126.5t-82.5 -116.5t-87 -104.5q-115 -132 -241 -248t-263 -225q-91 -74 -185 -146t-200 -130q-3 0 -9.5 -3t-12 -4t-8 1.5t2.5 14.5q10 17 29.5 29.5t39.5 24.5q21 14 47 31t53 35t53.5 38t50.5 40q132 98 256.5 206.5t239.5 229.5
q45 49 94.5 104.5t93 117.5t74.5 130.5t39 142.5q5 52 -7 92t-36 71t-58 54.5t-72.5 41t-79 30.5t-77.5 25q-47 17 -101 39.5t-104.5 52t-93 66.5t-66.5 83t-24.5 101.5t33.5 122.5z" />
    <glyph glyph-name="m" unicode="m" horiz-adv-x="1140" 
d="M853 1119q-5 0 -1 5.5t10 12.5q7 8 18 19q15 11 33.5 24t34.5 13q70 0 139.5 3.5t141.5 3.5q5 0 1 -7t-10 -15q-7 -10 -18 -22q-10 -11 -28.5 -24t-39.5 -13h-281zM-106 1119q-7 0 -4.5 6t9 12.5t13.5 12.5t10 6q5 6 12.5 13.5t16 14t18.5 11.5t20 5h341q8 0 6 -7
t-8.5 -15t-14 -15t-10.5 -7q-8 -11 -27 -24t-39 -13h-343zM244 1111q-3 0 8.5 13.5t28.5 29t35 26.5t29 5q50 -36 79.5 -97t44.5 -132t17.5 -144.5t-2.5 -134.5q-8 -63 -24.5 -128t-46.5 -121.5t-74.5 -99.5t-107.5 -62q-28 -9 -61.5 -5.5t-65 17.5t-57.5 37t-39 53
q-14 36 -10.5 71.5t18 68t36.5 60.5t45 50q33 30 67.5 59.5t71.5 54t75.5 41.5t79.5 22q65 14 131.5 14.5t132.5 0.5t131 6t128 30q18 8 13.5 0t-18.5 -21.5t-31.5 -27t-24.5 -16.5q-48 -20 -95.5 -29t-96 -13t-98 -3.5t-99.5 0.5q-40 0 -80.5 -2.5t-79.5 -12t-75 -28.5
t-66 -52q-23 -25 -41 -56t-25 -63.5t1 -64.5t38 -59q25 -17 55.5 -35.5t64.5 -23.5h36q7 3 12.5 6t7.5 3.5t-1 -3t-13 -14.5q32 36 50.5 90t27 113.5t9.5 118.5t-2 106q-5 44 -13 94t-23.5 98.5t-40 90.5t-62.5 69zM861 1111q-3 12 11.5 26t33 25.5t35.5 18.5t20 4
q25 -177 20 -357.5t-20 -363.5q-8 -66 -17.5 -132t-22.5 -131t-31 -128t-43 -123q-51 -122 -122 -226t-156.5 -193.5t-181.5 -166.5t-197 -143q-28 -17 -35 -15t-2 12.5t18 24.5t26 22q95 63 183 136t162.5 158.5t133.5 185.5t96 219q40 116 61.5 239.5t27.5 245.5
q7 83 12.5 166t7 165.5t-2.5 165t-17 165.5z" />
    <glyph glyph-name="n" unicode="n" horiz-adv-x="1104" 
d="M-82 1116q-8 0 -6 7t8 15t13 15t10 7q11 11 28 24.5t37 13.5h1207q5 0 2 -6t-9 -14t-12 -15t-6 -10q-11 -11 -28.5 -24t-37.5 -13h-1206zM615 1108q-2 3 10 18t29.5 30.5t34.5 25t25 0.5q35 -34 47 -69.5t6.5 -72t-25 -72.5t-48 -70t-63 -65.5t-68.5 -58.5t-65 -49
t-53 -37q-32 -23 -66 -49t-60.5 -59t-41 -74.5t-6.5 -95.5q6 -41 23.5 -65.5t42 -36.5t54 -14t60 3.5t59.5 16t53 22.5q16 5 16.5 -0.5t-10.5 -22.5q-15 -16 -29.5 -27.5t-33.5 -22.5q-32 -17 -79 -33.5t-94.5 -19.5t-88 14.5t-59.5 67.5q-17 44 -12 89.5t23.5 87.5t45.5 79
t54 65q19 19 52 42.5t71 50t78.5 56t75.5 61.5t60.5 66.5t34.5 70t-2.5 73t-50.5 75.5zM506 747q-3 -3 -9.5 -6t-12 -4.5t-8.5 0.5t1 10q11 23 29 36.5t39 25.5q59 36 120.5 31.5t117.5 -36t102.5 -85t76.5 -114.5q29 -56 39 -115t4.5 -118t-22.5 -117.5t-42 -112.5
q-54 -115 -127.5 -221t-161 -199.5t-184.5 -174.5t-197 -145q-3 -3 -9 -7t-11.5 -5.5t-8.5 1t1 11.5q11 23 28.5 35t39.5 24q77 50 149 115.5t135 138.5q40 42 79 88.5t73.5 96.5t64 103.5t50.5 110.5q18 47 31 97.5t16.5 102t-3.5 102.5t-30 99q-16 30 -40.5 64.5t-54 67
t-63.5 60t-70 43.5t-72 16.5t-70 -19.5z" />
    <glyph glyph-name="o" unicode="o" 
d="M-909 1775q-7 -27 -12.5 -49.5t-5.5 -49.5q0 -20 5.5 -40.5t12.5 -40.5q14 -14 25 -26t32 -19q14 -14 29.5 -20.5t36.5 -6.5q22 0 44 1t51 8q21 0 48 5.5t55 12.5l114 27q29 7 55.5 9t48.5 9q56 14 113 0q21 0 47 -1t47 -8q29 -7 46.5 -14.5t38.5 -21.5q22 -20 30 -42.5
t8 -55.5q0 -41 -18.5 -80t-47.5 -73q-14 -20 -33 -36t-33 -36l-142 -54q14 14 33 31.5t33 31.5q29 34 48.5 73t27.5 80q0 27 -8.5 43.5t-29.5 36.5q-14 14 -34 21.5t-41 14.5q-29 0 -52.5 4.5t-51.5 4.5q-22 0 -48.5 -1t-55.5 -8t-56 -9t-48 -9q-29 -7 -57 -13.5t-56 -12.5
q-29 -7 -57 -9t-57 -9q-21 -7 -43 -7t-51 7q-21 0 -36.5 6.5t-29.5 19.5q-42 13 -57 54q-28 40 -28 81q0 27 5.5 54t13.5 54z" />
    <glyph glyph-name="p" unicode="p" horiz-adv-x="1138" 
d="M906 1118q-8 0 -5.5 5.5t8.5 12.5q6 8 16 18q15 12 32.5 28.5t33.5 16.5h236q8 0 6 -7.5t-8 -15.5q-6 -10 -17 -22q-15 -12 -32 -24t-32 -12h-238zM-53 1118q-8 0 -5.5 5.5t7.5 12.5q5 8 16 18q16 12 33.5 28.5t32.5 16.5h337q5 0 2 -7.5t-9 -15.5q-6 -10 -18 -22
q-10 -12 -28 -24t-38 -12h-330zM153 1118q-7 0 -4 5.5t8 12.5q7 8 17 18q13 17 31 28.5t33 16.5q26 3 54 1t54 -11t46.5 -26t34.5 -45q12 -25 16 -52t2.5 -55.5t-6.5 -57.5t-12 -57q-18 -62 -47.5 -121t-70 -110.5t-89.5 -91t-104 -61.5q19 17 35.5 37t35.5 37
q46 -20 81.5 -53.5t68.5 -71l66 -75t76 -65.5q53 -34 109.5 -43.5t116.5 13.5q64 17 103 64.5t64 120.5q6 16 24 28t29 24q15 8 25 12t16 5.5t4 -4.5q-23 -68 -65.5 -129t-97.5 -107.5t-118 -75t-126 -32.5q-77 -7 -138 24t-117 92q-25 25 -48 53t-47.5 54.5t-52 48.5
t-57.5 35q-8 3 0.5 15t22.5 25.5t28.5 24.5t19.5 11q36 16 66.5 53t53 84t36.5 96.5t18 90.5q6 58 -6.5 100.5t-39 69.5t-64.5 38t-85 6zM906 1109q0 11 15 25t32.5 26t33 19.5t15.5 4.5q13 -89 17 -179t2.5 -180.5t-7 -182t-12.5 -182.5q-8 -134 -34.5 -263t-75.5 -252
q-50 -122 -117.5 -226.5t-149.5 -195t-174.5 -167t-192.5 -142.5q-27 -17 -33.5 -15t-0.5 12.5t19.5 25t27.5 22.5q93 64 178 136.5t156.5 158.5t128 187t93.5 219q40 117 57 240.5t27 246.5q10 165 13.5 330.5t-18.5 331.5z" />
    <glyph glyph-name="q" unicode="q" horiz-adv-x="1140" 
d="M-107 1119q-8 0 -5.5 7t8.5 15q7 10 18 23q14 12 33 25t34 13h1248q5 0 1.5 -6t-10.5 -13q-8 -9 -19 -19q-7 -6 -15.5 -13.5t-17.5 -14.5t-18 -12t-16 -5h-1241zM746 814q32 -6 67 -17.5t66 -31.5t54.5 -49t34.5 -69q9 -48 2.5 -93t-24.5 -85.5t-45.5 -76t-60.5 -63.5
q-68 -60 -156 -94t-179 -35.5t-175.5 33t-146.5 111.5q-21 25 -36.5 53.5t-20.5 57.5t2.5 58.5t33.5 57.5q16 11 27 22t26 17q0 -6 4.5 -12t9.5 -12l7 -7h-14v-22q0 -17 1 -29.5t6 -24.5q14 -28 31 -55.5t44 -50.5q33 -34 77.5 -60.5t95.5 -37.5q10 -6 21.5 -10.5t26.5 -4.5
h46h19h8h7h5h15q35 3 70.5 9.5t66 21.5t54.5 40t36 64q10 31 14.5 63.5t0.5 63t-17.5 58.5t-38.5 51q-38 34 -83 55t-94.5 32.5t-101 15.5t-102.5 4q-16 0 -27.5 -4t-25.5 -4q-8 0 -6 7t8.5 15.5t14 15.5t10.5 7q9 11 27 24.5t33 13.5h46q72 6 141 22t135 39q13 6 29.5 12
t33.5 14.5t32 20.5t26 29q15 40 4 78.5t-32 73.5q-3 6 11 20.5t32.5 28.5t35.5 23.5t22 3.5q38 -60 31.5 -113.5t-38.5 -97.5t-80.5 -77.5t-93.5 -53.5q-20 -11 -40 -19t-40 -19q9 0 15 -1t12 -7z" />
    <glyph glyph-name="r" unicode="r" horiz-adv-x="1076" 
d="M-93 1117q-5 0 -1.5 7t9.5 16q7 11 17 24q10 12 26.5 24.5t36.5 12.5h1158q5 0 2.5 -6t-8 -13.5t-11.5 -15t-8 -10.5q-10 -12 -26.5 -25.5t-35.5 -13.5h-1159zM846 1140q-3 15 10.5 28.5t30.5 24.5q20 12 47 24v-8q7 -86 13 -174.5t6 -176t-8.5 -174t-29.5 -169.5
q-21 -80 -62.5 -146.5t-96.5 -107t-120 -47t-133 33.5q-38 25 -79 59.5t-76.5 76.5t-60 92.5t-28.5 107.5q-3 43 10.5 78.5t35.5 65t49.5 52.5t53.5 41q65 45 136 63.5t143.5 27t146.5 16t145 30.5q9 3 9.5 -1.5t-3.5 -11.5q-4 -8 -13 -18q-14 -18 -32 -33t-36 -21
q-57 -17 -115.5 -23.5t-117.5 -12t-117 -13.5t-114 -28q-24 -11 -45 -21.5t-31 -38.5q-14 -41 -11 -75t17 -69q34 -87 90.5 -150t121.5 -102q29 -18 64.5 -32t68.5 -14q14 0 27.5 1.5t23.5 12.5q-7 -5 -8.5 -6.5t0 -1t5.5 3t9 4.5q0 6 3.5 12t3.5 12q31 57 44.5 123
t22.5 129q15 143 12 281t-12 275z" />
    <glyph glyph-name="s" unicode="s" horiz-adv-x="1140" 
d="M-27 1120q-8 0 -6 5.5t7 12.5q6 8 17 18q15 12 31.5 28t31.5 16h1165q8 0 5.5 -7t-7.5 -15q-6 -10 -16 -22q-15 -11 -31.5 -23.5t-32.5 -12.5h-1164zM383 1112q-5 6 7 21.5t29.5 30t35 23t22.5 -0.5q21 -30 32.5 -67t16.5 -76.5t6 -80.5t1 -80q0 -74 1.5 -149t-6.5 -148
q-8 -62 -31 -121.5t-60 -106t-86 -74.5t-108 -25q-33 0 -67.5 8.5t-64 27t-51.5 46.5t-32 67q-11 36 -13.5 73t2.5 72.5t18 68.5t32 61q40 61 89.5 93.5t104.5 49t113 24t115 18.5q9 3 10.5 0t-1.5 -8.5t-8 -12t-7 -9.5q-15 -11 -32.5 -25t-31.5 -19q-48 -11 -91 -15
t-85 -16q-24 -5 -47 -8t-42 -14q-9 -5 -16 -19t-12 -30.5t-8.5 -33.5t-6.5 -27q-10 -65 5 -121.5t47.5 -97t79 -60.5t100.5 -11q16 0 26.5 2t17 7t10.5 15t9 27q10 23 15.5 49t10.5 49q4 50 4.5 99.5t0.5 100.5q3 50 5 107t-1.5 113.5t-16.5 109t-41 93.5zM437 882q3 0 9 3
t11.5 5.5t8 1.5t-2.5 -10q-9 -23 -26.5 -35.5t-35.5 -23.5q-26 -23 -58 -23q20 23 42 41t40 41q48 -5 94.5 -9t95.5 2q23 0 49.5 0.5t54 4t54 11t50.5 21.5q24 17 29 16t0 -11t-18 -24.5t-25 -25.5q-51 -33 -109 -51t-118.5 -24t-121 -3t-117.5 11q-4 0 5 13t23 28t29.5 28
t24.5 13h12zM809 1098q-3 14 11 28t32 26q21 14 48 27q13 -92 17 -183.5t2.5 -183t-7.5 -182t-12 -179.5q-11 -135 -33.5 -265t-69.5 -252t-114 -227.5t-148 -196t-173 -168.5t-189 -145q-23 -17 -28.5 -15t-0.5 12.5t17 25t24 22.5q90 61 173 134.5t153.5 160.5t126 189
t90.5 222q39 118 55.5 238.5t25.5 248.5q11 168 15.5 334t-15.5 329z" />
    <glyph glyph-name="t" unicode="t" horiz-adv-x="1100" 
d="M-80 1117q-8 0 -5.5 7t7.5 16q6 11 17 24q15 14 32 27.5t30 13.5h1181q7 0 4.5 -6.5t-8 -15t-11.5 -16t-6 -9.5q-14 -14 -31.5 -27.5t-30.5 -13.5h-1179zM862 1132q0 15 14.5 29.5t32.5 26.5q21 14 48 27q5 -74 5 -143.5t-5 -143.5q0 -9 -13 -25.5t-29.5 -31.5t-32 -24
t-20.5 -3q-36 78 -86.5 111.5t-105.5 31t-109.5 -34.5t-100.5 -83.5t-78.5 -117t-41.5 -135.5q-12 -74 0 -135t41.5 -106.5t74.5 -74.5t99 -38q27 -3 60 -4.5t66 2.5t62 16t49 36q38 50 68 108.5t58 121.5q11 18 27.5 35t31.5 30q2 0 9 2t13.5 3t10 -1t-0.5 -11
q-41 -80 -85.5 -156t-97.5 -135.5t-117.5 -96.5t-145.5 -40q-33 -3 -71 -0.5t-75 14t-70 34t-57 59.5q-39 56 -49 129t4 142q12 57 41 119.5t70 122.5t92 114t106 93.5t111.5 61t109.5 16.5t100 -40t82 -109q-24 -19 -47.5 -38t-47.5 -38q10 133 0 280z" />
    <glyph glyph-name="u" unicode="u" 
d="M-908 0q13 -23 34 -39.5t38 -31.5q19 -15 41 -18.5t45 -11.5q35 -7 70 -2t71 12q66 15 129 44t122 67q11 7 26.5 14.5t28.5 15.5l-94 -90q-11 -8 -27 -20.5t-28 -20.5q-65 -30 -126.5 -57.5t-132.5 -42.5q-35 -7 -70.5 -12.5t-77.5 2.5q-18 0 -40.5 7.5t-44.5 22.5
q-19 15 -39.5 36.5t-32.5 43.5z" />
    <glyph glyph-name="v" unicode="v" horiz-adv-x="1100" 
d="M-128 1117q-5 0 -1 7t10 16q7 10 18 22q14 11 32.5 24.5t34.5 13.5h1206q7 0 5 -6t-7.5 -14t-11.5 -15t-6 -10q-14 -11 -32.5 -24.5t-32.5 -13.5h-1215zM858 1103q0 10 15 24.5t34 25.5t34 16.5t15 -0.5v-218q0 -9 -11 -21.5t-26.5 -25t-30.5 -21t-23 -8.5
q-46 9 -92.5 18t-93.5 15.5t-93.5 8.5t-92.5 -4q-24 0 -49 -2.5t-47 -12t-39.5 -27.5t-26.5 -48q-11 -24 -9.5 -54t20.5 -52q23 -25 55 -40t67.5 -22.5t72 -9.5t68.5 -2q63 -5 130 -1t130 15q-19 -23 -39 -41t-40 -42q-106 10 -200 -22q-27 -12 -44 -27t-21 -49
q0 -34 3 -65.5t22 -55.5q24 -39 69.5 -58.5t95 -18t94 24t67.5 67.5q11 17 28 29.5t31 24.5q2 3 8.5 6t12.5 4.5t9.5 -0.5t0.5 -10q-19 -40 -49.5 -72.5t-65.5 -58.5t-73 -44t-72 -30q-33 -11 -71 -16.5t-74.5 0t-68 25t-47.5 59.5q-27 66 -17 120.5t45 97t88 73t110 49.5
t111.5 26.5t93.5 3.5q7 0 4.5 -6t-8.5 -14t-13.5 -15t-9.5 -10q-10 -11 -24 -22t-29 -16q-82 -17 -169 -18.5t-177 3.5q-24 3 -63 10t-74.5 23t-61 43.5t-22.5 72.5q2 54 30 100.5t68.5 82t87 58.5t89.5 32q56 15 112.5 17.5t112.5 -3t112.5 -16t113.5 -21.5
q-26 -17 -47 -37.5t-46 -36.5v219z" />
    <glyph glyph-name="w" unicode="w" horiz-adv-x="520" 
d="M571 1202q-7 -18 -16.5 -31t-14.5 -30v-23h-592q7 6 8 8t1 7q0 18 4 34.5t11 34.5h599zM195 1141q-3 14 13 28.5t37 26t39 18t18 3.5q23 -127 4 -248t-65 -236q-7 -17 -26.5 -32.5t-36.5 -27.5q-15 -8 -26 -12q-9 -4 -16 -4t-4 8q20 57 35.5 116t24.5 119t10 120.5
t-7 120.5z" />
    <glyph glyph-name="x" unicode="x" horiz-adv-x="1174" 
d="M-77 1116q-8 0 -5.5 7t8.5 16t13.5 16t9.5 7q9 11 27 24t34 13h1254q5 0 1.5 -6t-9.5 -13.5l-12 -15t-6 -10.5q-10 -12 -29 -25t-39 -13h-1247zM157 1116q6 17 26 29.5t36 23.5q13 8 23 13q8 5 13.5 6t3.5 -4q-8 -28 -13 -58.5t-4 -60.5t11 -58t32 -50q42 -41 90.5 -60
t99.5 -24q66 -6 134.5 -0.5t134.5 22.5q18 3 41 7.5t47 12t47.5 17.5t41.5 25q9 11 27 24.5t32 13.5q8 0 5.5 -6t-7.5 -13q-6 -9 -17 -19q-56 -49 -120.5 -82t-133 -53t-138 -28t-134.5 -5q-31 0 -64.5 3.5t-65.5 12.5t-61.5 25.5t-52.5 42.5q-46 47 -50 110.5t16 132.5z
M712 827q0 11 14.5 25.5t32.5 25.5t32.5 17t14.5 0v-136q0 -9 -12.5 -24t-29 -28.5t-32 -21.5t-20.5 -2q-31 37 -74.5 50.5t-90 9.5t-92.5 -20.5t-81 -39.5q-41 -28 -66.5 -68.5t-33 -86.5t5 -92.5t47.5 -86.5q50 -57 113 -73t129 -10q26 3 53 6.5t53.5 10.5t51.5 19t46 32
q15 13 36.5 36.5t40.5 51t32.5 56t14 53t-17 41.5t-59.5 21q-5 0 -1.5 5.5t9.5 12.5q7 8 18 19q5 6 13.5 14t18 15t19 12t17.5 5q55 -6 72.5 -31t9.5 -60.5t-34.5 -77t-58.5 -80t-63 -70t-48 -46.5q-34 -28 -79.5 -54t-96.5 -44.5t-104.5 -28t-104.5 -4t-96 27t-78 65.5
q-51 63 -55.5 126t21 120.5t72 107.5t96.5 87q43 31 102 61t120.5 43.5t118.5 2.5t98 -62q-25 -17 -47.5 -34t-46.5 -34v136z" />
    <glyph glyph-name="y" unicode="y" 
d="M-292 1117q-8 0 -6 6.5t8 14.5q7 9 18 21q14 11 32.5 23t33.5 12h214q5 0 1 -5.5t-10 -12.5q-7 -8 -18 -17q-5 -5 -12 -12.5t-16 -14t-19 -11t-20 -4.5h-206zM-765 1468q-11 -21 -28.5 -33t-31.5 -23q-3 -3 -10.5 -6t-14.5 -4.5t-11 0.5t1 10q40 60 95 100t117.5 59.5
t129.5 19.5t132 -18q55 -18 114 -49.5t106 -76.5t76 -103t24 -129q-2 -11 -18 -23t-34 -21.5t-32.5 -15.5t-14.5 -3q5 55 -13 102.5t-50 86.5t-73.5 69t-84.5 51q-35 16 -88.5 33.5t-109 25t-105 -2.5t-76.5 -49z" />
    <glyph glyph-name="z" unicode="z" horiz-adv-x="1148" 
d="M698 82q0 -32 -32.5 -54.5t-75.5 -22.5q-44 0 -75.5 22.5t-31.5 54.5q0 33 31 56.5t76 23.5q44 0 76 -24t32 -56zM-51 1121q-8 0 -6 6t7 14q6 9 17 20q15 11 32 22.5t31 11.5h1177q5 0 2 -5.5t-9 -11.5q-7 -8 -17 -17q-7 -5 -15.5 -12t-16.5 -13t-16.5 -10.5t-15.5 -4.5
h-1170zM872 1127q0 13 14.5 26t32.5 22.5t32.5 14t14.5 -0.5q-5 -73 -2.5 -154.5t3 -165.5t-5.5 -166.5t-27 -158t-61 -140t-108 -111.5q-3 -3 -10.5 -9t-16 -12t-15.5 -8.5t-9 2.5q-5 5 -0.5 12t12 14.5t15.5 13.5t11 8q38 28 59.5 76.5t33 104.5t15 112t6.5 100
q2 53 1.5 106l-1 106t0 105t5.5 103zM935 848q14 6 19 1.5t-6 -14.5q-15 -15 -31.5 -29.5t-32.5 -24.5q-53 -23 -110 -42.5t-115.5 -33.5t-116.5 -21t-112 -4q-22 0 -45 4.5t-41.5 15t-29 29t-5.5 46.5q5 30 26.5 63.5t50.5 55.5t61 26.5t59 -23.5q16 -18 21.5 -37.5t5 -39
t-5.5 -39.5t-9 -40q-9 -46 -15.5 -91.5t-16.5 -92.5q-14 -96 -43 -189.5t-77 -175.5q-50 -87 -114 -159.5t-139 -132.5t-158 -107t-171 -83q-15 -5 -18 -1t11 15q8 15 26 28.5t37 18.5q76 33 145.5 74.5t129.5 94t109 118.5t85 147q33 72 53.5 150t34.5 155q5 41 10 77.5
t16 71.5q3 13 7 31t6.5 37t3 37t-4.5 30q-4 16 -20 29.5t-31 18.5q-14 2 -12 8.5t9.5 11t16 4.5t6.5 -10v-21q-11 -30 19 -60q17 -13 37.5 -18.5t42 -7t43.5 0.5t41 4q91 10 179.5 34.5t168.5 59.5z" />
    <glyph glyph-name="braceleft" unicode="{" horiz-adv-x="714" 
d="M502 1767q2 -1 -4 -6.5t-14 -11.5q-10 -8 -22 -17q-3 -2 -9.5 -7t-14 -9.5t-14.5 -7.5t-10 0q-12 6 -27 12t-31 10t-32 3.5t-29 -7.5q8 4 14.5 9t10 8l3.5 3l-5 -6q-6 -6 -10.5 -12.5t-6.5 -12.5q-8 -14 -16 -28.5t-12 -28.5q-22 -56 -32.5 -118.5t-2.5 -122.5
q4 -39 14.5 -76.5t23 -74.5t23.5 -74.5t17 -76.5q4 -35 1.5 -72t-19.5 -68q-21 -41 -58.5 -69t-77.5 -50q-2 -2 -7.5 -5t-10.5 -4.5t-7.5 -1t2.5 6.5q11 13 27.5 23.5t32.5 20.5q-10 -6 -12 -8t4 6q6 3 8.5 7t4.5 9q10 11 13 29q8 19 10.5 37.5t2.5 39.5q-2 42 -12 82
t-24 82q-10 34 -19.5 67t-16.5 66t-10 67t0 70q3 32 9.5 65t17 65t26.5 62t40 55q26 29 62.5 55t78.5 37q31 10 61.5 2.5t58.5 -24.5zM105 844q-5 0 -1 4l9 9q6 6 16 14q5 4 12 10.5t14.5 12t15.5 8.5t15 2q16 0 28.5 -0.5t26.5 -5.5q30 -11 46.5 -33.5t24.5 -50t9 -57.5
t0 -57q-4 -70 -18 -137.5t-25 -136.5q-13 -68 -6.5 -140t31.5 -137q6 -12 13.5 -24.5t17 -24.5t20.5 -21.5t25 -13.5t27.5 -3.5t24.5 7.5q-13 -8 -18.5 -12t-6 -5t2.5 1t8 7q5 4 8.5 8t5.5 9q11 13 21 24.5t21 23.5q8 14 22 24t30 19q1 1 7 3.5t13 5.5t11.5 4.5t2.5 -0.5
q-37 -52 -86.5 -100t-113.5 -72q-36 -14 -62.5 -5t-46 30t-31.5 50t-18 55q-17 66 -18 131.5t11 132.5q7 35 14.5 70.5t13.5 70.5t9 70.5t1 71.5q-1 30 -7.5 58t-21 50t-38.5 35.5t-60 14.5z" />
    <glyph glyph-name="bar" unicode="|" horiz-adv-x="1110" 
d="M-81 1114q-8 0 -6 6t7 14q6 9 17 20q7 6 15.5 14t17 15.5t16.5 13t15 5.5h1189q4 0 0.5 -7.5t-9.5 -16.5q-7 -11 -18 -24q-14 -13 -31.5 -26.5t-31.5 -13.5h-1181zM161 1090q-2 14 12 30t33 29q21 15 50 29q4 -48 4 -96t-1.5 -96.5t-3 -96.5t0.5 -96q0 -12 -15 -27
t-32.5 -27t-32.5 -18t-15 0q-2 48 -0.5 94.5t3 92.5t2 91.5t-4.5 90.5zM237 785q-5 -18 -20.5 -34t-29.5 -22q0 -3 -8 -8.5t-17 -9t-15.5 -4t-4.5 5.5q28 74 76.5 129.5t108.5 93t128.5 58t137.5 23.5t135 -11t122 -44q34 -18 57.5 -49t36 -69t13.5 -82.5t-11 -89.5
q-25 -96 -80.5 -172.5t-123.5 -131.5q-63 -48 -134 -87t-147 -57q-29 -9 -65.5 -15t-73 -2t-69.5 21t-54 53t-28 79t-1 86.5t23.5 84.5t43.5 71q27 32 57.5 58t64 43.5t69 24.5t71.5 1q41 -3 79.5 -15.5t70.5 -36.5t56.5 -60.5t36.5 -87.5q7 -30 14 -67t16.5 -73t24 -67
t35.5 -49q36 -27 67 -25.5t58.5 21t51.5 51.5t46 65q4 9 21 24t33.5 25.5t25.5 11t-3 -20.5q-11 -12 -23 -29t-22 -36q-27 -36 -66 -80.5t-84 -77.5t-92 -44.5t-90 18.5q-30 22 -47.5 55t-29 71t-19.5 79.5t-19.5 80.5t-29 73t-48.5 58q-38 25 -76.5 38t-82.5 18
q-17 0 -35 -1.5t-34.5 -7t-30 -14.5t-20.5 -24q-20 -48 -21.5 -98.5t13 -93.5t44 -73.5t72.5 -39.5q38 -6 78.5 -2t80.5 15t78.5 28t74.5 38q34 24 66 61t55.5 81t34.5 94t4 101q-7 57 -32.5 95.5t-61.5 62.5t-78.5 35.5t-82.5 14.5q-30 4 -65.5 6.5t-71.5 0t-72 -10.5
t-67 -24.5t-56 -43t-39 -64.5z" />
    <glyph glyph-name="braceright" unicode="}" horiz-adv-x="762" 
d="M495 1669q-15 -12 -35 -21.5t-40 -16.5q-16 -6 -17 -4t10 11q23 17 48.5 31.5t53.5 28.5q16 9 36.5 18.5t41.5 9.5q26 0 36 -17t12 -34q5 -23 5 -47.5t-3 -49t-7.5 -48.5t-8.5 -46q-10 -45 -22.5 -88.5t-25.5 -86.5q-7 -22 -17 -57t-17 -75t-7 -80t13 -72t43 -51t84 -17
q5 1 1.5 -2.5t-10 -8.5t-12.5 -9t-6 -5q-13 -8 -33 -19t-35 -11q-47 -2 -76 13t-45 39t-21.5 54t-3.5 57q3 45 12.5 90t22.5 89.5t26.5 89.5t23.5 90q11 48 17.5 97.5t-0.5 99.5q-2 11 -8.5 25t-21.5 20q-14 7 -27 3q-5 -2 -1.5 -1t9 3t9.5 3.5t0 -1.5q2 4 6.5 6t9.5 4
q-3 -2 -9 -5.5t-11 -8.5zM692 967q4 1 0.5 -2.5t-9 -8t-11.5 -9t-7 -5.5q-15 -10 -32.5 -18.5t-36.5 -12.5q-5 -1 -8 -1.5t-5 -2.5q-3 -1 -2 -0.5t2 1.5t2 1.5t-2 0.5q21 6 34 17q5 4 5.5 4t-1.5 -2q-3 -2 -2.5 -1.5t2 1t2 1t-1.5 -2.5q-4 0 -4 -2q-1 -1 0 -1
q-21 -19 -31 -43q-13 -29 -18.5 -59.5t-5.5 -60.5q-2 -78 7 -155t14 -155q5 -47 6.5 -95t-3.5 -96q-5 -35 -15.5 -73.5t-38.5 -70.5q-18 -18 -42 -36t-52.5 -32.5t-60 -25.5t-63.5 -15q-66 -10 -135 1.5t-130 28.5q-3 0 4 5t16 11q11 7 25 16q4 2 11.5 6.5t15.5 9t16.5 7
t13.5 0.5q54 -13 109.5 -24t115.5 -9q17 2 36.5 4.5t34.5 8.5q-2 0 -0.5 -0.5t-6.5 -2.5q8 4 3 1l-12.5 -7.5t-13.5 -8t-1 -0.5q-5 -2 -5.5 -2t2.5 2l5 5q2 2 4.5 4t4.5 4q24 26 37 57t18 63.5t4.5 65.5t-1.5 63q-1 49 -6.5 98t-11 97.5t-9 97.5t-0.5 98q2 38 8.5 76
t32.5 70q14 20 35.5 38.5t47 33.5t54 25.5t56.5 16.5z" />
    <glyph glyph-name="asciitilde" unicode="~" horiz-adv-x="400" 
d="M-186 1074q-5 0 -1 7.5t11 17.5q8 11 19 26q6 7 15 17t19 19t19.5 15t17.5 6q81 -5 161 -0.5t160 9.5t159.5 8t159.5 -3q6 -1 2.5 -8.5t-10 -16.5t-13 -17t-6.5 -10q-6 -7 -15 -17t-19 -19t-19.5 -15t-17.5 -6q-81 6 -162 2.5t-161 -9t-160 -9t-159 2.5zM-46 1591
q-3 8 4 19.5t18.5 24t25.5 25t26.5 21.5t21 14t8.5 4q12 -41 28.5 -82t37.5 -74t47.5 -52.5t59.5 -15.5q14 3 26 6t22 10q7 5 6.5 4t-5.5 -5t-14 -12q5 7 8 11.5t5 12.5q23 31 38.5 68.5t26.5 81.5q3 11 10 22t16 20.5t19 17l18 13.5q0 2 7 8t15.5 11.5t15 7.5t5.5 -4
q-17 -62 -44.5 -118.5t-61.5 -103.5t-73.5 -84t-80.5 -59q-32 -18 -65.5 -21t-64.5 20q-42 31 -67 87.5t-39 121.5z" />
    <glyph glyph-name="Aring" unicode="&#xc5;" horiz-adv-x="2168" 
d="M620 884q14 10 33.5 19t31.5 11t10 -4t-30 -26q-48 -33 -109 -61.5t-124 -36.5t-120.5 12t-97.5 83q-25 40 -32.5 88t0.5 96.5t30 94t56 81.5q25 24 60.5 50.5t76.5 47t85 30.5t87 3q39 -8 74.5 -27.5t63 -47t44.5 -60t20 -65.5q0 -39 -4.5 -84.5t-11.5 -86.5
q-5 -70 -11.5 -140t-11.5 -139.5t-7.5 -139.5t-0.5 -140q0 -55 5 -110.5t35 -102.5q5 -15 16 -31.5t28 -20.5q5 -5 15 -6t15 -1q5 3 5.5 2t-0.5 -2.5t-3 -2t-2 2.5q18 14 39.5 24t44.5 15q8 2 7.5 -1t-4 -8t-8 -10t-4.5 -8q-23 -15 -46 -28.5t-45 -23.5q-17 -9 -37 -18
t-40 -12t-39 2t-33 22q-17 17 -27.5 38.5t-16 44t-7.5 46t-2 44.5q-9 68 -9.5 137t3 138.5t10 138.5t12.5 137q3 35 9.5 74t9.5 79t1.5 79t-13.5 74.5t-37 66t-68 52.5q-15 10 -38.5 18.5t-49 11.5t-49 -1.5t-37.5 -21.5q-38 -39 -59.5 -92.5t-21.5 -107.5q0 -24 4.5 -51
t15 -52.5t27.5 -47.5t42 -37q57 -38 120.5 -41.5t119.5 33.5zM981 1100q-5 0 -1 5t11 11q8 7 20 16q12 10 32 25t43 15q99 0 199 7t200 13t199.5 6t197.5 -14l3 -3q2 -2 -3 -2q-25 -71 -85.5 -127t-138 -97t-163 -69t-161.5 -44q-12 -3 -6 4.5t18.5 17.5t25.5 19t16 9
q33 19 73 36t82.5 25.5t85 5.5t81.5 -22q69 -40 106.5 -101.5t43.5 -130.5q11 -73 -12 -142t-87 -121q-36 -35 -80.5 -67t-94.5 -57t-104 -39.5t-111 -14.5q-90 -3 -163.5 23t-131.5 72.5t-99 108.5t-66 131.5t-34 142t-1 139.5q11 109 49 210.5t102.5 189.5t156 160
t210.5 123q99 39 208 61t214.5 16t201 -44.5t166.5 -120.5q5 -6 -8.5 -18.5t-33.5 -25t-39.5 -20.5t-25.5 -3q-49 53 -113.5 89t-137.5 54.5t-151.5 21t-154.5 -10.5t-147 -42t-129 -72q-51 -39 -90.5 -86.5t-69 -101t-49.5 -111t-31 -115.5q-12 -57 -18 -114.5t-2 -115.5
t19 -114t45 -110q29 -43 67 -84.5t84.5 -75.5t101 -57t116.5 -27q62 -5 118 6.5t100.5 38.5t74 68t37.5 95q8 45 0 94.5t-30 95t-56 82.5t-78 56.5t-98 17t-114 -35.5q13 15 27 27.5t26 22.5q31 10 64.5 20t66.5 21.5t63 24.5t56 30q33 20 58.5 45t37.5 54q3 7 -16 12.5
t-43.5 8.5t-48 4.5t-29.5 1.5q-81 2 -162.5 -2t-163 -9.5t-163 -10.5t-163.5 -5z" />
    <glyph glyph-name="Ccedilla" unicode="&#xc7;" horiz-adv-x="2112" 
d="M1673 1292q-2 2 5 9.5t16.5 15t18 12.5t10.5 2q30 -39 60 -80.5t56.5 -85t47 -90t32.5 -97.5q23 -105 3.5 -207.5t-61.5 -198.5q-28 -67 -63 -128.5t-78 -117.5q-92 -116 -210 -205q-60 -48 -123 -87t-129 -75q-32 -18 -64.5 -35t-64.5 -33q-35 -19 -69 -36.5t-68 -34.5
q-36 -17 -71.5 -33t-72.5 -33q-10 -3 -20 -8t-21 -10q-1 -2 -4 -2.5t-6 -2.5q7 4 5.5 3t-2.5 -3q-2 0 -4.5 -2t4.5 2q-5 0 -8 -3q-1 -2 -2.5 -3t-2.5 -3q-3 -2 -3 -1t1 1.5t1.5 1t-2.5 -2.5q-14 -11 -26.5 -23t-26.5 -28q-11 -14 -22 -30t-17 -33q-5 -14 -4 -27.5t14 -23.5
q8 -7 16.5 -10t19.5 -5q5 0 9 -1t9 1q-5 -2 -11 -9t-11 -12.5t-8 -7.5t-2 7q5 18 -1.5 36.5t-10.5 35.5q-5 14 -12 29t-7 30q-1 6 8 13.5t14 10.5l4.5 3t10 6.5t9.5 5.5t4 0q1 -12 6.5 -25t10.5 -25q4 -15 9 -31.5t7 -33.5q2 -20 -7.5 -32.5t-24.5 -24.5q-17 -14 -32 -16.5
t-37 4.5q-25 8 -32.5 22.5t-3 33.5t17.5 40t28.5 40t30.5 34.5t24 24.5q16 14 32.5 27t33.5 25q26 19 57.5 31.5t60.5 25.5q72 31 139.5 66.5t136.5 71.5q63 33 125 68t121.5 75.5t114 88t101.5 104.5q45 54 81 117t65 130q28 66 49 136t23 143q2 71 -15 135.5t-46 124.5
t-67.5 115t-78.5 108zM1656 1292q-3 -1 -1.5 1.5t4 6.5t5.5 7.5t4 4.5q8 5 16.5 11.5t17.5 8.5q21 3 40.5 -2t37.5 -15t34.5 -24t30.5 -29q32 -36 58.5 -76.5t49.5 -83.5q31 -57 47 -119t20 -126.5t-2.5 -129.5t-21.5 -129q-15 -63 -39.5 -120.5t-55 -112t-65 -106.5
t-69.5 -103t-68.5 -102.5t-63 -105.5t-51.5 -111.5t-33 -120.5q0 -4 -7 -11.5t-15.5 -14t-16 -11t-10.5 -1.5q-32 36 -58.5 76t-59.5 78q-13 15 -29.5 32.5t-35 31t-39.5 19.5t-42 -3q-5 -2 -5.5 -0.5t1.5 4.5t4.5 6t3.5 3q16 17 36 26q22 9 43 5t40.5 -16t37 -29t31.5 -33
q32 -38 60.5 -80.5t60.5 -79.5q-12 -11 -24 -19.5t-25 -18.5q12 74 39.5 141t63 129t77 121.5t82.5 119.5t78 121.5t65 128.5q27 66 43 137.5t21 143.5q5 78 -6.5 156.5t-44.5 149.5q-21 46 -48 89t-58 81q-15 18 -32.5 36.5t-37.5 32.5t-42 21.5t-46 3.5zM730 -383
q-1 -8 -12 -15.5t-16 -12.5q-1 0 -4.5 -2t-7.5 -4.5t-7 -3.5t-2 2q7 31 22.5 59.5t37.5 51t49 37t57 19.5q3 0 1 -3t-5 -7t-6 -7.5t-3 -4.5q-7 -5 -16 -12.5t-17 -7.5q-11 -2 -19.5 -3.5t-17.5 -6.5q3 2 4 2.5t-3 -2.5q-2 -2 -4 -6.5t-5 -7.5q-10 -14 -15.5 -31t-10.5 -34z
M998 -501q2 0 0.5 -3t-4.5 -6.5l-6 -7t-4 -3.5q-8 -6 -15.5 -12t-17.5 -8q-2 -2 -4.5 -2t-4.5 -2q6 3 11.5 7t10.5 11q-2 -2 -2.5 -3.5t-1.5 -3.5q-3 -11 -3 -21q-1 -23 11 -46q11 -20 31 -36t45 -14q3 0 7 0.5t8 3.5q7 2 7.5 5t-12.5 -12q-2 -3 0 1t4 6q1 2 2 4.5t1 6.5
q2 13 0.5 25t-6.5 25q-5 10 -11.5 20t-15.5 17q-11 7 -20 10q-6 1 -9.5 0t-3.5 -1.5t3.5 1.5t12.5 10q-2 0 -7.5 -4t-12 -7.5t-11.5 -6t-4 -0.5q15 84 16 169t-3 170.5t-7.5 170.5t1.5 169q12 11 24 19t25 17q-9 -41 -9.5 -83t2.5 -84t8.5 -84t8.5 -84q4 -43 3.5 -86.5
t-1.5 -88.5q-3 -46 -4 -93t5 -95q-12 -10 -24.5 -19t-23.5 -18q5 177 9.5 352.5t-3.5 353.5q-1 3 1.5 6.5t6.5 6.5t7.5 6t5.5 5q1 0 5.5 3t9.5 6t9 5t4 0q10 -176 4 -354t-11 -355q0 -7 -11.5 -15.5t-16.5 -12.5q-1 0 -4 -2t-6.5 -4t-6.5 -3.5t-3 0.5q-8 47 -7.5 93t2.5 95
q2 45 3 90.5t-4 90.5q-4 41 -9 83t-7.5 84t-1.5 83.5t10 81.5q1 9 11.5 17t16.5 12l4 2.5t8 4.5t7 2.5t2 -2.5q-5 -85 -0.5 -170t8.5 -170t3 -170t-16 -169q-10 -5 -18.5 -9t-17.5 -9q15 14 34.5 25t40.5 2q14 -7 25.5 -20.5t16.5 -30.5q6 -18 5 -36.5t-12 -34.5
q-17 -21 -39.5 -39t-47.5 -26q-35 -10 -65 11t-40 57q-5 17 -4 33.5t12 30.5q14 20 36 35t45 21zM1167 1401q3 10 12.5 17t15.5 12q1 0 4.5 2t8 4t7.5 3t2 -2q-58 -146 -86.5 -301.5t-20.5 -314.5q12 -155 56.5 -303t115.5 -285q2 -3 -5 -10t-17 -14t-18.5 -11.5t-9.5 -2.5
q-72 139 -117.5 289t-53.5 311q-8 157 20 309t86 297zM889 443q-3 -10 -12.5 -16.5t-17.5 -11.5q-7 -4 -12 -7q-11 -6 -9 -1q15 35 25.5 70.5t22.5 71.5q5 17 10.5 33.5t6.5 35.5q5 18 7.5 36t5.5 36q21 149 -3 296q-11 70 -29 138.5t-39.5 136t-44.5 134.5t-44 135
q-2 3 1 5.5t4 4.5q20 21 41 38.5t45 33.5q3 1 8 4t8.5 4t4.5 -0.5t-5 -7.5q-25 -28 -56 -46q0 -1 -3.5 -2.5t-6.5 -2.5t-4.5 0t1.5 5q24 31 52.5 59.5t56.5 57t54 58.5t47 65q1 2 8.5 8.5t16 13.5t16 11t7.5 2q16 -43 38 -83.5t50 -76t61.5 -63.5t73.5 -46v-2l-10 -24
l-10 -24q-5 -8 -14 -16t-16 -13l-4 -2t-8.5 -3.5l-7.5 -2.5t-2 2q4 8 6.5 15t7.5 15q1 2 4.5 8.5t-0.5 8.5q-6 4 -10 6q-10 4 -19.5 10t-20.5 13q-39 30 -71 66q-32 38 -55.5 82t-41.5 90q12 8 23.5 16.5t24.5 16.5q-20 -35 -46.5 -65t-54.5 -58l-56.5 -56.5t-53.5 -60.5
h-13l-3 -3h16q-10 -7 -20.5 -14t-18.5 -16l2 4t3 5q21 -69 44.5 -137t45.5 -136.5t40 -138t29 -140.5q11 -72 11.5 -145.5t-9.5 -146.5q-5 -20 -7 -40t-7 -40q-3 -17 -8.5 -34.5t-10.5 -34.5q-11 -34 -21.5 -67.5t-23.5 -66.5zM1019 128q1 -1 -5 -8.5t-14.5 -15.5t-17.5 -13
t-13 -2q-50 42 -101 78t-108 63v2q12 26 24 51t24 52q5 9 13 15.5t15 13.5q1 0 5 2t8.5 3.5t7 2.5t1.5 -2q-10 -23 -20.5 -45.5t-22.5 -45.5q-3 -6 -0.5 -10t7 -7t10 -5t9.5 -4q10 -5 19 -10t18 -11q72 -44 141 -104zM1281 278l3.5 2t6.5 3t5 0t-1 -5q-7 -8 -16.5 -15.5
t-17.5 -12.5q-48 -30 -94 -62.5t-77 -83.5q-35 -57 -38 -122t14 -131q1 -5 -7 -12t-17.5 -13t-18 -10t-8.5 -3q-18 72 -11.5 145t50.5 135q45 61 104.5 104t122.5 81zM856 390q3 -1 1.5 -4t-4.5 -7t-6.5 -7t-4.5 -4q-5 -3 -15.5 -12.5t-18.5 -6.5q-53 14 -102.5 37.5
t-91.5 62.5q-1 1 5.5 9t15.5 15.5t17.5 13t12.5 2.5q39 -38 89 -62t102 -37zM1198 1463q-2 1 -0.5 3.5t4.5 6t6 6t4 3.5q2 3 6.5 7t10 7.5t10.5 6t8 1.5q98 -31 177 -99.5t133 -162.5q34 -63 56.5 -132.5t28.5 -141.5t-5.5 -143.5t-44.5 -137.5q-32 -65 -79 -120t-103 -98.5
t-119 -74.5t-128 -47q-5 -1 -5.5 0.5t1.5 3.5l4.5 4.5l3.5 3.5q7 7 16.5 15.5t17.5 10.5q77 19 145.5 57t122.5 101q43 51 73.5 112t42.5 128q14 75 6.5 151t-31.5 148q-23 66 -58 126.5t-81 110.5t-102.5 87t-120.5 57zM814 413q3 -1 1.5 -4.5t-4.5 -7t-6.5 -6.5t-3.5 -4
q-7 -5 -16.5 -13t-16.5 -6q-50 2 -97.5 18.5t-88.5 44.5t-75.5 66.5t-58.5 85.5q-33 63 -52 131.5t-23.5 139t6.5 141t39 137.5q8 16 17 32.5t17 32.5q3 6 7.5 11.5t9.5 11.5q7 15 16 27q21 29 47.5 53t55.5 46q60 46 124.5 77.5t134.5 54.5q4 3 4 1.5t-2.5 -4t-5 -5.5
l-2.5 -3q-7 -8 -16.5 -15.5t-18.5 -11.5q-39 -14 -76.5 -29.5t-74.5 -36.5q-31 -17 -62.5 -38t-52.5 -52q-7 -8 -13 -16t-11 -17q-5 -7 -9 -12.5t-7 -13.5q-11 -15 -18.5 -30.5t-15.5 -32.5q-14 -33 -23 -67.5t-14 -70.5q-11 -71 -6 -143t25 -141q22 -68 55.5 -129.5
t84.5 -106.5q48 -45 105.5 -69t120.5 -26zM345 1329q7 4 9.5 2t-4.5 -10q-8 -7 -17 -14.5t-18 -12.5q-8 -5 -17.5 -9.5t-15.5 -9.5q-5 -3 -8 -4.5t-9 -8.5q-13 -14 -25 -29t-20 -32q-22 -35 -33 -75.5t-17 -81.5q-15 -94 -5 -191.5t36 -188.5q21 -87 55.5 -171t83.5 -157
q31 -44 68 -79t77 -67q55 -45 113.5 -81.5t118.5 -69.5q32 -15 63 -32t61 -34q23 -13 46.5 -27t46.5 -25q49 -25 98.5 -48.5t98.5 -47.5q50 -25 98 -51.5t91 -60.5q31 -26 59 -60t36 -76q7 -36 -11.5 -59.5t-45.5 -38.5q-21 -13 -44.5 -16t-46.5 5q-17 5 -34 18.5t-21 36.5
q-2 17 4.5 33t17 30t23.5 26t24 22q-5 -5 -8 -9.5t-8 -9.5q-55 40 -111 78.5t-114 73.5q-29 19 -59.5 35.5t-61.5 32.5q-28 14 -56 27t-59 21q-43 10 -85 3.5t-78 -33.5q-40 -30 -75 -68.5t-70 -74.5q0 -1 -6.5 -5.5t-14 -9.5t-13.5 -8.5t-6 -1.5q-5 67 -24.5 126t-58.5 113
q-35 48 -74 91t-77 89q-44 59 -82.5 121.5t-67.5 129.5q-25 60 -41 121.5t-22 127.5q-5 47 -6 93t2 95q3 97 23 193t68 181q25 42 58 78.5t72 64t83 44.5t91 22q3 0 1 -4q-8 -23 -28 -39.5t-40 -30.5q-1 0 -4.5 -2t-7.5 -4t-7 -3t-1 2q2 8 11 15t16 12q4 2 6 4.5t7 5.5
q-13 -16 -6 -4q4 7 -0.5 6t-9.5 -1q-17 -1 -33 -7q-17 -4 -32.5 -9t-29.5 -13l-10 -6t-10 -5q-2 -2 -2.5 -3.5t-5.5 -4.5q-2 -1 -3 -2.5t-4 -4.5q-8 -5 -13 -11q-15 -17 -27.5 -34.5t-22.5 -37.5q-23 -41 -38.5 -85.5t-26.5 -92.5q-22 -94 -25 -192.5t7 -195.5
q8 -71 28 -138t50 -129.5t68 -120.5t81 -112q36 -46 75 -87.5t71 -91.5q34 -50 51.5 -106t20.5 -119l-20 -12l-20 -12q36 37 75.5 79.5t84 78t93.5 56t105 13.5q31 -3 60 -13.5t58 -24.5q32 -16 64 -33t62 -36q65 -39 126 -80t121 -86q1 -1 -0.5 -4t-4.5 -6t-6.5 -6t-4.5 -4
q-7 -6 -14.5 -14.5t-13 -19t-8 -23t1.5 -24.5q7 -19 22.5 -30.5t32.5 -15.5q10 -3 19.5 -4.5t20.5 0.5q5 0 8.5 1t8.5 3q2 1 2.5 1t-2.5 -1q-5 -3 -10 -7.5t-7 -6.5q-2 -4 -0.5 -0.5t1.5 2.5q1 2 2 4.5t1 5.5q3 7 3 20q-1 14 -6 27t-11 27q-23 45 -58.5 75t-74.5 56
q-51 30 -101 56t-102 52q-46 21 -92 42.5t-88 48.5q-29 20 -60 35.5t-62 32.5q-32 17 -61.5 32.5t-59.5 33.5q-47 28 -93 59t-88.5 67t-79.5 78t-65 91q-48 81 -80 169t-51 180q-18 91 -23 186.5t16 186.5q24 91 80.5 160.5t137.5 108.5zM1212 -46q-2 1 1 4.5t7.5 8t8.5 8
t5 4.5q4 2 14 9.5t15 4.5q19 -9 38 -15t39 -11q3 -1 2 -4t-4 -7t-6.5 -7t-4.5 -4q-3 -2 -7 -5.5t-9 -7t-9 -6t-7 -1.5q-23 6 -43 12t-40 17zM1219 -46q18 -29 55 -29q7 -1 16.5 7.5t15.5 12.5l4.5 4.5t7 7.5t4.5 7t-2 3q-32 0 -51 26q-2 3 -10.5 -1.5t-17.5 -12t-16.5 -15
t-5.5 -10.5zM807 1417q3 0 1 -3t-5 -7t-6 -7t-3 -4q-8 -5 -16.5 -11.5t-16.5 -7.5q-40 -9 -75.5 -28t-64.5 -50q-30 -33 -53 -72.5t-39 -81.5q-41 -111 -30 -225.5t65 -217.5q25 -49 59.5 -95t77.5 -82t92.5 -57.5t105.5 -20.5q3 0 1.5 -3t-4.5 -6.5l-6 -7t-4 -3.5
q-6 -6 -15 -13t-17 -7q-57 -2 -108 19t-95 58t-79.5 85t-61.5 99q-51 100 -62 213t29 225q21 56 54.5 106.5t76 91.5t93 70t106.5 43zM1176 1413q58 -15 108 -47.5t91 -77t72 -98.5t52 -112t30.5 -119.5t5.5 -122t-21.5 -119.5t-49.5 -112q-42 -69 -100.5 -117.5
t-132.5 -77.5q-19 -7 -34 -25q-1 0 -4 -3t-5 -6t-1.5 -4.5t5.5 0.5q54 22 105.5 53.5t97 72t83.5 89t64 105.5q25 56 36 116t8.5 121t-16.5 120.5t-38 114.5q-23 51 -54.5 97.5t-71 84.5t-86.5 65.5t-99 40.5q-3 1 -8 -1.5t-9.5 -6t-8.5 -7.5t-7 -6l-3.5 -3t-6.5 -6t-4 -6
t2 -3z" />
    <glyph glyph-name="aring" unicode="&#xe5;" horiz-adv-x="1398" 
d="M68 1676q91 -61 198 -174q28 -30 74 -56q53 -31 86 -28q35 3 102 52q205 149 418 284q162 102 380 98q197 -4 353 -97q169 -100 235 -275q14 -37 14 -66q0 -50 -40 -50q-32 0 -62 64q-71 151 -200.5 233t-295.5 81q-117 -1 -186 -21q-60 -18 -170 -79q-73 -41 -202 -138
q-135 -102 -204 -146q-85 -54 -152 -54t-146 54q-45 30 -129 111q-82 78 -129 109q-118 76 -262 70l28 106q165 6 290 -78z" />
    <glyph glyph-name="ccedilla" unicode="&#xe7;" 
d="M-646 -572q-22 48 -52 200h-60q-58 0 -58 38q0 33 44 86q16 20 56.5 39t65.5 19q34 0 34 -36v-58h328v224h92v-424q0 -65 -42 -122q-62 -84 -182 -84q-173 0 -226 118zM-288 -372h-324q10 -54 36 -142q28 -58 59 -75q27 -15 95 -15q134 0 134 134v98z" />
    <glyph glyph-name="udieresis" unicode="&#xfc;" 
d="M-454 -620q164 0 340 68v-80q-190 -66 -340 -68q-151 -2 -344 68v80q186 -68 344 -68z" />
    <glyph glyph-name="dagger" unicode="&#x2020;" 
d="M-606 -250q0 9 11 19t25.5 20t29 18.5t22.5 13.5q2 2 12.5 8.5t22.5 11.5t22 6t10 -7q0 -41 -8 -81t-13 -80q0 -9 -10.5 -19.5t-25 -20.5t-29 -18.5t-22.5 -13.5q-6 -3 -14.5 -8t-17.5 -9t-18.5 -6t-17.5 0q-42 11 -85 18.5t-85 4.5q-8 0 -13.5 -2t-13.5 -2l-7.5 -2.5
t-2 -0.5h-1.5t-4 -2q9 3 21 10t23 14t20 12.5t13 7.5q-3 0 -6.5 -2.5t-3.5 -6.5q-23 -37 -24 -82.5t19 -87.5q6 -17 16.5 -36t25.5 -36.5t34.5 -30.5t42.5 -18q12 0 23.5 -1.5t23.5 1.5q8 0 12 0.5t9 3.5q-8 -3 -15.5 -8.5t-15.5 -8.5q-4 -3 -9 -7.5t-8 -7t-2.5 -2t8.5 7.5
q4 7 8 11t7 11q16 17 28.5 33.5t23.5 33.5q6 12 16.5 22t22.5 19t25 16.5t25 14.5q1 0 13.5 5.5t25.5 10.5t22.5 7t5.5 -5q-32 -51 -71 -95.5t-89 -79.5q-22 -13 -45.5 -28t-48 -28t-50.5 -22.5t-53 -10.5q-33 0 -61.5 11.5t-51 30.5t-39 43t-26.5 50q-19 60 -8 119.5
t66 104.5q42 36 99 68.5t119 42.5q51 10 100 1t96 -23q-38 -24 -77 -47.5t-78 -47.5q0 41 8.5 81t12.5 81z" />
    <glyph glyph-name="degree" unicode="&#xb0;" horiz-adv-x="740" 
d="M366 1496q125 0 216 -90.5t92 -215.5q1 -126 -90.5 -214.5t-217.5 -89.5q-127 -1 -217.5 89t-90.5 217q0 125 91.5 214.5t216.5 89.5zM366 1406q-90 1 -152 -62.5t-64 -153.5q-2 -87 62.5 -153t151.5 -67q88 -1 153 64.5t67 153.5q2 91 -62.5 154t-155.5 64zM666 782
v-106h-598v106h598z" />
    <glyph glyph-name="cent" unicode="&#xa2;" horiz-adv-x="1056" 
d="M840 1104v-98q-114 70 -296 80v-808q176 10 292 80v-102q-104 -72 -292 -80v-168h-70v170q-210 19 -342 158t-132 348q0 193 118 334q131 156 356 178v158h70v-158q188 -10 296 -92zM474 278v808q-159 -25 -256.5 -134.5t-97.5 -269.5q0 -149 88 -258q97 -120 266 -146z
" />
    <glyph glyph-name="sterling" unicode="&#xa3;" horiz-adv-x="1180" 
d="M488 666q20 -85 8 -92h248v-50h-242q-10 -94 -24 -170q-18 -101 -120 -198q136 -61 250 -61q179 0 326 91l52 -80q-143 -90 -350 -106q-80 -6 -214 30t-200 36q-84 0 -166 -68l-56 96q36 21 102 58q16 9 74 22q52 12 68 24q101 79 124 170q10 38 18 152h-244v54h250
q2 33 -18 108q-48 176 -48 242q0 137 97 209q88 64 229 61q174 -4 286 -136q20 -23 80 -146h-110q-25 59 -56 96q-73 86 -186 86q-236 0 -236 -172q0 -39 23 -127q18 -65 35 -129z" />
    <glyph glyph-name="section" unicode="&#xa7;" 
d="M-178 -216q0 -146 -63 -217v0q0 1 3 3q-78 -72 -184 -72q-122 0 -228 106q-78 78 -78 196q0 74 56 106q28 16 80 16q72 0 74 -20q2 -22 -82 -38q-44 -8 -44 -48q0 -102 60 -154q84 -73 180 -70q56 2 89 59q29 53 29 131v178h108v-176zM-404 -568q164 0 340 68v-74
q-190 -66 -340 -68q-151 -2 -344 68v74q186 -68 344 -68zM-404 -722q164 0 340 64v-74q-170 -59 -340 -64q-150 -5 -344 64v74q186 -64 344 -64z" />
    <glyph glyph-name="bullet" unicode="&#x2022;" horiz-adv-x="860" 
d="M94 596l340 340l340 -340l-340 -340z" />
    <glyph glyph-name="paragraph" unicode="&#xb6;" horiz-adv-x="724" 
d="M596 992h-66v-1324h-68v1324h-126v-1324h-68v704q-129 23 -201 127q-67 97 -67 233q0 106 70 202q92 126 258 126h268v-68z" />
    <glyph glyph-name="registered" unicode="&#xae;" 
d="M-519 103q-5 9 2.5 21t22.5 24t33.5 22.5t36 18t30 10t14.5 -1.5q22 -45 20 -90t-20.5 -86t-50 -77t-70.5 -64q-39 -24 -79.5 -41t-77.5 -17t-67 21.5t-48 73.5q-3 10 11.5 25t34.5 29t40 25t27 14q40 14 77 10t72 -18.5t69.5 -36t69 -41.5t69.5 -35.5t73 -17.5
q11 -4 8 -12.5t-11 -18.5q-9 -11 -24 -25q-22 -14 -47 -30t-47 -16q-49 0 -97.5 22.5t-90.5 51.5q-17 10 -42 27t-53 31t-57 20t-53 -4q29 29 56 51t56 42q7 -20 16.5 -45t30.5 -39q14 -7 23 -8t23 -1q15 0 15 -1t-15 -8q35 42 37.5 94t-17.5 101z" />
    <glyph glyph-name="acute" unicode="&#xb4;" 
d="M-568 -48q-3 -42 -3 -80q0 -66 9 -119q14 -83 112 -145q22 -14 56 -14q63 0 90 32q18 22 44 64q28 68 42 66q23 -3 14 -70q-10 -76 -46 -132q-43 -66 -132 -66q-96 0 -168 72q-66 68 -84 166q-22 122 10 226h56z" />
    <glyph glyph-name="dieresis" unicode="&#xa8;" 
d="M-454 -550q164 0 340 68v-80q-190 -66 -340 -68q-151 -2 -344 68v80q186 -68 344 -68zM-454 -716q164 0 340 64v-80q-170 -59 -340 -64q-150 -5 -344 64v80q186 -64 344 -64z" />
    <glyph glyph-name="AE" unicode="&#xc6;" horiz-adv-x="2000" 
d="M1 1448q-4 -15 -21 -28t-32 -23q-13 -6 -23 -10q-8 -3 -14 -3.5t-4 6.5q25 82 78.5 149t126 118.5t159 88.5t178.5 59.5t183.5 31t174.5 3.5q56 -2 116.5 -9.5t118.5 -24t111 -44t94 -67.5q40 -43 55.5 -90.5t12.5 -97t-21.5 -99t-46.5 -94.5q-11 -14 -29.5 -27.5
t-38.5 -23.5q-3 0 -9.5 -2.5t-12 -4t-8.5 1t2 11.5q25 41 42.5 86t21.5 90t-9 89t-48 85q-36 36 -80.5 61.5t-94 43.5t-101.5 29t-103 19q-70 6 -147.5 5t-156 -13t-153.5 -35.5t-138.5 -61.5t-111 -92t-71.5 -127z" />
    <glyph glyph-name="Oslash" unicode="&#xd8;" horiz-adv-x="386" 
d="M424 1076h-448v122h448v-122z" />
    <glyph glyph-name="plusminus" unicode="&#xb1;" horiz-adv-x="1224" 
d="M638 674v-370h-118v370h-372v118h372v370h118v-370h372v-118h-372zM1098 20h-1038v102h1038v-102z" />
    <glyph glyph-name="yen" unicode="&#xa5;" horiz-adv-x="1112" 
d="M688 750h340v-76h-402v-216h402v-76h-402v-382h-140v382h-400v76h400v216h-400v76h338l-400 626h156l376 -628l376 628h156z" />
    <glyph glyph-name="mu" unicode="&#xb5;" 
d="M-816 1486q2 -26 30 -86.5t28 -71.5q0 -9 -8 -9q-16 0 -55 46q-49 57 -59 101q-6 27 -6 52q0 74 54 142q64 80 206 80t206 -80q54 -68 54 -142q0 -25 -6 -52q-10 -44 -59 -101q-39 -46 -55 -46q-8 0 -8 9q0 11 28 71.5t30 86.5q6 74 -57 122q-57 44 -133 44t-133 -44
q-63 -48 -57 -122z" />
    <glyph glyph-name="mu" unicode="&#x3bc;" 
d="M-816 1486q2 -26 30 -86.5t28 -71.5q0 -9 -8 -9q-16 0 -55 46q-49 57 -59 101q-6 27 -6 52q0 74 54 142q64 80 206 80t206 -80q54 -68 54 -142q0 -25 -6 -52q-10 -44 -59 -101q-39 -46 -55 -46q-8 0 -8 9q0 11 28 71.5t30 86.5q6 74 -57 122q-57 44 -133 44t-133 -44
q-63 -48 -57 -122z" />
    <glyph glyph-name="ordfeminine" unicode="&#xaa;" horiz-adv-x="1208" 
 />
    <glyph glyph-name="ae" unicode="&#xe6;" horiz-adv-x="26" 
d="M-600 -124q48 0 82 -34t34 -82t-34 -82t-82 -34t-82 34t-34 82t34 82t82 34z" />
    <glyph glyph-name="questiondown" unicode="&#xbf;" horiz-adv-x="1332" 
d="M714 614l322 -324l-82 -82l-322 322l-322 -322l-84 82l322 324l-322 322l84 82l322 -322l322 322l82 -82z" />
    <glyph glyph-name="exclamdown" unicode="&#xa1;" horiz-adv-x="1820" 
d="M380 572q8 14 22 24.5t29 19.5q1 1 7.5 4t13.5 5.5t11.5 4t2.5 -0.5q-23 -32 -55 -59.5t-67 -47.5q-26 -16 -52.5 -28t-55.5 -14q-35 -2 -68 6t-61 24.5t-48 42.5t-29 60q-11 45 -3 86t29 77t51.5 67t65.5 56q33 23 74 45.5t84 33t85 4t78 -39.5q15 -14 22.5 -30.5
t10.5 -34.5t3.5 -37t0.5 -39q-2 -61 -6 -122t-7.5 -122.5t-5 -123.5t0.5 -124q0 -19 2.5 -47.5t8 -58.5t16 -57.5t26.5 -45.5t38.5 -22t54.5 13q13 7 15 3.5t-9 -14.5q-12 -14 -29 -24t-34 -19q0 -1 -1 -2v-1h-1q-17 -8 -35 -14t-35.5 -7t-33.5 6t-28 24q-12 19 -20 41
t-12.5 45.5t-6.5 47t-3 44.5q-5 62 -4 124t5 124.5t8 124.5t6 124q0 22 -0.5 43t-3.5 43q0 14 -2 27.5t-9 24.5q-27 32 -64 50t-82 13q-21 -2 -42.5 -7t-40.5 -16l-6 -4t-8 -4q-4 -2 -3 -1.5t3 2t4.5 2.5t1.5 -1q-12 -8 -28 -25q-22 -30 -35 -66.5t-13 -74t13.5 -72.5
t44.5 -62q26 -22 59 -34t65 -12q17 0 34.5 2.5t34.5 9.5q16 6 10 3t-16 -10q6 5 11.5 11t10.5 12zM672 798q-4 -2 0 3t9 11q6 7 15 16q12 11 26 20t31 14q88 26 173.5 53t176.5 41q40 4 81 3.5t77 -14.5q9 -5 20.5 -11t21.5 -13.5t16.5 -17t5.5 -21.5q0 -26 -18.5 -45.5
t-36.5 -35.5q-32 -28 -68.5 -50t-74.5 -41q-57 -28 -120.5 -50t-127.5 -33q-3 -2 0.5 3t8.5 10l15 15q13 11 28 20.5t29 13.5q71 20 143.5 16t135.5 -39q24 -12 46.5 -28.5t40.5 -37.5t29.5 -46t13.5 -53q3 -43 -16 -80t-50 -67.5t-68.5 -53.5t-70.5 -39q-44 -21 -90.5 -34
t-93.5 -15t-94 8t-91 35q-80 50 -126.5 130t-49.5 174q-2 64 14 129t39 125q27 73 64 142.5t84.5 132.5t104.5 118t123 99q26 17 54.5 32.5t59 27t61.5 16t63 -1.5q37 -5 68 -20.5t57 -37.5t47 -49t39 -55q3 -5 -10 -16.5t-30 -23t-31.5 -19t-15.5 -4.5q-29 43 -65 82
t-84 60q-52 26 -109.5 21t-110.5 -35q-8 -4 -10.5 -6t-10.5 -11q-11 -8 -22.5 -18.5t-22.5 -21.5q-25 -28 -49 -58t-47 -63q-42 -63 -76 -130.5t-57 -140.5q-21 -65 -32.5 -132.5t0.5 -133.5q9 -47 29 -90t49.5 -79t67.5 -63.5t84 -42.5q95 -30 195 -8q25 6 50 16t50 23
q-5 -2 -4.5 -1t8.5 7q6 6 9.5 12.5t8.5 13.5q18 30 19.5 61t-8.5 60t-30 54.5t-46 44.5q-70 50 -152.5 61.5t-164.5 -9.5q20 15 41 31t40 31q117 23 220 75q25 8 49 25q-3 -2 -2 -1.5t2.5 1l1.5 0.5l-4 -3q-3 0 -3.5 -1.5t-2.5 -3.5q-5 -2 -1 2t7 6q12 13 12 29.5t-12 28.5
q-24 26 -56.5 37t-68.5 12.5t-72 -3.5t-66 -11q-75 -15 -147 -39.5t-145 -44.5zM1484 1205q1 -4 -3.5 -9.5t-11.5 -11t-13.5 -10t-7.5 -6.5q-2 -1 -10 -6t-17 -10t-16.5 -8.5t-7.5 -1.5q-14 59 -11.5 118.5t18 116.5t43 110.5t65.5 100.5q39 51 88.5 97t105.5 82.5t117.5 62
t126 36t130 4t129.5 -34.5q34 -15 69 -37.5t63.5 -51t47.5 -63.5t22 -74q5 -51 -13 -94.5t-50 -81t-72.5 -69t-79.5 -56.5q-11 -7 -19 -11q-7 -4 -12 -5.5t-2 1.5q6 14 21.5 24.5t28.5 19.5q35 23 63 57.5t39 76.5q11 40 5.5 77.5t-22.5 70.5t-44 61t-60 48
q-77 53 -170.5 72t-183.5 -2q-42 -8 -84 -26t-75 -44q-37 -30 -69.5 -67t-55.5 -75q-51 -87 -71.5 -184t-0.5 -197z" />
    <glyph glyph-name="florin" unicode="&#x192;" horiz-adv-x="1218" 
 />
    <glyph glyph-name="ellipsis" unicode="&#x2026;" horiz-adv-x="2074" 
d="M228 -108q0 38 27 65t65 27q37 0 63.5 -27.5t26.5 -64.5q0 -36 -27 -63t-63 -27q-37 0 -64.5 26.5t-27.5 63.5zM938 -108q0 38 27 65t65 27q37 0 63.5 -27.5t26.5 -64.5q0 -36 -27 -63t-63 -27q-37 0 -64.5 26.5t-27.5 63.5zM1648 -108q0 38 27 65t65 27q37 0 63.5 -27.5
t26.5 -64.5q0 -36 -27 -63t-63 -27q-37 0 -64.5 26.5t-27.5 63.5z" />
    <glyph glyph-name="nonbreakingspace" unicode="&#xa0;" horiz-adv-x="800" 
 />
    <glyph glyph-name="OE" unicode="&#x152;" horiz-adv-x="2656" 
 />
    <glyph glyph-name="oe" unicode="&#x153;" 
d="M-471 66q-6 6 9 23t36.5 33t43 25t27.5 0q48 -52 49 -96t-28 -79.5t-81 -62.5t-110 -45t-115 -27.5t-96 -9.5q-6 0 4 11t25.5 24.5t31 25t21.5 11.5q31 18 69 29t77 12.5t76.5 -8t68.5 -33.5t44.5 -53t11 -59t-19 -59t-44.5 -53q-56 -48 -127.5 -76t-146.5 -28
q-34 3 -73 8t-76.5 15.5t-70 28t-53.5 44.5q-6 6 8.5 22.5t36.5 32.5t43 24.5t27 -0.5q32 -30 77 -47.5t89 -23.5q32 -6 62.5 -11t62.5 -5q12 0 29.5 1t37.5 7q12 0 13 1t-5 7q12 34 5 63t-26.5 51.5t-49.5 37.5t-63.5 21.5t-68 3.5t-63.5 -17q19 18 41.5 36.5t41.5 43.5
q86 0 175 24q21 6 23.5 22t-5.5 35.5t-21 38.5t-23 31z" />
    <glyph glyph-name="endash" unicode="&#x2013;" horiz-adv-x="1040" 
d="M924 544h-812v114h812v-114z" />
    <glyph glyph-name="emdash" unicode="&#x2014;" horiz-adv-x="1800" 
d="M100 660h1600v-118h-1600v118z" />
    <glyph glyph-name="quotedblleft" unicode="&#x201c;" horiz-adv-x="1250" 
d="M110 1226q0 99 98 202q81 86 164 124l18 -42q-105 -65 -148 -144q-20 -36 -24 -76q-2 -20 -6 -62q16 -18 72 -20q76 -2 96 -8q47 -13 52 -66q5 -55 -36 -88q-37 -28 -94 -28q-66 0 -116 36q-76 54 -76 172zM630 1226q0 99 98 202q81 86 164 124l18 -42
q-105 -65 -148 -144q-20 -36 -24 -76q-2 -20 -6 -62q16 -18 72 -20q76 -2 96 -8q47 -13 52 -66q5 -55 -36 -88q-37 -28 -94 -28q-66 0 -116 36q-76 54 -76 172z" />
    <glyph glyph-name="quotedblright" unicode="&#x201d;" horiz-adv-x="1230" 
d="M1132 1344q0 -99 -98 -202q-81 -86 -164 -124l-18 42q105 65 148 144q20 36 24 76q2 20 6 62q-17 19 -72 20q-74 1 -96 8q-47 15 -52 66q-5 55 36 88q37 28 94 28q66 0 116 -36q76 -54 76 -172zM612 1344q0 -99 -98 -202q-81 -86 -164 -124l-18 42q105 65 148 144
q20 36 24 76q2 20 6 62q-17 19 -72 20q-74 1 -96 8q-47 15 -52 66q-5 55 36 88q37 28 94 28q66 0 116 -36q76 -54 76 -172z" />
    <glyph glyph-name="quoteleft" unicode="&#x2018;" horiz-adv-x="846" 
d="M170 1226q0 99 98 202q81 86 164 124l18 -42q-105 -65 -148 -144q-20 -36 -24 -76q-2 -20 -6 -62q16 -18 72 -20q76 -2 96 -8q47 -13 52 -66q5 -55 -36 -88q-37 -28 -94 -28q-66 0 -116 36q-76 54 -76 172z" />
    <glyph glyph-name="quoteright" unicode="&#x2019;" horiz-adv-x="806" 
d="M612 1344q0 -99 -98 -202q-81 -86 -164 -124l-18 42q105 65 148 144q20 36 24 76q2 20 6 62q-17 19 -72 20q-74 1 -96 8q-47 15 -52 66q-5 55 36 88q37 28 94 28q66 0 116 -36q76 -54 76 -172z" />
    <glyph glyph-name="ydieresis" unicode="&#xff;" horiz-adv-x="1700" 
 />
    <glyph glyph-name="currency" unicode="&#xa4;" horiz-adv-x="434" 
d="M-48 1490q-25 51 -26 136q-1 74 10 74q7 0 24 -54q25 -81 52 -122q66 -100 194 -100q132 0 198 100q27 41 52 122q17 54 24 54q11 0 10 -74q-1 -86 -26 -136q-36 -71 -105 -118q-72 -48 -149 -48q-79 0 -150.5 47t-107.5 119zM478 1076h-502v122h502v-122z" />
    <glyph glyph-name="guilsinglleft" unicode="&#x2039;" horiz-adv-x="1160" 
d="M66 538v122h998v-122h-998zM480 964q0 35 23.5 59.5t58.5 24.5q36 0 60 -24t24 -60q0 -35 -24.5 -58.5t-59.5 -23.5q-34 0 -58 24t-24 58zM480 230q0 35 23.5 59.5t58.5 24.5q36 0 60 -24t24 -60q0 -35 -24.5 -58.5t-59.5 -23.5q-34 0 -58 24t-24 58z" />
    <glyph glyph-name="periodcentered" unicode="&#xb7;" horiz-adv-x="700" 
d="M330 712q53 0 91.5 -39.5t38.5 -92.5q0 -60 -46 -96q-38 -30 -84 -30q-52 0 -90 37t-38 89q0 54 37 93t91 39z" />
    <glyph glyph-name="periodcentered" unicode="&#x2219;" horiz-adv-x="700" 
d="M330 712q53 0 91.5 -39.5t38.5 -92.5q0 -60 -46 -96q-38 -30 -84 -30q-52 0 -90 37t-38 89q0 54 37 93t91 39z" />
    <glyph glyph-name="quotesinglbase" unicode="&#x201a;" horiz-adv-x="2656" 
 />
    <glyph glyph-name="perthousand" unicode="&#x2030;" horiz-adv-x="2656" 
 />
    <glyph glyph-name="Iacute" unicode="&#xcd;" 
d="M-542 -238q-98 0 -98 -72q0 -26 35 -51q32 -23 59 -23h326v-84h-238q15 -108 80 -144q36 -20 98 -8q6 2 54 14q-2 -14 -14 -42q-30 -40 -86 -40q-104 0 -156 68q-9 11 -44 78q-13 34 -26 62q-7 16 -48 34q-19 8 -56 26q-62 32 -68 112q-4 61 39.5 106.5t104.5 45.5h292
v98h82v-180h-336z" />
    <glyph glyph-name="Icircumflex" unicode="&#xce;" horiz-adv-x="1086" 
d="M853 1105q0 7 7 14.5t16.5 14.5t19.5 13.5t16 11.5q20 12 36 20q14 7 25.5 11.5t11.5 -0.5q9 -134 22 -267.5t20.5 -267.5t5.5 -268t-23 -268q-2 -9 -11 -18t-20.5 -17t-23 -15.5t-17.5 -11.5q-2 0 -11.5 -4.5t-20 -9t-18.5 -6.5t-6 3q19 133 21 266t-5.5 266.5
t-20.5 266.5t-24 266zM980 646q6 -2 2 -8t-11.5 -13.5t-15.5 -14t-9 -7.5q-6 -5 -17.5 -13.5t-24 -17t-25.5 -14t-22 -3.5q-77 17 -157 8.5t-157 -31.5q32 20 61 41t58 44q16 -59 23 -118.5t-2 -119.5q-16 -88 -72 -152t-136 -114q-61 -39 -131.5 -61.5t-145.5 -13.5
q-27 3 -54.5 10.5t-52.5 20.5t-46 31.5t-33 43.5q-18 29 -20.5 59.5t5 60.5t23 59t34.5 56q13 17 38 33.5t47 28.5q3 2 11.5 6t15.5 6t10 0t-3 -12q0 -4 -8 -12q-16 -25 -27 -53t-14 -56.5t4 -56.5t28 -53q35 -44 90.5 -65t113.5 -18q29 0 62 5.5t53 11.5q1 1 4.5 3t6 3
t2.5 0.5t-5 -2.5q3 3 8 5.5t-8 -1.5q6 2 5 0.5t-5 -4.5q-4 -4 -13 -8q6 4 6 3.5t-2 -2t-3 -2t4 4.5l2 1l2.5 2.5t3.5 4.5q7 5 12.5 13t9.5 14q27 38 39 82t13 89.5t-6.5 91t-20.5 86.5q-2 6 3.5 13t13 13.5t15 11t10.5 6.5q16 14 35 25.5t42 19.5q80 25 164 37t167 -8z" />
    <glyph glyph-name="Idieresis" unicode="&#xcf;" horiz-adv-x="26" 
d="M-278 -686v316h-158v-108q0 -130 -110 -130q-117 0 -236 98q-56 46 -56 72q-6 18 26 104q12 33 32 98q9 46 9 86t-9 74h88q12 -65 2 -158q-6 -51 -26 -98q-10 -36 -32 -96q36 -36 80 -60q77 -42 106 -42q50 0 50 72v176h234v224h88v-628h-88z" />
    <glyph glyph-name="Oacute" unicode="&#xd3;" horiz-adv-x="2656" 
 />
    <glyph glyph-name="Ocircumflex" unicode="&#xd4;" horiz-adv-x="2656" 
 />
    <glyph glyph-name="Ograve" unicode="&#xd2;" horiz-adv-x="700" 
d="M236 -20h-120v1218h120v-1218zM566 -20h-120v1218h120v-1218z" />
    <glyph glyph-name="Uacute" unicode="&#xda;" horiz-adv-x="910" 
d="M496 1138q130 -61 130 -210q0 -52 -20 -96q-59 -130 -210 -130q-52 0 -96 20q-132 59 -132 210q0 49 22 96q62 132 210 132q49 0 96 -22zM400 1066q-56 0 -97 -40.5t-41 -95.5t38.5 -93.5t93.5 -38.5q90 0 126 74q12 24 12 58q0 55 -39 95.5t-93 40.5zM502 508
q130 -61 130 -210q0 -52 -20 -96q-59 -130 -210 -130q-52 0 -96 20q-132 59 -132 210q0 49 22 96q62 132 210 132q49 0 96 -22zM406 436q-56 0 -97 -40.5t-41 -95.5t38.5 -93.5t93.5 -38.5q90 0 126 74q12 24 12 58q0 55 -39 95.5t-93 40.5z" />
    <glyph glyph-name="circumflex" unicode="&#x2c6;" 
d="M-230 1604q52 0 91 -39t39 -91t-39 -91t-91 -39t-91 39t-39 91t39 91t91 39z" />
    <glyph glyph-name="tilde" unicode="&#x2dc;" 
d="M-402 -684v84q112 44 112 168q0 47 -38 92q-55 66 -168 66t-168 -66q-38 -45 -38 -92q0 -124 112 -168v-84q-197 66 -198 254q-1 82 62 152q71 80 184 84v134h90v-134q115 -4 186 -84q63 -70 62 -152q-1 -188 -198 -254z" />
  </font>
</defs>
</svg>
